<?xml version="1.0" encoding="utf-8"?>
<!-- Generator: Adobe Illustrator 17.1.0, SVG Export Plug-In . SVG Version: 6.00 Build 0)  -->
<!DOCTYPE svg PUBLIC "-//W3C//DTD SVG 1.1//EN" "http://www.w3.org/Graphics/SVG/1.1/DTD/svg11.dtd">
<svg version="1.1" id="Layer_1" xmlns="http://www.w3.org/2000/svg" xmlns:xlink="http://www.w3.org/1999/xlink" x="0px" y="0px"
	 viewBox="0 0 100 100" enable-background="new 0 0 100 100" xml:space="preserve">
<path fill="#FFFFFF" d="M63.5,26.4h20.3c1.8,0,3.4,0.7,4.8,2c1.3,1.3,2,2.9,2,4.8v27H56.8v-6.8H43.3v6.8H9.5v-27
	c0-1.8,0.7-3.4,2-4.8c1.3-1.3,2.9-2,4.8-2h20.3v-6.8c0-1.8,0.7-3.4,2-4.8c1.3-1.3,2.9-2,4.8-2h13.5c1.8,0,3.4,0.7,4.8,2
	c1.3,1.3,2,2.9,2,4.8V26.4z M90.5,66.9v13.5c0,1.8-0.7,3.4-2,4.8c-1.3,1.3-2.9,2-4.8,2H16.3c-1.8,0-3.4-0.7-4.8-2
	c-1.3-1.3-2-2.9-2-4.8V66.9H90.5z M43.3,26.4h13.5v-6.8H43.3V26.4z"/>
</svg>
