<svg width="1052" height="535" xmlns="http://www.w3.org/2000/svg"><g><path d="M-27,-94L-128,72L88,75Z" fill="#e3279c" stroke="#e3279c" fill-opacity="1" stroke-opacity="1"/><path d="M-27,-94L88,75L91,-26Z" fill="#e8259c" stroke="#e8259c" fill-opacity="1" stroke-opacity="1"/><path d="M-27,-94L91,-26L198,-39Z" fill="#ea2e93" stroke="#ea2e93" fill-opacity="1" stroke-opacity="1"/><path d="M-27,-94L198,-39L418,-123Z" fill="#f1569a" stroke="#f1569a" fill-opacity="1" stroke-opacity="1"/><path d="M-27,-94L418,-123L493,-129Z" fill="#f26896" stroke="#f26896" fill-opacity="1" stroke-opacity="1"/><path d="M91,-26L88,75L198,-39Z" fill="#ee51b2" stroke="#ee51b2" fill-opacity="1" stroke-opacity="1"/><path d="M198,-39L88,75L272,109Z" fill="#f48dd0" stroke="#f48dd0" fill-opacity="1" stroke-opacity="1"/><path d="M198,-39L272,109L429,64Z" fill="#f8a1d9" stroke="#f8a1d9" fill-opacity="1" stroke-opacity="1"/><path d="M198,-39L429,64L418,-123Z" fill="#f671bc" stroke="#f671bc" fill-opacity="1" stroke-opacity="1"/><path d="M418,-123L429,64L493,-129Z" fill="#f27aae" stroke="#f27aae" fill-opacity="1" stroke-opacity="1"/><path d="M493,-129L429,64L575,56Z" fill="#ec87b9" stroke="#ec87b9" fill-opacity="1" stroke-opacity="1"/><path d="M493,-129L575,56L669,-23Z" fill="#df7397" stroke="#df7397" fill-opacity="1" stroke-opacity="1"/><path d="M493,-129L669,-23L784,-103Z" fill="#d16f6f" stroke="#d16f6f" fill-opacity="1" stroke-opacity="1"/><path d="M493,-129L784,-103L1175,-80Z" fill="#a55940" stroke="#a55940" fill-opacity="1" stroke-opacity="1"/><path d="M669,-23L575,56L719,83Z" fill="#d4a0a1" stroke="#d4a0a1" fill-opacity="1" stroke-opacity="1"/><path d="M669,-23L719,83L793,83Z" fill="#c19f94" stroke="#c19f94" fill-opacity="1" stroke-opacity="1"/><path d="M669,-23L793,83L784,-103Z" fill="#ba6775" stroke="#ba6775" fill-opacity="1" stroke-opacity="1"/><path d="M784,-103L793,83L935,28Z" fill="#a46b68" stroke="#a46b68" fill-opacity="1" stroke-opacity="1"/><path d="M784,-103L935,28L1008,-68Z" fill="#904e43" stroke="#904e43" fill-opacity="1" stroke-opacity="1"/><path d="M784,-103L1008,-68L1175,-80Z" fill="#7b4430" stroke="#7b4430" fill-opacity="1" stroke-opacity="1"/><path d="M1008,-68L935,28L1077,82Z" fill="#7d5f59" stroke="#7d5f59" fill-opacity="1" stroke-opacity="1"/><path d="M1008,-68L1077,82L1175,-80Z" fill="#7c374a" stroke="#7c374a" fill-opacity="1" stroke-opacity="1"/><path d="M1175,-80L1077,82L1226,-50Z" fill="#7c324d" stroke="#7c324d" fill-opacity="1" stroke-opacity="1"/><path d="M1226,-50L1077,82L1292,87Z" fill="#7e5c64" stroke="#7e5c64" fill-opacity="1" stroke-opacity="1"/><path d="M-128,72L-103,541L-47,316Z" fill="#d08089" stroke="#d08089" fill-opacity="1" stroke-opacity="1"/><path d="M-128,72L-47,316L-40,245Z" fill="#e27fb8" stroke="#e27fb8" fill-opacity="1" stroke-opacity="1"/><path d="M-128,72L-40,245L88,75Z" fill="#e675c0" stroke="#e675c0" fill-opacity="1" stroke-opacity="1"/><path d="M88,75L-40,245L130,180Z" fill="#ec9bd0" stroke="#ec9bd0" fill-opacity="1" stroke-opacity="1"/><path d="M88,75L130,180L203,178Z" fill="#f3b5e0" stroke="#f3b5e0" fill-opacity="1" stroke-opacity="1"/><path d="M88,75L203,178L272,109Z" fill="#f6c2e8" stroke="#f6c2e8" fill-opacity="1" stroke-opacity="1"/><path d="M272,109L203,178L362,172Z" fill="#f9daf1" stroke="#f9daf1" fill-opacity="1" stroke-opacity="1"/><path d="M272,109L362,172L429,64Z" fill="#fadff7" stroke="#fadff7" fill-opacity="1" stroke-opacity="1"/><path d="M429,64L362,172L502,229Z" fill="#faf0f9" stroke="#faf0f9" fill-opacity="1" stroke-opacity="1"/><path d="M429,64L502,229L575,56Z" fill="#efe6e5" stroke="#efe6e5" fill-opacity="1" stroke-opacity="1"/><path d="M575,56L502,229L734,222Z" fill="#e0eaca" stroke="#e0eaca" fill-opacity="1" stroke-opacity="1"/><path d="M575,56L734,222L719,83Z" fill="#d0dab9" stroke="#d0dab9" fill-opacity="1" stroke-opacity="1"/><path d="M719,83L734,222L785,215Z" fill="#bfdba9" stroke="#bfdba9" fill-opacity="1" stroke-opacity="1"/><path d="M719,83L785,215L793,83Z" fill="#bad0a4" stroke="#bad0a4" fill-opacity="1" stroke-opacity="1"/><path d="M793,83L785,215L978,186Z" fill="#a4cb90" stroke="#a4cb90" fill-opacity="1" stroke-opacity="1"/><path d="M793,83L978,186L935,28Z" fill="#96b481" stroke="#96b481" fill-opacity="1" stroke-opacity="1"/><path d="M935,28L978,186L1077,82Z" fill="#7fa87c" stroke="#7fa87c" fill-opacity="1" stroke-opacity="1"/><path d="M1077,82L978,186L1179,222Z" fill="#80af80" stroke="#80af80" fill-opacity="1" stroke-opacity="1"/><path d="M1077,82L1179,222L1292,87Z" fill="#809c80" stroke="#809c80" fill-opacity="1" stroke-opacity="1"/><path d="M1292,87L1179,222L1329,172Z" fill="#809780" stroke="#809780" fill-opacity="1" stroke-opacity="1"/><path d="M-40,245L-47,316L119,329Z" fill="#db92a3" stroke="#db92a3" fill-opacity="1" stroke-opacity="1"/><path d="M-40,245L119,329L130,180Z" fill="#e7a7c2" stroke="#e7a7c2" fill-opacity="1" stroke-opacity="1"/><path d="M130,180L119,329L203,178Z" fill="#f1c5db" stroke="#f1c5db" fill-opacity="1" stroke-opacity="1"/><path d="M203,178L119,329L321,341Z" fill="#eddbcf" stroke="#eddbcf" fill-opacity="1" stroke-opacity="1"/><path d="M203,178L321,341L362,172Z" fill="#f7e8eb" stroke="#f7e8eb" fill-opacity="1" stroke-opacity="1"/><path d="M362,172L321,341L502,229Z" fill="#f5f7ea" stroke="#f5f7ea" fill-opacity="1" stroke-opacity="1"/><path d="M502,229L321,341L493,363Z" fill="#e8facb" stroke="#e8facb" fill-opacity="1" stroke-opacity="1"/><path d="M502,229L493,363L618,359Z" fill="#d8f5ae" stroke="#d8f5ae" fill-opacity="1" stroke-opacity="1"/><path d="M502,229L618,359L734,222Z" fill="#d4f1ad" stroke="#d4f1ad" fill-opacity="1" stroke-opacity="1"/><path d="M734,222L618,359L830,410Z" fill="#ace278" stroke="#ace278" fill-opacity="1" stroke-opacity="1"/><path d="M734,222L830,410L785,215Z" fill="#aadd82" stroke="#aadd82" fill-opacity="1" stroke-opacity="1"/><path d="M785,215L830,410L925,407Z" fill="#85d056" stroke="#85d056" fill-opacity="1" stroke-opacity="1"/><path d="M785,215L925,407L978,186Z" fill="#8fcf6e" stroke="#8fcf6e" fill-opacity="1" stroke-opacity="1"/><path d="M978,186L925,407L1101,414Z" fill="#65be48" stroke="#65be48" fill-opacity="1" stroke-opacity="1"/><path d="M978,186L1101,414L1179,222Z" fill="#76b765" stroke="#76b765" fill-opacity="1" stroke-opacity="1"/><path d="M1179,222L1101,414L1246,413Z" fill="#5da541" stroke="#5da541" fill-opacity="1" stroke-opacity="1"/><path d="M1179,222L1246,413L1329,172Z" fill="#76a267" stroke="#76a267" fill-opacity="1" stroke-opacity="1"/><path d="M1329,172L1246,413L1282,493Z" fill="#57953c" stroke="#57953c" fill-opacity="1" stroke-opacity="1"/><path d="M1329,172L1282,493L1261,658Z" fill="#278110" stroke="#278110" fill-opacity="1" stroke-opacity="1"/><path d="M-47,316L-103,541L106,527Z" fill="#816747" stroke="#816747" fill-opacity="1" stroke-opacity="1"/><path d="M-47,316L106,527L119,329Z" fill="#b1937b" stroke="#b1937b" fill-opacity="1" stroke-opacity="1"/><path d="M119,329L106,527L267,392Z" fill="#aab482" stroke="#aab482" fill-opacity="1" stroke-opacity="1"/><path d="M119,329L267,392L321,341Z" fill="#d3d7ad" stroke="#d3d7ad" fill-opacity="1" stroke-opacity="1"/><path d="M267,392L106,527L263,560Z" fill="#80b36d" stroke="#80b36d" fill-opacity="1" stroke-opacity="1"/><path d="M267,392L263,560L327,537Z" fill="#7fbd72" stroke="#7fbd72" fill-opacity="1" stroke-opacity="1"/><path d="M267,392L327,537L321,341Z" fill="#abd18d" stroke="#abd18d" fill-opacity="1" stroke-opacity="1"/><path d="M321,341L327,537L495,494Z" fill="#98d580" stroke="#98d580" fill-opacity="1" stroke-opacity="1"/><path d="M321,341L495,494L493,363Z" fill="#b8e89e" stroke="#b8e89e" fill-opacity="1" stroke-opacity="1"/><path d="M493,363L495,494L618,359Z" fill="#a6e27f" stroke="#a6e27f" fill-opacity="1" stroke-opacity="1"/><path d="M618,359L495,494L727,513Z" fill="#7dd250" stroke="#7dd250" fill-opacity="1" stroke-opacity="1"/><path d="M618,359L727,513L830,410Z" fill="#73cb45" stroke="#73cb45" fill-opacity="1" stroke-opacity="1"/><path d="M830,410L727,513L822,522Z" fill="#41b61e" stroke="#41b61e" fill-opacity="1" stroke-opacity="1"/><path d="M830,410L822,522L925,407Z" fill="#45b61c" stroke="#45b61c" fill-opacity="1" stroke-opacity="1"/><path d="M925,407L822,522L986,488Z" fill="#29aa03" stroke="#29aa03" fill-opacity="1" stroke-opacity="1"/><path d="M925,407L986,488L1101,414Z" fill="#29a612" stroke="#29a612" fill-opacity="1" stroke-opacity="1"/><path d="M1101,414L986,488L1141,538Z" fill="#0f9300" stroke="#0f9300" fill-opacity="1" stroke-opacity="1"/><path d="M1101,414L1141,538L1246,413Z" fill="#1e8e08" stroke="#1e8e08" fill-opacity="1" stroke-opacity="1"/><path d="M1246,413L1141,538L1282,493Z" fill="#0f8000" stroke="#0f8000" fill-opacity="1" stroke-opacity="1"/><path d="M-103,541L-65,713L61,718Z" fill="#65323f" stroke="#65323f" fill-opacity="1" stroke-opacity="1"/><path d="M-103,541L61,718L106,527Z" fill="#6a564a" stroke="#6a564a" fill-opacity="1" stroke-opacity="1"/><path d="M106,527L61,718L284,623Z" fill="#747e62" stroke="#747e62" fill-opacity="1" stroke-opacity="1"/><path d="M106,527L284,623L263,560Z" fill="#79a26e" stroke="#79a26e" fill-opacity="1" stroke-opacity="1"/><path d="M263,560L284,623L327,537Z" fill="#7aac73" stroke="#7aac73" fill-opacity="1" stroke-opacity="1"/><path d="M327,537L284,623L359,672Z" fill="#7aa975" stroke="#7aa975" fill-opacity="1" stroke-opacity="1"/><path d="M327,537L359,672L495,494Z" fill="#7bbe7a" stroke="#7bbe7a" fill-opacity="1" stroke-opacity="1"/><path d="M495,494L359,672L554,648Z" fill="#74b66f" stroke="#74b66f" fill-opacity="1" stroke-opacity="1"/><path d="M495,494L554,648L727,513Z" fill="#62bc4e" stroke="#62bc4e" fill-opacity="1" stroke-opacity="1"/><path d="M727,513L554,648L696,650Z" fill="#55ab3d" stroke="#55ab3d" fill-opacity="1" stroke-opacity="1"/><path d="M727,513L696,650L822,522Z" fill="#3ea929" stroke="#3ea929" fill-opacity="1" stroke-opacity="1"/><path d="M822,522L696,650L844,673Z" fill="#359820" stroke="#359820" fill-opacity="1" stroke-opacity="1"/><path d="M822,522L844,673L962,621Z" fill="#1e8f0b" stroke="#1e8f0b" fill-opacity="1" stroke-opacity="1"/><path d="M822,522L962,621L986,488Z" fill="#129701" stroke="#129701" fill-opacity="1" stroke-opacity="1"/><path d="M986,488L962,621L1141,538Z" fill="#008900" stroke="#008900" fill-opacity="1" stroke-opacity="1"/><path d="M1141,538L962,621L1078,672Z" fill="#007700" stroke="#007700" fill-opacity="1" stroke-opacity="1"/><path d="M1141,538L1078,672L1261,658Z" fill="#006700" stroke="#006700" fill-opacity="1" stroke-opacity="1"/><path d="M1141,538L1261,658L1282,493Z" fill="#006d00" stroke="#006d00" fill-opacity="1" stroke-opacity="1"/><path d="M61,718L1078,672L844,673Z" fill="#55973c" stroke="#55973c" fill-opacity="1" stroke-opacity="1"/><path d="M61,718L844,673L359,672Z" fill="#7ca67c" stroke="#7ca67c" fill-opacity="1" stroke-opacity="1"/><path d="M61,718L359,672L284,623Z" fill="#798c6f" stroke="#798c6f" fill-opacity="1" stroke-opacity="1"/><path d="M359,672L844,673L554,648Z" fill="#63a34f" stroke="#63a34f" fill-opacity="1" stroke-opacity="1"/><path d="M554,648L844,673L696,650Z" fill="#4b9934" stroke="#4b9934" fill-opacity="1" stroke-opacity="1"/><path d="M844,673L1078,672L962,621Z" fill="#087900" stroke="#087900" fill-opacity="1" stroke-opacity="1"/></g></svg>