<svg width="1052" height="535" xmlns="http://www.w3.org/2000/svg"><g><path d="M-116,-100L-104,662L-107,383Z" fill="#af6e67" stroke="#af6e67" fill-opacity="1" stroke-opacity="1"/><path d="M-116,-100L-107,383L-64,242Z" fill="#dc6f48" stroke="#dc6f48" fill-opacity="1" stroke-opacity="1"/><path d="M-116,-100L-64,242L-28,31Z" fill="#e63728" stroke="#e63728" fill-opacity="1" stroke-opacity="1"/><path d="M-116,-100L-28,31L123,-67Z" fill="#eb0b11" stroke="#eb0b11" fill-opacity="1" stroke-opacity="1"/><path d="M-116,-100L123,-67L239,-129Z" fill="#f12419" stroke="#f12419" fill-opacity="1" stroke-opacity="1"/><path d="M123,-67L-28,31L80,133Z" fill="#ef4431" stroke="#ef4431" fill-opacity="1" stroke-opacity="1"/><path d="M123,-67L80,133L272,132Z" fill="#f77648" stroke="#f77648" fill-opacity="1" stroke-opacity="1"/><path d="M123,-67L272,132L359,19Z" fill="#fd7749" stroke="#fd7749" fill-opacity="1" stroke-opacity="1"/><path d="M123,-67L359,19L239,-129Z" fill="#fd512e" stroke="#fd512e" fill-opacity="1" stroke-opacity="1"/><path d="M239,-129L359,19L421,-124Z" fill="#f25e3b" stroke="#f25e3b" fill-opacity="1" stroke-opacity="1"/><path d="M239,-129L421,-124L661,-120Z" fill="#e36747" stroke="#e36747" fill-opacity="1" stroke-opacity="1"/><path d="M239,-129L661,-120L878,-118Z" fill="#c56355" stroke="#c56355" fill-opacity="1" stroke-opacity="1"/><path d="M421,-124L359,19L480,-90Z" fill="#e66545" stroke="#e66545" fill-opacity="1" stroke-opacity="1"/><path d="M421,-124L480,-90L661,-120Z" fill="#d66e52" stroke="#d66e52" fill-opacity="1" stroke-opacity="1"/><path d="M480,-90L359,19L515,41Z" fill="#e17357" stroke="#e17357" fill-opacity="1" stroke-opacity="1"/><path d="M480,-90L515,41L661,-120Z" fill="#cf6a54" stroke="#cf6a54" fill-opacity="1" stroke-opacity="1"/><path d="M661,-120L515,41L631,101Z" fill="#c37869" stroke="#c37869" fill-opacity="1" stroke-opacity="1"/><path d="M661,-120L631,101L825,85Z" fill="#aa7072" stroke="#aa7072" fill-opacity="1" stroke-opacity="1"/><path d="M661,-120L825,85L878,-118Z" fill="#95425f" stroke="#95425f" fill-opacity="1" stroke-opacity="1"/><path d="M878,-118L825,85L947,-51Z" fill="#80326a" stroke="#80326a" fill-opacity="1" stroke-opacity="1"/><path d="M878,-118L947,-51L1088,-26Z" fill="#802365" stroke="#802365" fill-opacity="1" stroke-opacity="1"/><path d="M878,-118L1088,-26L1311,-34Z" fill="#800e6a" stroke="#800e6a" fill-opacity="1" stroke-opacity="1"/><path d="M947,-51L825,85L1018,122Z" fill="#805d84" stroke="#805d84" fill-opacity="1" stroke-opacity="1"/><path d="M947,-51L1018,122L1088,-26Z" fill="#80367d" stroke="#80367d" fill-opacity="1" stroke-opacity="1"/><path d="M1088,-26L1018,122L1153,105Z" fill="#804b8f" stroke="#804b8f" fill-opacity="1" stroke-opacity="1"/><path d="M1088,-26L1153,105L1255,76Z" fill="#80348e" stroke="#80348e" fill-opacity="1" stroke-opacity="1"/><path d="M1088,-26L1255,76L1311,-34Z" fill="#801582" stroke="#801582" fill-opacity="1" stroke-opacity="1"/><path d="M1311,-34L1255,76L1276,263Z" fill="#8053a2" stroke="#8053a2" fill-opacity="1" stroke-opacity="1"/><path d="M1311,-34L1276,263L1304,359Z" fill="#7473bf" stroke="#7473bf" fill-opacity="1" stroke-opacity="1"/><path d="M1311,-34L1304,359L1309,644Z" fill="#476bda" stroke="#476bda" fill-opacity="1" stroke-opacity="1"/><path d="M-28,31L-64,242L80,133Z" fill="#ea7448" stroke="#ea7448" fill-opacity="1" stroke-opacity="1"/><path d="M80,133L-64,242L133,217Z" fill="#e38e62" stroke="#e38e62" fill-opacity="1" stroke-opacity="1"/><path d="M80,133L133,217L272,132Z" fill="#f2a765" stroke="#f2a765" fill-opacity="1" stroke-opacity="1"/><path d="M272,132L133,217L248,217Z" fill="#f0bc75" stroke="#f0bc75" fill-opacity="1" stroke-opacity="1"/><path d="M272,132L248,217L413,258Z" fill="#ead085" stroke="#ead085" fill-opacity="1" stroke-opacity="1"/><path d="M272,132L413,258L359,19Z" fill="#f0c776" stroke="#f0c776" fill-opacity="1" stroke-opacity="1"/><path d="M359,19L413,258L515,41Z" fill="#e4bc77" stroke="#e4bc77" fill-opacity="1" stroke-opacity="1"/><path d="M515,41L413,258L500,239Z" fill="#d5da93" stroke="#d5da93" fill-opacity="1" stroke-opacity="1"/><path d="M515,41L500,239L631,101Z" fill="#d0ce8b" stroke="#d0ce8b" fill-opacity="1" stroke-opacity="1"/><path d="M631,101L500,239L664,239Z" fill="#b8d4a1" stroke="#b8d4a1" fill-opacity="1" stroke-opacity="1"/><path d="M631,101L664,239L825,85Z" fill="#a8b996" stroke="#a8b996" fill-opacity="1" stroke-opacity="1"/><path d="M825,85L664,239L817,225Z" fill="#91b6a5" stroke="#91b6a5" fill-opacity="1" stroke-opacity="1"/><path d="M825,85L817,225L916,267Z" fill="#7ba9ab" stroke="#7ba9ab" fill-opacity="1" stroke-opacity="1"/><path d="M825,85L916,267L1018,122Z" fill="#7b97a4" stroke="#7b97a4" fill-opacity="1" stroke-opacity="1"/><path d="M1018,122L916,267L1090,274Z" fill="#6f93ba" stroke="#6f93ba" fill-opacity="1" stroke-opacity="1"/><path d="M1018,122L1090,274L1153,105Z" fill="#797cad" stroke="#797cad" fill-opacity="1" stroke-opacity="1"/><path d="M1153,105L1090,274L1276,263Z" fill="#7076bf" stroke="#7076bf" fill-opacity="1" stroke-opacity="1"/><path d="M1153,105L1276,263L1255,76Z" fill="#7d6aae" stroke="#7d6aae" fill-opacity="1" stroke-opacity="1"/><path d="M-64,242L-107,383L120,338Z" fill="#b27373" stroke="#b27373" fill-opacity="1" stroke-opacity="1"/><path d="M-64,242L120,338L133,217Z" fill="#d79e78" stroke="#d79e78" fill-opacity="1" stroke-opacity="1"/><path d="M133,217L120,338L237,317Z" fill="#d0b288" stroke="#d0b288" fill-opacity="1" stroke-opacity="1"/><path d="M133,217L237,317L248,217Z" fill="#e4c486" stroke="#e4c486" fill-opacity="1" stroke-opacity="1"/><path d="M248,217L237,317L413,258Z" fill="#e0d996" stroke="#e0d996" fill-opacity="1" stroke-opacity="1"/><path d="M413,258L237,317L392,365Z" fill="#becda2" stroke="#becda2" fill-opacity="1" stroke-opacity="1"/><path d="M413,258L392,365L500,239Z" fill="#bedfab" stroke="#bedfab" fill-opacity="1" stroke-opacity="1"/><path d="M500,239L392,365L558,399Z" fill="#9cd2b5" stroke="#9cd2b5" fill-opacity="1" stroke-opacity="1"/><path d="M500,239L558,399L664,239Z" fill="#a2ddb9" stroke="#a2ddb9" fill-opacity="1" stroke-opacity="1"/><path d="M664,239L558,399L675,417Z" fill="#72bdc1" stroke="#72bdc1" fill-opacity="1" stroke-opacity="1"/><path d="M664,239L675,417L791,333Z" fill="#6bb8c2" stroke="#6bb8c2" fill-opacity="1" stroke-opacity="1"/><path d="M664,239L791,333L817,225Z" fill="#84c6bd" stroke="#84c6bd" fill-opacity="1" stroke-opacity="1"/><path d="M817,225L791,333L916,267Z" fill="#6bb5c2" stroke="#6bb5c2" fill-opacity="1" stroke-opacity="1"/><path d="M916,267L791,333L864,489Z" fill="#3592cc" stroke="#3592cc" fill-opacity="1" stroke-opacity="1"/><path d="M916,267L864,489L1010,335Z" fill="#2f86cf" stroke="#2f86cf" fill-opacity="1" stroke-opacity="1"/><path d="M916,267L1010,335L1090,274Z" fill="#5893cb" stroke="#5893cb" fill-opacity="1" stroke-opacity="1"/><path d="M1090,274L1010,335L1155,351Z" fill="#487bd1" stroke="#487bd1" fill-opacity="1" stroke-opacity="1"/><path d="M1090,274L1155,351L1276,263Z" fill="#5675d2" stroke="#5675d2" fill-opacity="1" stroke-opacity="1"/><path d="M1276,263L1155,351L1304,359Z" fill="#466bd8" stroke="#466bd8" fill-opacity="1" stroke-opacity="1"/><path d="M-107,383L-104,662L-16,579Z" fill="#661a81" stroke="#661a81" fill-opacity="1" stroke-opacity="1"/><path d="M-107,383L-16,579L58,575Z" fill="#6a2c85" stroke="#6a2c85" fill-opacity="1" stroke-opacity="1"/><path d="M-107,383L58,575L120,338Z" fill="#755683" stroke="#755683" fill-opacity="1" stroke-opacity="1"/><path d="M120,338L58,575L253,515Z" fill="#766898" stroke="#766898" fill-opacity="1" stroke-opacity="1"/><path d="M120,338L253,515L237,317Z" fill="#9a9897" stroke="#9a9897" fill-opacity="1" stroke-opacity="1"/><path d="M237,317L253,515L392,365Z" fill="#95a9a4" stroke="#95a9a4" fill-opacity="1" stroke-opacity="1"/><path d="M392,365L253,515L435,548Z" fill="#7092b4" stroke="#7092b4" fill-opacity="1" stroke-opacity="1"/><path d="M392,365L435,548L558,399Z" fill="#65aabd" stroke="#65aabd" fill-opacity="1" stroke-opacity="1"/><path d="M558,399L435,548L569,553Z" fill="#5798ca" stroke="#5798ca" fill-opacity="1" stroke-opacity="1"/><path d="M558,399L569,553L621,477Z" fill="#4897cb" stroke="#4897cb" fill-opacity="1" stroke-opacity="1"/><path d="M558,399L621,477L675,417Z" fill="#48a2c8" stroke="#48a2c8" fill-opacity="1" stroke-opacity="1"/><path d="M675,417L621,477L864,489Z" fill="#2786cf" stroke="#2786cf" fill-opacity="1" stroke-opacity="1"/><path d="M675,417L864,489L791,333Z" fill="#2c8dcd" stroke="#2c8dcd" fill-opacity="1" stroke-opacity="1"/><path d="M1010,335L864,489L983,575Z" fill="#005cda" stroke="#005cda" fill-opacity="1" stroke-opacity="1"/><path d="M1010,335L983,575L1155,351Z" fill="#0f5cd9" stroke="#0f5cd9" fill-opacity="1" stroke-opacity="1"/><path d="M1155,351L983,575L1176,567Z" fill="#0036e3" stroke="#0036e3" fill-opacity="1" stroke-opacity="1"/><path d="M1155,351L1176,567L1255,539Z" fill="#002fe5" stroke="#002fe5" fill-opacity="1" stroke-opacity="1"/><path d="M1155,351L1255,539L1304,359Z" fill="#1149e1" stroke="#1149e1" fill-opacity="1" stroke-opacity="1"/><path d="M1304,359L1255,539L1309,644Z" fill="#0025ec" stroke="#0025ec" fill-opacity="1" stroke-opacity="1"/><path d="M-16,579L-104,662L35,664Z" fill="#6a058a" stroke="#6a058a" fill-opacity="1" stroke-opacity="1"/><path d="M-16,579L35,664L58,575Z" fill="#6e1691" stroke="#6e1691" fill-opacity="1" stroke-opacity="1"/><path d="M58,575L35,664L226,703Z" fill="#732b9c" stroke="#732b9c" fill-opacity="1" stroke-opacity="1"/><path d="M58,575L226,703L253,515Z" fill="#7945a5" stroke="#7945a5" fill-opacity="1" stroke-opacity="1"/><path d="M253,515L226,703L392,638Z" fill="#7a5ab4" stroke="#7a5ab4" fill-opacity="1" stroke-opacity="1"/><path d="M253,515L392,638L435,548Z" fill="#7070bc" stroke="#7070bc" fill-opacity="1" stroke-opacity="1"/><path d="M435,548L392,638L523,685Z" fill="#6268c8" stroke="#6268c8" fill-opacity="1" stroke-opacity="1"/><path d="M435,548L523,685L569,553Z" fill="#5873d0" stroke="#5873d0" fill-opacity="1" stroke-opacity="1"/><path d="M569,553L523,685L640,713Z" fill="#4966d4" stroke="#4966d4" fill-opacity="1" stroke-opacity="1"/><path d="M569,553L640,713L797,687Z" fill="#3356d8" stroke="#3356d8" fill-opacity="1" stroke-opacity="1"/><path d="M569,553L797,687L621,477Z" fill="#3566d7" stroke="#3566d7" fill-opacity="1" stroke-opacity="1"/><path d="M621,477L797,687L864,489Z" fill="#1d5dda" stroke="#1d5dda" fill-opacity="1" stroke-opacity="1"/><path d="M864,489L797,687L973,644Z" fill="#0035e0" stroke="#0035e0" fill-opacity="1" stroke-opacity="1"/><path d="M864,489L973,644L983,575Z" fill="#0038e3" stroke="#0038e3" fill-opacity="1" stroke-opacity="1"/><path d="M983,575L973,644L1127,664Z" fill="#0019e7" stroke="#0019e7" fill-opacity="1" stroke-opacity="1"/><path d="M983,575L1127,664L1176,567Z" fill="#0011ea" stroke="#0011ea" fill-opacity="1" stroke-opacity="1"/><path d="M1176,567L1127,664L1309,644Z" fill="#0000ee" stroke="#0000ee" fill-opacity="1" stroke-opacity="1"/><path d="M1176,567L1309,644L1255,539Z" fill="#000bf0" stroke="#000bf0" fill-opacity="1" stroke-opacity="1"/><path d="M-104,662L226,703L35,664Z" fill="#701c95" stroke="#701c95" fill-opacity="1" stroke-opacity="1"/><path d="M226,703L640,713L523,685Z" fill="#6069ca" stroke="#6069ca" fill-opacity="1" stroke-opacity="1"/><path d="M226,703L523,685L392,638Z" fill="#6c62bf" stroke="#6c62bf" fill-opacity="1" stroke-opacity="1"/><path d="M640,713L1127,664L797,687Z" fill="#0637df" stroke="#0637df" fill-opacity="1" stroke-opacity="1"/><path d="M797,687L1127,664L973,644Z" fill="#0024e4" stroke="#0024e4" fill-opacity="1" stroke-opacity="1"/></g></svg>