<svg width="1052" height="535" xmlns="http://www.w3.org/2000/svg"><g><path d="M-32,-33L-127,184L-42,54Z" fill="#ae216e" stroke="#ae216e" fill-opacity="1" stroke-opacity="1"/><path d="M-32,-33L-42,54L81,-65Z" fill="#931354" stroke="#931354" fill-opacity="1" stroke-opacity="1"/><path d="M-32,-33L81,-65L197,-103Z" fill="#881c4b" stroke="#881c4b" fill-opacity="1" stroke-opacity="1"/><path d="M81,-65L-42,54L129,112Z" fill="#bf1976" stroke="#bf1976" fill-opacity="1" stroke-opacity="1"/><path d="M81,-65L129,112L200,113Z" fill="#dc2d91" stroke="#dc2d91" fill-opacity="1" stroke-opacity="1"/><path d="M81,-65L200,113L197,-103Z" fill="#b23774" stroke="#b23774" fill-opacity="1" stroke-opacity="1"/><path d="M197,-103L200,113L419,-43Z" fill="#c26090" stroke="#c26090" fill-opacity="1" stroke-opacity="1"/><path d="M197,-103L419,-43L567,-61Z" fill="#a77c85" stroke="#a77c85" fill-opacity="1" stroke-opacity="1"/><path d="M197,-103L567,-61L827,-92Z" fill="#928c6f" stroke="#928c6f" fill-opacity="1" stroke-opacity="1"/><path d="M197,-103L827,-92L1154,-116Z" fill="#577224" stroke="#577224" fill-opacity="1" stroke-opacity="1"/><path d="M419,-43L200,113L409,101Z" fill="#f076bc" stroke="#f076bc" fill-opacity="1" stroke-opacity="1"/><path d="M419,-43L409,101L514,56Z" fill="#e884b7" stroke="#e884b7" fill-opacity="1" stroke-opacity="1"/><path d="M419,-43L514,56L567,-61Z" fill="#c18a96" stroke="#c18a96" fill-opacity="1" stroke-opacity="1"/><path d="M567,-61L514,56L638,-17Z" fill="#b98885" stroke="#b98885" fill-opacity="1" stroke-opacity="1"/><path d="M567,-61L638,-17L827,-92Z" fill="#817a4a" stroke="#817a4a" fill-opacity="1" stroke-opacity="1"/><path d="M638,-17L514,56L645,66Z" fill="#cd8590" stroke="#cd8590" fill-opacity="1" stroke-opacity="1"/><path d="M638,-17L645,66L876,46Z" fill="#ac7366" stroke="#ac7366" fill-opacity="1" stroke-opacity="1"/><path d="M638,-17L876,46L827,-92Z" fill="#7d6741" stroke="#7d6741" fill-opacity="1" stroke-opacity="1"/><path d="M827,-92L876,46L1033,-35Z" fill="#5e4b32" stroke="#5e4b32" fill-opacity="1" stroke-opacity="1"/><path d="M827,-92L1033,-35L1154,-116Z" fill="#2c3715" stroke="#2c3715" fill-opacity="1" stroke-opacity="1"/><path d="M1033,-35L876,46L1011,107Z" fill="#7c3e4f" stroke="#7c3e4f" fill-opacity="1" stroke-opacity="1"/><path d="M1033,-35L1011,107L1084,67Z" fill="#732f50" stroke="#732f50" fill-opacity="1" stroke-opacity="1"/><path d="M1033,-35L1084,67L1154,-116Z" fill="#43242b" stroke="#43242b" fill-opacity="1" stroke-opacity="1"/><path d="M1154,-116L1084,67L1246,35Z" fill="#521534" stroke="#521534" fill-opacity="1" stroke-opacity="1"/><path d="M1154,-116L1246,35L1251,-84Z" fill="#331219" stroke="#331219" fill-opacity="1" stroke-opacity="1"/><path d="M1251,-84L1246,35L1324,210Z" fill="#76124b" stroke="#76124b" fill-opacity="1" stroke-opacity="1"/><path d="M-42,54L-127,184L129,112Z" fill="#c34e93" stroke="#c34e93" fill-opacity="1" stroke-opacity="1"/><path d="M129,112L-127,184L134,275Z" fill="#d37db2" stroke="#d37db2" fill-opacity="1" stroke-opacity="1"/><path d="M129,112L134,275L200,113Z" fill="#e892ca" stroke="#e892ca" fill-opacity="1" stroke-opacity="1"/><path d="M200,113L134,275L236,261Z" fill="#ecb2d2" stroke="#ecb2d2" fill-opacity="1" stroke-opacity="1"/><path d="M200,113L236,261L319,254Z" fill="#f2c6df" stroke="#f2c6df" fill-opacity="1" stroke-opacity="1"/><path d="M200,113L319,254L409,101Z" fill="#f8c3e9" stroke="#f8c3e9" fill-opacity="1" stroke-opacity="1"/><path d="M409,101L319,254L576,195Z" fill="#fde6f5" stroke="#fde6f5" fill-opacity="1" stroke-opacity="1"/><path d="M409,101L576,195L514,56Z" fill="#f6c6d8" stroke="#f6c6d8" fill-opacity="1" stroke-opacity="1"/><path d="M514,56L576,195L645,66Z" fill="#e7bbbd" stroke="#e7bbbd" fill-opacity="1" stroke-opacity="1"/><path d="M645,66L576,195L707,262Z" fill="#d9e0bf" stroke="#d9e0bf" fill-opacity="1" stroke-opacity="1"/><path d="M645,66L707,262L876,46Z" fill="#beb08f" stroke="#beb08f" fill-opacity="1" stroke-opacity="1"/><path d="M876,46L707,262L853,247Z" fill="#adc495" stroke="#adc495" fill-opacity="1" stroke-opacity="1"/><path d="M876,46L853,247L923,210Z" fill="#9faf8f" stroke="#9faf8f" fill-opacity="1" stroke-opacity="1"/><path d="M876,46L923,210L1011,107Z" fill="#95857b" stroke="#95857b" fill-opacity="1" stroke-opacity="1"/><path d="M1011,107L923,210L1180,262Z" fill="#839689" stroke="#839689" fill-opacity="1" stroke-opacity="1"/><path d="M1011,107L1180,262L1084,67Z" fill="#807580" stroke="#807580" fill-opacity="1" stroke-opacity="1"/><path d="M1084,67L1180,262L1246,35Z" fill="#805272" stroke="#805272" fill-opacity="1" stroke-opacity="1"/><path d="M1246,35L1180,262L1324,210Z" fill="#807081" stroke="#807081" fill-opacity="1" stroke-opacity="1"/><path d="M-127,184L-134,471L-23,410Z" fill="#87764b" stroke="#87764b" fill-opacity="1" stroke-opacity="1"/><path d="M-127,184L-23,410L134,275Z" fill="#be8092" stroke="#be8092" fill-opacity="1" stroke-opacity="1"/><path d="M134,275L-23,410L129,422Z" fill="#ab7c65" stroke="#ab7c65" fill-opacity="1" stroke-opacity="1"/><path d="M134,275L129,422L235,361Z" fill="#c39f84" stroke="#c39f84" fill-opacity="1" stroke-opacity="1"/><path d="M134,275L235,361L236,261Z" fill="#e3b7b7" stroke="#e3b7b7" fill-opacity="1" stroke-opacity="1"/><path d="M236,261L235,361L319,254Z" fill="#eccbca" stroke="#eccbca" fill-opacity="1" stroke-opacity="1"/><path d="M319,254L235,361L383,418Z" fill="#d7d3ab" stroke="#d7d3ab" fill-opacity="1" stroke-opacity="1"/><path d="M319,254L383,418L470,427Z" fill="#cedda2" stroke="#cedda2" fill-opacity="1" stroke-opacity="1"/><path d="M319,254L470,427L576,195Z" fill="#f3f3db" stroke="#f3f3db" fill-opacity="1" stroke-opacity="1"/><path d="M576,195L470,427L687,319Z" fill="#d8f5ac" stroke="#d8f5ac" fill-opacity="1" stroke-opacity="1"/><path d="M576,195L687,319L707,262Z" fill="#d5ecb7" stroke="#d5ecb7" fill-opacity="1" stroke-opacity="1"/><path d="M707,262L687,319L852,353Z" fill="#aedb77" stroke="#aedb77" fill-opacity="1" stroke-opacity="1"/><path d="M707,262L852,353L853,247Z" fill="#a9d082" stroke="#a9d082" fill-opacity="1" stroke-opacity="1"/><path d="M853,247L852,353L923,210Z" fill="#9fc189" stroke="#9fc189" fill-opacity="1" stroke-opacity="1"/><path d="M923,210L852,353L978,432Z" fill="#80b555" stroke="#80b555" fill-opacity="1" stroke-opacity="1"/><path d="M923,210L978,432L1180,262Z" fill="#79a06a" stroke="#79a06a" fill-opacity="1" stroke-opacity="1"/><path d="M1180,262L978,432L1159,413Z" fill="#4f8132" stroke="#4f8132" fill-opacity="1" stroke-opacity="1"/><path d="M1180,262L1159,413L1316,329Z" fill="#657c48" stroke="#657c48" fill-opacity="1" stroke-opacity="1"/><path d="M1180,262L1316,329L1324,210Z" fill="#80807c" stroke="#80807c" fill-opacity="1" stroke-opacity="1"/><path d="M-23,410L-134,471L-73,671Z" fill="#3b292a" stroke="#3b292a" fill-opacity="1" stroke-opacity="1"/><path d="M-23,410L-73,671L128,572Z" fill="#4a1a3a" stroke="#4a1a3a" fill-opacity="1" stroke-opacity="1"/><path d="M-23,410L128,572L129,422Z" fill="#794d4b" stroke="#794d4b" fill-opacity="1" stroke-opacity="1"/><path d="M129,422L128,572L197,541Z" fill="#724e5a" stroke="#724e5a" fill-opacity="1" stroke-opacity="1"/><path d="M129,422L197,541L235,361Z" fill="#958265" stroke="#958265" fill-opacity="1" stroke-opacity="1"/><path d="M235,361L197,541L365,491Z" fill="#939175" stroke="#939175" fill-opacity="1" stroke-opacity="1"/><path d="M235,361L365,491L383,418Z" fill="#aab783" stroke="#aab783" fill-opacity="1" stroke-opacity="1"/><path d="M383,418L365,491L470,427Z" fill="#a4bb89" stroke="#a4bb89" fill-opacity="1" stroke-opacity="1"/><path d="M470,427L365,491L581,569Z" fill="#8aa981" stroke="#8aa981" fill-opacity="1" stroke-opacity="1"/><path d="M470,427L581,569L619,526Z" fill="#79a66e" stroke="#79a66e" fill-opacity="1" stroke-opacity="1"/><path d="M470,427L619,526L687,319Z" fill="#95cd66" stroke="#95cd66" fill-opacity="1" stroke-opacity="1"/><path d="M687,319L619,526L800,498Z" fill="#6fb13f" stroke="#6fb13f" fill-opacity="1" stroke-opacity="1"/><path d="M687,319L800,498L852,353Z" fill="#78bf3b" stroke="#78bf3b" fill-opacity="1" stroke-opacity="1"/><path d="M852,353L800,498L928,496Z" fill="#489123" stroke="#489123" fill-opacity="1" stroke-opacity="1"/><path d="M852,353L928,496L978,432Z" fill="#479022" stroke="#479022" fill-opacity="1" stroke-opacity="1"/><path d="M978,432L928,496L1098,489Z" fill="#25661d" stroke="#25661d" fill-opacity="1" stroke-opacity="1"/><path d="M978,432L1098,489L1159,413Z" fill="#27641b" stroke="#27641b" fill-opacity="1" stroke-opacity="1"/><path d="M1159,413L1098,489L1219,513Z" fill="#1b4417" stroke="#1b4417" fill-opacity="1" stroke-opacity="1"/><path d="M1159,413L1219,513L1316,329Z" fill="#345c19" stroke="#345c19" fill-opacity="1" stroke-opacity="1"/><path d="M1316,329L1219,513L1246,658Z" fill="#0f3212" stroke="#0f3212" fill-opacity="1" stroke-opacity="1"/><path d="M128,572L-73,671L89,697Z" fill="#54073f" stroke="#54073f" fill-opacity="1" stroke-opacity="1"/><path d="M128,572L89,697L176,637Z" fill="#661950" stroke="#661950" fill-opacity="1" stroke-opacity="1"/><path d="M128,572L176,637L197,541Z" fill="#6a305b" stroke="#6a305b" fill-opacity="1" stroke-opacity="1"/><path d="M197,541L176,637L347,694Z" fill="#724569" stroke="#724569" fill-opacity="1" stroke-opacity="1"/><path d="M197,541L347,694L365,491Z" fill="#786379" stroke="#786379" fill-opacity="1" stroke-opacity="1"/><path d="M365,491L347,694L475,725Z" fill="#7d6b81" stroke="#7d6b81" fill-opacity="1" stroke-opacity="1"/><path d="M365,491L475,725L581,569Z" fill="#79777d" stroke="#79777d" fill-opacity="1" stroke-opacity="1"/><path d="M581,569L475,725L667,703Z" fill="#697662" stroke="#697662" fill-opacity="1" stroke-opacity="1"/><path d="M581,569L667,703L619,526Z" fill="#5e7253" stroke="#5e7253" fill-opacity="1" stroke-opacity="1"/><path d="M619,526L667,703L800,498Z" fill="#4b703c" stroke="#4b703c" fill-opacity="1" stroke-opacity="1"/><path d="M800,498L667,703L837,705Z" fill="#385827" stroke="#385827" fill-opacity="1" stroke-opacity="1"/><path d="M800,498L837,705L932,641Z" fill="#24461d" stroke="#24461d" fill-opacity="1" stroke-opacity="1"/><path d="M800,498L932,641L928,496Z" fill="#1f5a1e" stroke="#1f5a1e" fill-opacity="1" stroke-opacity="1"/><path d="M928,496L932,641L1098,489Z" fill="#0d461a" stroke="#0d461a" fill-opacity="1" stroke-opacity="1"/><path d="M1098,489L932,641L1096,672Z" fill="#031d16" stroke="#031d16" fill-opacity="1" stroke-opacity="1"/><path d="M1098,489L1096,672L1219,513Z" fill="#001d14" stroke="#001d14" fill-opacity="1" stroke-opacity="1"/><path d="M1219,513L1096,672L1246,658Z" fill="#000010" stroke="#000010" fill-opacity="1" stroke-opacity="1"/><path d="M89,697L475,725L347,694Z" fill="#785874" stroke="#785874" fill-opacity="1" stroke-opacity="1"/><path d="M89,697L347,694L176,637Z" fill="#6e3960" stroke="#6e3960" fill-opacity="1" stroke-opacity="1"/><path d="M475,725L837,705L667,703Z" fill="#556c43" stroke="#556c43" fill-opacity="1" stroke-opacity="1"/><path d="M837,705L1246,658L1096,672Z" fill="#001a12" stroke="#001a12" fill-opacity="1" stroke-opacity="1"/><path d="M837,705L1096,672L932,641Z" fill="#123017" stroke="#123017" fill-opacity="1" stroke-opacity="1"/></g></svg>