<svg width="1052" height="535" xmlns="http://www.w3.org/2000/svg"><g><path d="M-117,-102L-107,197L-101,109Z" fill="#7d1c29" stroke="#7d1c29" fill-opacity="1" stroke-opacity="1"/><path d="M-117,-102L-101,109L56,32Z" fill="#690521" stroke="#690521" fill-opacity="1" stroke-opacity="1"/><path d="M-117,-102L56,32L90,-100Z" fill="#46011b" stroke="#46011b" fill-opacity="1" stroke-opacity="1"/><path d="M-117,-102L90,-100L771,-124Z" fill="#713d35" stroke="#713d35" fill-opacity="1" stroke-opacity="1"/><path d="M90,-100L56,32L221,-42Z" fill="#7b1226" stroke="#7b1226" fill-opacity="1" stroke-opacity="1"/><path d="M90,-100L221,-42L471,-104Z" fill="#72413b" stroke="#72413b" fill-opacity="1" stroke-opacity="1"/><path d="M90,-100L471,-104L771,-124Z" fill="#7c6e6b" stroke="#7c6e6b" fill-opacity="1" stroke-opacity="1"/><path d="M221,-42L56,32L259,20Z" fill="#a62635" stroke="#a62635" fill-opacity="1" stroke-opacity="1"/><path d="M221,-42L259,20L344,-34Z" fill="#a24547" stroke="#a24547" fill-opacity="1" stroke-opacity="1"/><path d="M221,-42L344,-34L471,-104Z" fill="#875a56" stroke="#875a56" fill-opacity="1" stroke-opacity="1"/><path d="M344,-34L259,20L337,109Z" fill="#d25d57" stroke="#d25d57" fill-opacity="1" stroke-opacity="1"/><path d="M344,-34L337,109L550,58Z" fill="#e17a79" stroke="#e17a79" fill-opacity="1" stroke-opacity="1"/><path d="M344,-34L550,58L471,-104Z" fill="#a26f77" stroke="#a26f77" fill-opacity="1" stroke-opacity="1"/><path d="M471,-104L550,58L729,-112Z" fill="#776671" stroke="#776671" fill-opacity="1" stroke-opacity="1"/><path d="M471,-104L729,-112L771,-124Z" fill="#57575a" stroke="#57575a" fill-opacity="1" stroke-opacity="1"/><path d="M729,-112L550,58L714,66Z" fill="#965768" stroke="#965768" fill-opacity="1" stroke-opacity="1"/><path d="M729,-112L714,66L771,-124Z" fill="#52434e" stroke="#52434e" fill-opacity="1" stroke-opacity="1"/><path d="M771,-124L714,66L852,60Z" fill="#76384b" stroke="#76384b" fill-opacity="1" stroke-opacity="1"/><path d="M771,-124L852,60L933,51Z" fill="#5e2436" stroke="#5e2436" fill-opacity="1" stroke-opacity="1"/><path d="M771,-124L933,51L1016,-102Z" fill="#241722" stroke="#241722" fill-opacity="1" stroke-opacity="1"/><path d="M771,-124L1016,-102L1261,-100Z" fill="#000005" stroke="#000005" fill-opacity="1" stroke-opacity="1"/><path d="M1016,-102L933,51L1173,111Z" fill="#4e0715" stroke="#4e0715" fill-opacity="1" stroke-opacity="1"/><path d="M1016,-102L1173,111L1170,-77Z" fill="#2b0010" stroke="#2b0010" fill-opacity="1" stroke-opacity="1"/><path d="M1016,-102L1170,-77L1261,-100Z" fill="#000007" stroke="#000007" fill-opacity="1" stroke-opacity="1"/><path d="M1170,-77L1173,111L1240,40Z" fill="#520816" stroke="#520816" fill-opacity="1" stroke-opacity="1"/><path d="M1170,-77L1240,40L1261,-100Z" fill="#18000d" stroke="#18000d" fill-opacity="1" stroke-opacity="1"/><path d="M1261,-100L1240,40L1266,270Z" fill="#711e20" stroke="#711e20" fill-opacity="1" stroke-opacity="1"/><path d="M1261,-100L1266,270L1284,529Z" fill="#80807a" stroke="#80807a" fill-opacity="1" stroke-opacity="1"/><path d="M-101,109L-107,197L70,167Z" fill="#a36159" stroke="#a36159" fill-opacity="1" stroke-opacity="1"/><path d="M-101,109L70,167L56,32Z" fill="#b5373d" stroke="#b5373d" fill-opacity="1" stroke-opacity="1"/><path d="M56,32L70,167L259,20Z" fill="#cf343a" stroke="#cf343a" fill-opacity="1" stroke-opacity="1"/><path d="M259,20L70,167L237,244Z" fill="#e77e67" stroke="#e77e67" fill-opacity="1" stroke-opacity="1"/><path d="M259,20L237,244L337,109Z" fill="#f48d70" stroke="#f48d70" fill-opacity="1" stroke-opacity="1"/><path d="M337,109L237,244L433,199Z" fill="#fbc7a7" stroke="#fbc7a7" fill-opacity="1" stroke-opacity="1"/><path d="M337,109L433,199L550,58Z" fill="#fcb39d" stroke="#fcb39d" fill-opacity="1" stroke-opacity="1"/><path d="M550,58L433,199L512,213Z" fill="#f4cfb8" stroke="#f4cfb8" fill-opacity="1" stroke-opacity="1"/><path d="M550,58L512,213L633,257Z" fill="#e9d4c3" stroke="#e9d4c3" fill-opacity="1" stroke-opacity="1"/><path d="M550,58L633,257L714,66Z" fill="#dca597" stroke="#dca597" fill-opacity="1" stroke-opacity="1"/><path d="M714,66L633,257L845,274Z" fill="#c5bdb0" stroke="#c5bdb0" fill-opacity="1" stroke-opacity="1"/><path d="M714,66L845,274L852,60Z" fill="#b17f6f" stroke="#b17f6f" fill-opacity="1" stroke-opacity="1"/><path d="M852,60L845,274L922,253Z" fill="#9f9588" stroke="#9f9588" fill-opacity="1" stroke-opacity="1"/><path d="M852,60L922,253L933,51Z" fill="#985c4f" stroke="#985c4f" fill-opacity="1" stroke-opacity="1"/><path d="M933,51L922,253L1141,210Z" fill="#806957" stroke="#806957" fill-opacity="1" stroke-opacity="1"/><path d="M933,51L1141,210L1173,111Z" fill="#804638" stroke="#804638" fill-opacity="1" stroke-opacity="1"/><path d="M1173,111L1141,210L1266,270Z" fill="#80776a" stroke="#80776a" fill-opacity="1" stroke-opacity="1"/><path d="M1173,111L1266,270L1240,40Z" fill="#805342" stroke="#805342" fill-opacity="1" stroke-opacity="1"/><path d="M-107,197L-64,654L-35,485Z" fill="#402531" stroke="#402531" fill-opacity="1" stroke-opacity="1"/><path d="M-107,197L-35,485L-29,349Z" fill="#81626e" stroke="#81626e" fill-opacity="1" stroke-opacity="1"/><path d="M-107,197L-29,349L70,167Z" fill="#ab8089" stroke="#ab8089" fill-opacity="1" stroke-opacity="1"/><path d="M70,167L-29,349L133,388Z" fill="#bd7c88" stroke="#bd7c88" fill-opacity="1" stroke-opacity="1"/><path d="M70,167L133,388L237,244Z" fill="#e09a9c" stroke="#e09a9c" fill-opacity="1" stroke-opacity="1"/><path d="M237,244L133,388L260,418Z" fill="#ca8f85" stroke="#ca8f85" fill-opacity="1" stroke-opacity="1"/><path d="M237,244L260,418L434,396Z" fill="#d6ae9d" stroke="#d6ae9d" fill-opacity="1" stroke-opacity="1"/><path d="M237,244L434,396L433,199Z" fill="#f8dcce" stroke="#f8dcce" fill-opacity="1" stroke-opacity="1"/><path d="M433,199L434,396L512,213Z" fill="#f8eee7" stroke="#f8eee7" fill-opacity="1" stroke-opacity="1"/><path d="M512,213L434,396L552,347Z" fill="#e3dfdd" stroke="#e3dfdd" fill-opacity="1" stroke-opacity="1"/><path d="M512,213L552,347L633,257Z" fill="#e7e7e7" stroke="#e7e7e7" fill-opacity="1" stroke-opacity="1"/><path d="M633,257L552,347L666,342Z" fill="#d0d0d0" stroke="#d0d0d0" fill-opacity="1" stroke-opacity="1"/><path d="M633,257L666,342L845,274Z" fill="#c2c2c2" stroke="#c2c2c2" fill-opacity="1" stroke-opacity="1"/><path d="M845,274L666,342L772,387Z" fill="#a4a4a4" stroke="#a4a4a4" fill-opacity="1" stroke-opacity="1"/><path d="M845,274L772,387L873,494Z" fill="#737373" stroke="#737373" fill-opacity="1" stroke-opacity="1"/><path d="M845,274L873,494L1017,434Z" fill="#555555" stroke="#555555" fill-opacity="1" stroke-opacity="1"/><path d="M845,274L1017,434L922,253Z" fill="#818181" stroke="#818181" fill-opacity="1" stroke-opacity="1"/><path d="M922,253L1017,434L1117,317Z" fill="#676767" stroke="#676767" fill-opacity="1" stroke-opacity="1"/><path d="M922,253L1117,317L1141,210Z" fill="#80807e" stroke="#80807e" fill-opacity="1" stroke-opacity="1"/><path d="M1141,210L1117,317L1266,270Z" fill="#80807f" stroke="#80807f" fill-opacity="1" stroke-opacity="1"/><path d="M1266,270L1117,317L1265,335Z" fill="#737373" stroke="#737373" fill-opacity="1" stroke-opacity="1"/><path d="M1266,270L1265,335L1284,529Z" fill="#4e4e4e" stroke="#4e4e4e" fill-opacity="1" stroke-opacity="1"/><path d="M-29,349L-35,485L133,388Z" fill="#773e4d" stroke="#773e4d" fill-opacity="1" stroke-opacity="1"/><path d="M133,388L-35,485L76,537Z" fill="#601e2b" stroke="#601e2b" fill-opacity="1" stroke-opacity="1"/><path d="M133,388L76,537L231,485Z" fill="#783234" stroke="#783234" fill-opacity="1" stroke-opacity="1"/><path d="M133,388L231,485L260,418Z" fill="#985c53" stroke="#985c53" fill-opacity="1" stroke-opacity="1"/><path d="M260,418L231,485L368,567Z" fill="#835647" stroke="#835647" fill-opacity="1" stroke-opacity="1"/><path d="M260,418L368,567L434,396Z" fill="#997a6b" stroke="#997a6b" fill-opacity="1" stroke-opacity="1"/><path d="M434,396L368,567L526,538Z" fill="#83766e" stroke="#83766e" fill-opacity="1" stroke-opacity="1"/><path d="M434,396L526,538L552,347Z" fill="#a29e9c" stroke="#a29e9c" fill-opacity="1" stroke-opacity="1"/><path d="M552,347L526,538L677,520Z" fill="#7e7e7e" stroke="#7e7e7e" fill-opacity="1" stroke-opacity="1"/><path d="M552,347L677,520L666,342Z" fill="#9b9b9b" stroke="#9b9b9b" fill-opacity="1" stroke-opacity="1"/><path d="M666,342L677,520L772,387Z" fill="#818181" stroke="#818181" fill-opacity="1" stroke-opacity="1"/><path d="M772,387L677,520L873,494Z" fill="#525252" stroke="#525252" fill-opacity="1" stroke-opacity="1"/><path d="M1017,434L873,494L961,559Z" fill="#161616" stroke="#161616" fill-opacity="1" stroke-opacity="1"/><path d="M1017,434L961,559L1134,469Z" fill="#0f0f0f" stroke="#0f0f0f" fill-opacity="1" stroke-opacity="1"/><path d="M1017,434L1134,469L1117,317Z" fill="#3c3c3c" stroke="#3c3c3c" fill-opacity="1" stroke-opacity="1"/><path d="M1117,317L1134,469L1265,335Z" fill="#515151" stroke="#515151" fill-opacity="1" stroke-opacity="1"/><path d="M1265,335L1134,469L1284,529Z" fill="#262626" stroke="#262626" fill-opacity="1" stroke-opacity="1"/><path d="M-35,485L-64,654L35,626Z" fill="#2c000f" stroke="#2c000f" fill-opacity="1" stroke-opacity="1"/><path d="M-35,485L35,626L76,537Z" fill="#3d0311" stroke="#3d0311" fill-opacity="1" stroke-opacity="1"/><path d="M76,537L35,626L169,699Z" fill="#550b15" stroke="#550b15" fill-opacity="1" stroke-opacity="1"/><path d="M76,537L169,699L231,485Z" fill="#621f1e" stroke="#621f1e" fill-opacity="1" stroke-opacity="1"/><path d="M231,485L169,699L368,567Z" fill="#723f32" stroke="#723f32" fill-opacity="1" stroke-opacity="1"/><path d="M368,567L169,699L378,656Z" fill="#794f3f" stroke="#794f3f" fill-opacity="1" stroke-opacity="1"/><path d="M368,567L378,656L545,630Z" fill="#7d6e65" stroke="#7d6e65" fill-opacity="1" stroke-opacity="1"/><path d="M368,567L545,630L526,538Z" fill="#776f6b" stroke="#776f6b" fill-opacity="1" stroke-opacity="1"/><path d="M526,538L545,630L677,520Z" fill="#666666" stroke="#666666" fill-opacity="1" stroke-opacity="1"/><path d="M677,520L545,630L693,645Z" fill="#5c5c5c" stroke="#5c5c5c" fill-opacity="1" stroke-opacity="1"/><path d="M677,520L693,645L796,620Z" fill="#474747" stroke="#474747" fill-opacity="1" stroke-opacity="1"/><path d="M677,520L796,620L873,494Z" fill="#373737" stroke="#373737" fill-opacity="1" stroke-opacity="1"/><path d="M873,494L796,620L961,559Z" fill="#1e1e1e" stroke="#1e1e1e" fill-opacity="1" stroke-opacity="1"/><path d="M961,559L796,620L969,673Z" fill="#161616" stroke="#161616" fill-opacity="1" stroke-opacity="1"/><path d="M961,559L969,673L1156,647Z" fill="#000000" stroke="#000000" fill-opacity="1" stroke-opacity="1"/><path d="M961,559L1156,647L1134,469Z" fill="#000000" stroke="#000000" fill-opacity="1" stroke-opacity="1"/><path d="M1134,469L1156,647L1284,529Z" fill="#000000" stroke="#000000" fill-opacity="1" stroke-opacity="1"/><path d="M1284,529L1156,647L1256,719Z" fill="#000000" stroke="#000000" fill-opacity="1" stroke-opacity="1"/><path d="M-64,654L169,699L35,626Z" fill="#440612" stroke="#440612" fill-opacity="1" stroke-opacity="1"/><path d="M169,699L1256,719L969,673Z" fill="#333333" stroke="#333333" fill-opacity="1" stroke-opacity="1"/><path d="M169,699L969,673L693,645Z" fill="#616161" stroke="#616161" fill-opacity="1" stroke-opacity="1"/><path d="M169,699L693,645L378,656Z" fill="#7e6c61" stroke="#7e6c61" fill-opacity="1" stroke-opacity="1"/><path d="M378,656L693,645L545,630Z" fill="#6e6e6e" stroke="#6e6e6e" fill-opacity="1" stroke-opacity="1"/><path d="M693,645L969,673L796,620Z" fill="#2d2d2d" stroke="#2d2d2d" fill-opacity="1" stroke-opacity="1"/><path d="M969,673L1256,719L1156,647Z" fill="#000000" stroke="#000000" fill-opacity="1" stroke-opacity="1"/></g></svg>