<svg width="1052" height="535" xmlns="http://www.w3.org/2000/svg"><g><path d="M-132,-114L-123,544L-129,72Z" fill="#dbf5ff" stroke="#dbf5ff" fill-opacity="1" stroke-opacity="1"/><path d="M-132,-114L-129,72L34,-129Z" fill="#f6f9fe" stroke="#f6f9fe" fill-opacity="1" stroke-opacity="1"/><path d="M34,-129L-129,72L22,98Z" fill="#eef6fc" stroke="#eef6fc" fill-opacity="1" stroke-opacity="1"/><path d="M34,-129L22,98L169,86Z" fill="#e4f1f9" stroke="#e4f1f9" fill-opacity="1" stroke-opacity="1"/><path d="M34,-129L169,86L215,-100Z" fill="#e2eff7" stroke="#e2eff7" fill-opacity="1" stroke-opacity="1"/><path d="M34,-129L215,-100L649,-116Z" fill="#d3e7f2" stroke="#d3e7f2" fill-opacity="1" stroke-opacity="1"/><path d="M215,-100L169,86L353,109Z" fill="#d2e9f4" stroke="#d2e9f4" fill-opacity="1" stroke-opacity="1"/><path d="M215,-100L353,109L403,-42Z" fill="#d1e6f1" stroke="#d1e6f1" fill-opacity="1" stroke-opacity="1"/><path d="M215,-100L403,-42L649,-116Z" fill="#c4dded" stroke="#c4dded" fill-opacity="1" stroke-opacity="1"/><path d="M403,-42L353,109L477,20Z" fill="#c0deed" stroke="#c0deed" fill-opacity="1" stroke-opacity="1"/><path d="M403,-42L477,20L559,-46Z" fill="#bbd8ea" stroke="#bbd8ea" fill-opacity="1" stroke-opacity="1"/><path d="M403,-42L559,-46L649,-116Z" fill="#b2d2e7" stroke="#b2d2e7" fill-opacity="1" stroke-opacity="1"/><path d="M559,-46L477,20L717,32Z" fill="#aacde4" stroke="#aacde4" fill-opacity="1" stroke-opacity="1"/><path d="M559,-46L717,32L649,-116Z" fill="#a2c7e1" stroke="#a2c7e1" fill-opacity="1" stroke-opacity="1"/><path d="M649,-116L717,32L872,-28Z" fill="#91bcdc" stroke="#91bcdc" fill-opacity="1" stroke-opacity="1"/><path d="M649,-116L872,-28L1008,-87Z" fill="#82b2d7" stroke="#82b2d7" fill-opacity="1" stroke-opacity="1"/><path d="M872,-28L717,32L813,31Z" fill="#87b6d9" stroke="#87b6d9" fill-opacity="1" stroke-opacity="1"/><path d="M872,-28L813,31L949,104Z" fill="#79add5" stroke="#79add5" fill-opacity="1" stroke-opacity="1"/><path d="M872,-28L949,104L1008,-87Z" fill="#80a8d2" stroke="#80a8d2" fill-opacity="1" stroke-opacity="1"/><path d="M1008,-87L949,104L1102,89Z" fill="#799fce" stroke="#799fce" fill-opacity="1" stroke-opacity="1"/><path d="M1008,-87L1102,89L1092,-70Z" fill="#809bcb" stroke="#809bcb" fill-opacity="1" stroke-opacity="1"/><path d="M1008,-87L1092,-70L1281,-38Z" fill="#8095c8" stroke="#8095c8" fill-opacity="1" stroke-opacity="1"/><path d="M1092,-70L1102,89L1241,78Z" fill="#7a92c7" stroke="#7a92c7" fill-opacity="1" stroke-opacity="1"/><path d="M1092,-70L1241,78L1281,-38Z" fill="#808dc4" stroke="#808dc4" fill-opacity="1" stroke-opacity="1"/><path d="M1281,-38L1241,78L1295,250Z" fill="#6e82c1" stroke="#6e82c1" fill-opacity="1" stroke-opacity="1"/><path d="M1281,-38L1295,250L1333,641Z" fill="#3862b6" stroke="#3862b6" fill-opacity="1" stroke-opacity="1"/><path d="M-129,72L-123,544L-116,193Z" fill="#b7def8" stroke="#b7def8" fill-opacity="1" stroke-opacity="1"/><path d="M-129,72L-116,193L22,98Z" fill="#dff4fe" stroke="#dff4fe" fill-opacity="1" stroke-opacity="1"/><path d="M22,98L-116,193L101,219Z" fill="#cfeffb" stroke="#cfeffb" fill-opacity="1" stroke-opacity="1"/><path d="M22,98L101,219L169,86Z" fill="#cdebf8" stroke="#cdebf8" fill-opacity="1" stroke-opacity="1"/><path d="M169,86L101,219L172,256Z" fill="#bde5f6" stroke="#bde5f6" fill-opacity="1" stroke-opacity="1"/><path d="M169,86L172,256L353,109Z" fill="#bee4f4" stroke="#bee4f4" fill-opacity="1" stroke-opacity="1"/><path d="M353,109L172,256L393,221Z" fill="#abdcf0" stroke="#abdcf0" fill-opacity="1" stroke-opacity="1"/><path d="M353,109L393,221L477,20Z" fill="#b0daed" stroke="#b0daed" fill-opacity="1" stroke-opacity="1"/><path d="M477,20L393,221L507,268Z" fill="#9ed3eb" stroke="#9ed3eb" fill-opacity="1" stroke-opacity="1"/><path d="M477,20L507,268L690,223Z" fill="#8fc9e6" stroke="#8fc9e6" fill-opacity="1" stroke-opacity="1"/><path d="M477,20L690,223L717,32Z" fill="#93c5e2" stroke="#93c5e2" fill-opacity="1" stroke-opacity="1"/><path d="M717,32L690,223L789,236Z" fill="#75b7dd" stroke="#75b7dd" fill-opacity="1" stroke-opacity="1"/><path d="M717,32L789,236L813,31Z" fill="#7bb5db" stroke="#7bb5db" fill-opacity="1" stroke-opacity="1"/><path d="M813,31L789,236L949,104Z" fill="#6aacd7" stroke="#6aacd7" fill-opacity="1" stroke-opacity="1"/><path d="M949,104L789,236L1028,228Z" fill="#5aa1d2" stroke="#5aa1d2" fill-opacity="1" stroke-opacity="1"/><path d="M949,104L1028,228L1102,89Z" fill="#659ace" stroke="#659ace" fill-opacity="1" stroke-opacity="1"/><path d="M1102,89L1028,228L1121,284Z" fill="#568dc9" stroke="#568dc9" fill-opacity="1" stroke-opacity="1"/><path d="M1102,89L1121,284L1241,78Z" fill="#648cc7" stroke="#648cc7" fill-opacity="1" stroke-opacity="1"/><path d="M1241,78L1121,284L1295,250Z" fill="#557fc2" stroke="#557fc2" fill-opacity="1" stroke-opacity="1"/><path d="M-116,193L-123,544L-64,333Z" fill="#95c8ef" stroke="#95c8ef" fill-opacity="1" stroke-opacity="1"/><path d="M-116,193L-64,333L101,219Z" fill="#b6def6" stroke="#b6def6" fill-opacity="1" stroke-opacity="1"/><path d="M101,219L-64,333L21,383Z" fill="#9bcdf0" stroke="#9bcdf0" fill-opacity="1" stroke-opacity="1"/><path d="M101,219L21,383L172,256Z" fill="#9dd0ef" stroke="#9dd0ef" fill-opacity="1" stroke-opacity="1"/><path d="M172,256L21,383L220,471Z" fill="#7bbae7" stroke="#7bbae7" fill-opacity="1" stroke-opacity="1"/><path d="M172,256L220,471L268,328Z" fill="#7abae6" stroke="#7abae6" fill-opacity="1" stroke-opacity="1"/><path d="M172,256L268,328L393,221Z" fill="#93cceb" stroke="#93cceb" fill-opacity="1" stroke-opacity="1"/><path d="M393,221L268,328L354,378Z" fill="#7fbfe6" stroke="#7fbfe6" fill-opacity="1" stroke-opacity="1"/><path d="M393,221L354,378L507,268Z" fill="#7abce3" stroke="#7abce3" fill-opacity="1" stroke-opacity="1"/><path d="M507,268L354,378L493,433Z" fill="#5ca8dc" stroke="#5ca8dc" fill-opacity="1" stroke-opacity="1"/><path d="M507,268L493,433L657,377Z" fill="#4c9ed7" stroke="#4c9ed7" fill-opacity="1" stroke-opacity="1"/><path d="M507,268L657,377L690,223Z" fill="#5ba7d9" stroke="#5ba7d9" fill-opacity="1" stroke-opacity="1"/><path d="M690,223L657,377L789,236Z" fill="#51a1d5" stroke="#51a1d5" fill-opacity="1" stroke-opacity="1"/><path d="M789,236L657,377L843,397Z" fill="#348dce" stroke="#348dce" fill-opacity="1" stroke-opacity="1"/><path d="M789,236L843,397L974,387Z" fill="#2382c8" stroke="#2382c8" fill-opacity="1" stroke-opacity="1"/><path d="M789,236L974,387L1028,228Z" fill="#3889c9" stroke="#3889c9" fill-opacity="1" stroke-opacity="1"/><path d="M1028,228L974,387L1121,284Z" fill="#3279c3" stroke="#3279c3" fill-opacity="1" stroke-opacity="1"/><path d="M1121,284L974,387L1146,397Z" fill="#1d68bc" stroke="#1d68bc" fill-opacity="1" stroke-opacity="1"/><path d="M1121,284L1146,397L1237,370Z" fill="#2060b8" stroke="#2060b8" fill-opacity="1" stroke-opacity="1"/><path d="M1121,284L1237,370L1295,250Z" fill="#3167b9" stroke="#3167b9" fill-opacity="1" stroke-opacity="1"/><path d="M1295,250L1237,370L1282,567Z" fill="#0f4bae" stroke="#0f4bae" fill-opacity="1" stroke-opacity="1"/><path d="M1295,250L1282,567L1333,641Z" fill="#0032a5" stroke="#0032a5" fill-opacity="1" stroke-opacity="1"/><path d="M-64,333L-123,544L21,383Z" fill="#7ab6e8" stroke="#7ab6e8" fill-opacity="1" stroke-opacity="1"/><path d="M21,383L-123,544L100,526Z" fill="#6fa4e2" stroke="#6fa4e2" fill-opacity="1" stroke-opacity="1"/><path d="M21,383L100,526L220,471Z" fill="#65a5e0" stroke="#65a5e0" fill-opacity="1" stroke-opacity="1"/><path d="M268,328L220,471L354,378Z" fill="#66aee0" stroke="#66aee0" fill-opacity="1" stroke-opacity="1"/><path d="M354,378L220,471L365,558Z" fill="#539ad9" stroke="#539ad9" fill-opacity="1" stroke-opacity="1"/><path d="M354,378L365,558L493,433Z" fill="#4795d6" stroke="#4795d6" fill-opacity="1" stroke-opacity="1"/><path d="M493,433L365,558L544,493Z" fill="#3d85d0" stroke="#3d85d0" fill-opacity="1" stroke-opacity="1"/><path d="M493,433L544,493L657,377Z" fill="#2e8ad0" stroke="#2e8ad0" fill-opacity="1" stroke-opacity="1"/><path d="M657,377L544,493L714,531Z" fill="#237bc9" stroke="#237bc9" fill-opacity="1" stroke-opacity="1"/><path d="M657,377L714,531L843,397Z" fill="#1478c7" stroke="#1478c7" fill-opacity="1" stroke-opacity="1"/><path d="M843,397L714,531L850,552Z" fill="#0963bf" stroke="#0963bf" fill-opacity="1" stroke-opacity="1"/><path d="M843,397L850,552L1009,493Z" fill="#005cbb" stroke="#005cbb" fill-opacity="1" stroke-opacity="1"/><path d="M843,397L1009,493L974,387Z" fill="#0466bd" stroke="#0466bd" fill-opacity="1" stroke-opacity="1"/><path d="M974,387L1009,493L1146,397Z" fill="#045bb8" stroke="#045bb8" fill-opacity="1" stroke-opacity="1"/><path d="M1146,397L1009,493L1112,567Z" fill="#0048b0" stroke="#0048b0" fill-opacity="1" stroke-opacity="1"/><path d="M1146,397L1112,567L1282,567Z" fill="#0039aa" stroke="#0039aa" fill-opacity="1" stroke-opacity="1"/><path d="M1146,397L1282,567L1237,370Z" fill="#0044ad" stroke="#0044ad" fill-opacity="1" stroke-opacity="1"/><path d="M-123,544L-94,722L100,526Z" fill="#738bd9" stroke="#738bd9" fill-opacity="1" stroke-opacity="1"/><path d="M100,526L-94,722L132,718Z" fill="#6b79d2" stroke="#6b79d2" fill-opacity="1" stroke-opacity="1"/><path d="M100,526L132,718L249,685Z" fill="#6177cf" stroke="#6177cf" fill-opacity="1" stroke-opacity="1"/><path d="M100,526L249,685L220,471Z" fill="#5e89d5" stroke="#5e89d5" fill-opacity="1" stroke-opacity="1"/><path d="M220,471L249,685L328,619Z" fill="#577ed0" stroke="#577ed0" fill-opacity="1" stroke-opacity="1"/><path d="M220,471L328,619L365,558Z" fill="#5386d3" stroke="#5386d3" fill-opacity="1" stroke-opacity="1"/><path d="M365,558L328,619L514,718Z" fill="#476bc8" stroke="#476bc8" fill-opacity="1" stroke-opacity="1"/><path d="M365,558L514,718L544,493Z" fill="#3c6ec7" stroke="#3c6ec7" fill-opacity="1" stroke-opacity="1"/><path d="M544,493L514,718L695,676Z" fill="#2b59be" stroke="#2b59be" fill-opacity="1" stroke-opacity="1"/><path d="M544,493L695,676L714,531Z" fill="#2161c0" stroke="#2161c0" fill-opacity="1" stroke-opacity="1"/><path d="M714,531L695,676L824,621Z" fill="#124db8" stroke="#124db8" fill-opacity="1" stroke-opacity="1"/><path d="M714,531L824,621L850,552Z" fill="#0a52b8" stroke="#0a52b8" fill-opacity="1" stroke-opacity="1"/><path d="M850,552L824,621L1009,708Z" fill="#003aaf" stroke="#003aaf" fill-opacity="1" stroke-opacity="1"/><path d="M850,552L1009,708L1009,493Z" fill="#003eaf" stroke="#003eaf" fill-opacity="1" stroke-opacity="1"/><path d="M1009,493L1009,708L1112,567Z" fill="#0034aa" stroke="#0034aa" fill-opacity="1" stroke-opacity="1"/><path d="M1112,567L1009,708L1123,639Z" fill="#0024a4" stroke="#0024a4" fill-opacity="1" stroke-opacity="1"/><path d="M1112,567L1123,639L1282,567Z" fill="#0026a4" stroke="#0026a4" fill-opacity="1" stroke-opacity="1"/><path d="M1282,567L1123,639L1333,641Z" fill="#00189d" stroke="#00189d" fill-opacity="1" stroke-opacity="1"/><path d="M-94,722L514,718L132,718Z" fill="#5e6dc8" stroke="#5e6dc8" fill-opacity="1" stroke-opacity="1"/><path d="M132,718L514,718L249,685Z" fill="#5468c5" stroke="#5468c5" fill-opacity="1" stroke-opacity="1"/><path d="M249,685L514,718L328,619Z" fill="#4d65c6" stroke="#4d65c6" fill-opacity="1" stroke-opacity="1"/><path d="M514,718L1009,708L695,676Z" fill="#133db0" stroke="#133db0" fill-opacity="1" stroke-opacity="1"/><path d="M695,676L1009,708L824,621Z" fill="#0335ae" stroke="#0335ae" fill-opacity="1" stroke-opacity="1"/><path d="M1009,708L1333,641L1123,639Z" fill="#00169e" stroke="#00169e" fill-opacity="1" stroke-opacity="1"/></g></svg>