<svg width="1052" height="535" xmlns="http://www.w3.org/2000/svg"><g><path d="M-134,-113L-135,261L-67,119Z" fill="#e5ffdb" stroke="#e5ffdb" fill-opacity="1" stroke-opacity="1"/><path d="M-134,-113L-67,119L33,-103Z" fill="#ffffe7" stroke="#ffffe7" fill-opacity="1" stroke-opacity="1"/><path d="M-134,-113L33,-103L276,-113Z" fill="#f2fae2" stroke="#f2fae2" fill-opacity="1" stroke-opacity="1"/><path d="M-134,-113L276,-113L990,-128Z" fill="#aadee0" stroke="#aadee0" fill-opacity="1" stroke-opacity="1"/><path d="M33,-103L-67,119L109,32Z" fill="#f5fddc" stroke="#f5fddc" fill-opacity="1" stroke-opacity="1"/><path d="M33,-103L109,32L276,-113Z" fill="#e0f3de" stroke="#e0f3de" fill-opacity="1" stroke-opacity="1"/><path d="M276,-113L109,32L182,94Z" fill="#d4efd4" stroke="#d4efd4" fill-opacity="1" stroke-opacity="1"/><path d="M276,-113L182,94L349,84Z" fill="#bce8d3" stroke="#bce8d3" fill-opacity="1" stroke-opacity="1"/><path d="M276,-113L349,84L329,-108Z" fill="#b8e4de" stroke="#b8e4de" fill-opacity="1" stroke-opacity="1"/><path d="M276,-113L329,-108L783,-106Z" fill="#9ed5e1" stroke="#9ed5e1" fill-opacity="1" stroke-opacity="1"/><path d="M276,-113L783,-106L990,-128Z" fill="#95b6d7" stroke="#95b6d7" fill-opacity="1" stroke-opacity="1"/><path d="M329,-108L349,84L466,-91Z" fill="#a9dedf" stroke="#a9dedf" fill-opacity="1" stroke-opacity="1"/><path d="M329,-108L466,-91L783,-106Z" fill="#9bcddf" stroke="#9bcddf" fill-opacity="1" stroke-opacity="1"/><path d="M466,-91L349,84L540,117Z" fill="#94d7d6" stroke="#94d7d6" fill-opacity="1" stroke-opacity="1"/><path d="M466,-91L540,117L695,-58Z" fill="#99c8d9" stroke="#99c8d9" fill-opacity="1" stroke-opacity="1"/><path d="M466,-91L695,-58L783,-106Z" fill="#95bcda" stroke="#95bcda" fill-opacity="1" stroke-opacity="1"/><path d="M695,-58L540,117L703,80Z" fill="#88bdce" stroke="#88bdce" fill-opacity="1" stroke-opacity="1"/><path d="M695,-58L703,80L767,61Z" fill="#8cafcb" stroke="#8cafcb" fill-opacity="1" stroke-opacity="1"/><path d="M695,-58L767,61L783,-106Z" fill="#94aad0" stroke="#94aad0" fill-opacity="1" stroke-opacity="1"/><path d="M783,-106L767,61L990,-128Z" fill="#9299c9" stroke="#9299c9" fill-opacity="1" stroke-opacity="1"/><path d="M990,-128L767,61L987,111Z" fill="#8d8dbb" stroke="#8d8dbb" fill-opacity="1" stroke-opacity="1"/><path d="M990,-128L987,111L1072,21Z" fill="#8f80b5" stroke="#8f80b5" fill-opacity="1" stroke-opacity="1"/><path d="M990,-128L1072,21L1141,-103Z" fill="#8e80b6" stroke="#8e80b6" fill-opacity="1" stroke-opacity="1"/><path d="M1141,-103L1072,21L1222,-29Z" fill="#8d80af" stroke="#8d80af" fill-opacity="1" stroke-opacity="1"/><path d="M1222,-29L1072,21L1278,84Z" fill="#8580a2" stroke="#8580a2" fill-opacity="1" stroke-opacity="1"/><path d="M-67,119L-135,261L42,192Z" fill="#b3f0dc" stroke="#b3f0dc" fill-opacity="1" stroke-opacity="1"/><path d="M-67,119L42,192L109,32Z" fill="#d5fbd1" stroke="#d5fbd1" fill-opacity="1" stroke-opacity="1"/><path d="M109,32L42,192L182,94Z" fill="#c7f5cb" stroke="#c7f5cb" fill-opacity="1" stroke-opacity="1"/><path d="M182,94L42,192L210,278Z" fill="#94e4d0" stroke="#94e4d0" fill-opacity="1" stroke-opacity="1"/><path d="M182,94L210,278L333,175Z" fill="#81ddcd" stroke="#81ddcd" fill-opacity="1" stroke-opacity="1"/><path d="M182,94L333,175L349,84Z" fill="#9ae4ca" stroke="#9ae4ca" fill-opacity="1" stroke-opacity="1"/><path d="M349,84L333,175L540,117Z" fill="#7ad8cf" stroke="#7ad8cf" fill-opacity="1" stroke-opacity="1"/><path d="M540,117L333,175L514,228Z" fill="#5bc9d3" stroke="#5bc9d3" fill-opacity="1" stroke-opacity="1"/><path d="M540,117L514,228L684,256Z" fill="#47b6d2" stroke="#47b6d2" fill-opacity="1" stroke-opacity="1"/><path d="M540,117L684,256L703,80Z" fill="#5fb5cb" stroke="#5fb5cb" fill-opacity="1" stroke-opacity="1"/><path d="M703,80L684,256L873,205Z" fill="#4d9cc4" stroke="#4d9cc4" fill-opacity="1" stroke-opacity="1"/><path d="M703,80L873,205L767,61Z" fill="#6fa3bb" stroke="#6fa3bb" fill-opacity="1" stroke-opacity="1"/><path d="M767,61L873,205L987,111Z" fill="#6890b4" stroke="#6890b4" fill-opacity="1" stroke-opacity="1"/><path d="M987,111L873,205L1009,197Z" fill="#4e7ab1" stroke="#4e7ab1" fill-opacity="1" stroke-opacity="1"/><path d="M987,111L1009,197L1116,219Z" fill="#4a74ab" stroke="#4a74ab" fill-opacity="1" stroke-opacity="1"/><path d="M987,111L1116,219L1072,21Z" fill="#6a7ea4" stroke="#6a7ea4" fill-opacity="1" stroke-opacity="1"/><path d="M1072,21L1116,219L1278,84Z" fill="#6d809b" stroke="#6d809b" fill-opacity="1" stroke-opacity="1"/><path d="M1278,84L1116,219L1310,266Z" fill="#40719c" stroke="#40719c" fill-opacity="1" stroke-opacity="1"/><path d="M-135,261L-78,712L-91,497Z" fill="#9385b8" stroke="#9385b8" fill-opacity="1" stroke-opacity="1"/><path d="M-135,261L-91,497L-47,321Z" fill="#98bbd1" stroke="#98bbd1" fill-opacity="1" stroke-opacity="1"/><path d="M-135,261L-47,321L42,192Z" fill="#a1dfdb" stroke="#a1dfdb" fill-opacity="1" stroke-opacity="1"/><path d="M42,192L-47,321L81,376Z" fill="#97d1d4" stroke="#97d1d4" fill-opacity="1" stroke-opacity="1"/><path d="M42,192L81,376L210,278Z" fill="#85cdd0" stroke="#85cdd0" fill-opacity="1" stroke-opacity="1"/><path d="M210,278L81,376L245,384Z" fill="#71b1c5" stroke="#71b1c5" fill-opacity="1" stroke-opacity="1"/><path d="M210,278L245,384L318,355Z" fill="#5fadc6" stroke="#5fadc6" fill-opacity="1" stroke-opacity="1"/><path d="M210,278L318,355L333,175Z" fill="#5fc2ce" stroke="#5fc2ce" fill-opacity="1" stroke-opacity="1"/><path d="M333,175L318,355L466,338Z" fill="#49b5d0" stroke="#49b5d0" fill-opacity="1" stroke-opacity="1"/><path d="M333,175L466,338L514,228Z" fill="#42bcd4" stroke="#42bcd4" fill-opacity="1" stroke-opacity="1"/><path d="M514,228L466,338L684,256Z" fill="#3aa4cf" stroke="#3aa4cf" fill-opacity="1" stroke-opacity="1"/><path d="M684,256L466,338L711,371Z" fill="#318cca" stroke="#318cca" fill-opacity="1" stroke-opacity="1"/><path d="M684,256L711,371L769,386Z" fill="#2e74bf" stroke="#2e74bf" fill-opacity="1" stroke-opacity="1"/><path d="M684,256L769,386L873,205Z" fill="#327ec0" stroke="#327ec0" fill-opacity="1" stroke-opacity="1"/><path d="M873,205L769,386L944,430Z" fill="#2c5ab2" stroke="#2c5ab2" fill-opacity="1" stroke-opacity="1"/><path d="M873,205L944,430L1009,197Z" fill="#3061b2" stroke="#3061b2" fill-opacity="1" stroke-opacity="1"/><path d="M1009,197L944,430L1166,373Z" fill="#2947a4" stroke="#2947a4" fill-opacity="1" stroke-opacity="1"/><path d="M1009,197L1166,373L1116,219Z" fill="#305ea6" stroke="#305ea6" fill-opacity="1" stroke-opacity="1"/><path d="M1116,219L1166,373L1310,266Z" fill="#2b579c" stroke="#2b579c" fill-opacity="1" stroke-opacity="1"/><path d="M1310,266L1166,373L1332,397Z" fill="#25428e" stroke="#25428e" fill-opacity="1" stroke-opacity="1"/><path d="M-47,321L-91,497L81,376Z" fill="#97abc5" stroke="#97abc5" fill-opacity="1" stroke-opacity="1"/><path d="M81,376L-91,497L117,510Z" fill="#8d8eb6" stroke="#8d8eb6" fill-opacity="1" stroke-opacity="1"/><path d="M81,376L117,510L245,384Z" fill="#7594b7" stroke="#7594b7" fill-opacity="1" stroke-opacity="1"/><path d="M245,384L117,510L266,570Z" fill="#6573a6" stroke="#6573a6" fill-opacity="1" stroke-opacity="1"/><path d="M245,384L266,570L355,518Z" fill="#526ca9" stroke="#526ca9" fill-opacity="1" stroke-opacity="1"/><path d="M245,384L355,518L318,355Z" fill="#5188b8" stroke="#5188b8" fill-opacity="1" stroke-opacity="1"/><path d="M318,355L355,518L466,338Z" fill="#4188be" stroke="#4188be" fill-opacity="1" stroke-opacity="1"/><path d="M466,338L355,518L553,582Z" fill="#3360af" stroke="#3360af" fill-opacity="1" stroke-opacity="1"/><path d="M466,338L553,582L717,479Z" fill="#2d56ae" stroke="#2d56ae" fill-opacity="1" stroke-opacity="1"/><path d="M466,338L717,479L711,371Z" fill="#2d6cbb" stroke="#2d6cbb" fill-opacity="1" stroke-opacity="1"/><path d="M711,371L717,479L769,386Z" fill="#2b53af" stroke="#2b53af" fill-opacity="1" stroke-opacity="1"/><path d="M769,386L717,479L794,579Z" fill="#28329f" stroke="#28329f" fill-opacity="1" stroke-opacity="1"/><path d="M769,386L794,579L944,430Z" fill="#272b9b" stroke="#272b9b" fill-opacity="1" stroke-opacity="1"/><path d="M944,430L794,579L1019,531Z" fill="#240c8b" stroke="#240c8b" fill-opacity="1" stroke-opacity="1"/><path d="M944,430L1019,531L1166,373Z" fill="#25188e" stroke="#25188e" fill-opacity="1" stroke-opacity="1"/><path d="M1166,373L1019,531L1137,574Z" fill="#22047f" stroke="#22047f" fill-opacity="1" stroke-opacity="1"/><path d="M1166,373L1137,574L1274,489Z" fill="#210a7a" stroke="#210a7a" fill-opacity="1" stroke-opacity="1"/><path d="M1166,373L1274,489L1332,397Z" fill="#222380" stroke="#222380" fill-opacity="1" stroke-opacity="1"/><path d="M1332,397L1274,489L1302,671Z" fill="#1e0068" stroke="#1e0068" fill-opacity="1" stroke-opacity="1"/><path d="M-91,497L-78,712L103,654Z" fill="#8f8099" stroke="#8f8099" fill-opacity="1" stroke-opacity="1"/><path d="M-91,497L103,654L117,510Z" fill="#887ca2" stroke="#887ca2" fill-opacity="1" stroke-opacity="1"/><path d="M117,510L103,654L266,570Z" fill="#6c7297" stroke="#6c7297" fill-opacity="1" stroke-opacity="1"/><path d="M266,570L103,654L195,683Z" fill="#646f8a" stroke="#646f8a" fill-opacity="1" stroke-opacity="1"/><path d="M266,570L195,683L421,718Z" fill="#4b6687" stroke="#4b6687" fill-opacity="1" stroke-opacity="1"/><path d="M266,570L421,718L355,518Z" fill="#416294" stroke="#416294" fill-opacity="1" stroke-opacity="1"/><path d="M355,518L421,718L482,661Z" fill="#305b91" stroke="#305b91" fill-opacity="1" stroke-opacity="1"/><path d="M355,518L482,661L553,582Z" fill="#2f5699" stroke="#2f5699" fill-opacity="1" stroke-opacity="1"/><path d="M553,582L482,661L640,621Z" fill="#29498f" stroke="#29498f" fill-opacity="1" stroke-opacity="1"/><path d="M553,582L640,621L717,479Z" fill="#273f99" stroke="#273f99" fill-opacity="1" stroke-opacity="1"/><path d="M717,479L640,621L794,579Z" fill="#263092" stroke="#263092" fill-opacity="1" stroke-opacity="1"/><path d="M794,579L640,621L767,708Z" fill="#232d81" stroke="#232d81" fill-opacity="1" stroke-opacity="1"/><path d="M794,579L767,708L979,643Z" fill="#211976" stroke="#211976" fill-opacity="1" stroke-opacity="1"/><path d="M794,579L979,643L1019,531Z" fill="#210a7b" stroke="#210a7b" fill-opacity="1" stroke-opacity="1"/><path d="M1019,531L979,643L1137,574Z" fill="#1f0072" stroke="#1f0072" fill-opacity="1" stroke-opacity="1"/><path d="M1137,574L979,643L1097,732Z" fill="#1c0062" stroke="#1c0062" fill-opacity="1" stroke-opacity="1"/><path d="M1137,574L1097,732L1302,671Z" fill="#1b0057" stroke="#1b0057" fill-opacity="1" stroke-opacity="1"/><path d="M1137,574L1302,671L1274,489Z" fill="#1d0062" stroke="#1d0062" fill-opacity="1" stroke-opacity="1"/><path d="M-78,712L1097,732L421,718Z" fill="#29547e" stroke="#29547e" fill-opacity="1" stroke-opacity="1"/><path d="M-78,712L421,718L195,683Z" fill="#63707d" stroke="#63707d" fill-opacity="1" stroke-opacity="1"/><path d="M-78,712L195,683L103,654Z" fill="#7c7987" stroke="#7c7987" fill-opacity="1" stroke-opacity="1"/><path d="M421,718L1097,732L767,708Z" fill="#1f286f" stroke="#1f286f" fill-opacity="1" stroke-opacity="1"/><path d="M421,718L767,708L482,661Z" fill="#264980" stroke="#264980" fill-opacity="1" stroke-opacity="1"/><path d="M482,661L767,708L640,621Z" fill="#234085" stroke="#234085" fill-opacity="1" stroke-opacity="1"/><path d="M767,708L1097,732L979,643Z" fill="#1d0764" stroke="#1d0764" fill-opacity="1" stroke-opacity="1"/></g></svg>