<svg width="1052" height="535" xmlns="http://www.w3.org/2000/svg"><g><path d="M-54,-27L-109,104L26,84Z" fill="#bd792d" stroke="#bd792d" fill-opacity="1" stroke-opacity="1"/><path d="M-54,-27L26,84L105,-35Z" fill="#bb7227" stroke="#bb7227" fill-opacity="1" stroke-opacity="1"/><path d="M-54,-27L105,-35L167,-91Z" fill="#b3621b" stroke="#b3621b" fill-opacity="1" stroke-opacity="1"/><path d="M105,-35L26,84L176,32Z" fill="#c7893e" stroke="#c7893e" fill-opacity="1" stroke-opacity="1"/><path d="M105,-35L176,32L167,-91Z" fill="#c0782d" stroke="#c0782d" fill-opacity="1" stroke-opacity="1"/><path d="M167,-91L176,32L335,41Z" fill="#cd9147" stroke="#cd9147" fill-opacity="1" stroke-opacity="1"/><path d="M167,-91L335,41L425,-28Z" fill="#c5904b" stroke="#c5904b" fill-opacity="1" stroke-opacity="1"/><path d="M167,-91L425,-28L654,-121Z" fill="#a67b52" stroke="#a67b52" fill-opacity="1" stroke-opacity="1"/><path d="M425,-28L335,41L473,111Z" fill="#c1b075" stroke="#c1b075" fill-opacity="1" stroke-opacity="1"/><path d="M425,-28L473,111L525,-17Z" fill="#b1a975" stroke="#b1a975" fill-opacity="1" stroke-opacity="1"/><path d="M425,-28L525,-17L654,-121Z" fill="#95875f" stroke="#95875f" fill-opacity="1" stroke-opacity="1"/><path d="M525,-17L473,111L701,115Z" fill="#a9b98a" stroke="#a9b98a" fill-opacity="1" stroke-opacity="1"/><path d="M525,-17L701,115L654,-121Z" fill="#898f5f" stroke="#898f5f" fill-opacity="1" stroke-opacity="1"/><path d="M654,-121L701,115L876,-81Z" fill="#697645" stroke="#697645" fill-opacity="1" stroke-opacity="1"/><path d="M654,-121L876,-81L1157,-127Z" fill="#4c3e29" stroke="#4c3e29" fill-opacity="1" stroke-opacity="1"/><path d="M876,-81L701,115L879,96Z" fill="#6c8b58" stroke="#6c8b58" fill-opacity="1" stroke-opacity="1"/><path d="M876,-81L879,96L943,-45Z" fill="#616935" stroke="#616935" fill-opacity="1" stroke-opacity="1"/><path d="M876,-81L943,-45L1157,-127Z" fill="#513c1a" stroke="#513c1a" fill-opacity="1" stroke-opacity="1"/><path d="M943,-45L879,96L955,91Z" fill="#6d7e49" stroke="#6d7e49" fill-opacity="1" stroke-opacity="1"/><path d="M943,-45L955,91L1141,90Z" fill="#6d713c" stroke="#6d713c" fill-opacity="1" stroke-opacity="1"/><path d="M943,-45L1141,90L1157,-127Z" fill="#5d4812" stroke="#5d4812" fill-opacity="1" stroke-opacity="1"/><path d="M1157,-127L1141,90L1232,40Z" fill="#634812" stroke="#634812" fill-opacity="1" stroke-opacity="1"/><path d="M1157,-127L1232,40L1238,-113Z" fill="#552600" stroke="#552600" fill-opacity="1" stroke-opacity="1"/><path d="M1238,-113L1232,40L1325,191Z" fill="#6c4c23" stroke="#6c4c23" fill-opacity="1" stroke-opacity="1"/><path d="M-109,104L-63,478L-60,376Z" fill="#808c61" stroke="#808c61" fill-opacity="1" stroke-opacity="1"/><path d="M-109,104L-60,376L-15,278Z" fill="#9e9f70" stroke="#9e9f70" fill-opacity="1" stroke-opacity="1"/><path d="M-109,104L-15,278L26,84Z" fill="#c79f58" stroke="#c79f58" fill-opacity="1" stroke-opacity="1"/><path d="M26,84L-15,278L133,250Z" fill="#bdb176" stroke="#bdb176" fill-opacity="1" stroke-opacity="1"/><path d="M26,84L133,250L199,177Z" fill="#d2bc79" stroke="#d2bc79" fill-opacity="1" stroke-opacity="1"/><path d="M26,84L199,177L176,32Z" fill="#daad61" stroke="#daad61" fill-opacity="1" stroke-opacity="1"/><path d="M176,32L199,177L335,41Z" fill="#e2ba6f" stroke="#e2ba6f" fill-opacity="1" stroke-opacity="1"/><path d="M335,41L199,177L429,258Z" fill="#dbd798" stroke="#dbd798" fill-opacity="1" stroke-opacity="1"/><path d="M335,41L429,258L473,111Z" fill="#d3d89e" stroke="#d3d89e" fill-opacity="1" stroke-opacity="1"/><path d="M473,111L429,258L557,264Z" fill="#a9ddbe" stroke="#a9ddbe" fill-opacity="1" stroke-opacity="1"/><path d="M473,111L557,264L701,115Z" fill="#a8d5ac" stroke="#a8d5ac" fill-opacity="1" stroke-opacity="1"/><path d="M701,115L557,264L684,277Z" fill="#82ceb2" stroke="#82ceb2" fill-opacity="1" stroke-opacity="1"/><path d="M701,115L684,277L880,180Z" fill="#72be99" stroke="#72be99" fill-opacity="1" stroke-opacity="1"/><path d="M701,115L880,180L879,96Z" fill="#7fb17d" stroke="#7fb17d" fill-opacity="1" stroke-opacity="1"/><path d="M879,96L880,180L955,91Z" fill="#7da16d" stroke="#7da16d" fill-opacity="1" stroke-opacity="1"/><path d="M955,91L880,180L918,209Z" fill="#76a678" stroke="#76a678" fill-opacity="1" stroke-opacity="1"/><path d="M955,91L918,209L1098,232Z" fill="#6f9d72" stroke="#6f9d72" fill-opacity="1" stroke-opacity="1"/><path d="M955,91L1098,232L1141,90Z" fill="#7e915a" stroke="#7e915a" fill-opacity="1" stroke-opacity="1"/><path d="M1141,90L1098,232L1325,191Z" fill="#718256" stroke="#718256" fill-opacity="1" stroke-opacity="1"/><path d="M1141,90L1325,191L1232,40Z" fill="#7a6e3f" stroke="#7a6e3f" fill-opacity="1" stroke-opacity="1"/><path d="M-15,278L-60,376L83,376Z" fill="#7f9366" stroke="#7f9366" fill-opacity="1" stroke-opacity="1"/><path d="M-15,278L83,376L133,250Z" fill="#98ad81" stroke="#98ad81" fill-opacity="1" stroke-opacity="1"/><path d="M133,250L83,376L268,428Z" fill="#8cae81" stroke="#8cae81" fill-opacity="1" stroke-opacity="1"/><path d="M133,250L268,428L331,373Z" fill="#96bd91" stroke="#96bd91" fill-opacity="1" stroke-opacity="1"/><path d="M133,250L331,373L199,177Z" fill="#b8d4a9" stroke="#b8d4a9" fill-opacity="1" stroke-opacity="1"/><path d="M199,177L331,373L429,258Z" fill="#b1dcb9" stroke="#b1dcb9" fill-opacity="1" stroke-opacity="1"/><path d="M429,258L331,373L554,372Z" fill="#7fcab1" stroke="#7fcab1" fill-opacity="1" stroke-opacity="1"/><path d="M429,258L554,372L557,264Z" fill="#81d7c7" stroke="#81d7c7" fill-opacity="1" stroke-opacity="1"/><path d="M557,264L554,372L647,318Z" fill="#68c9b9" stroke="#68c9b9" fill-opacity="1" stroke-opacity="1"/><path d="M557,264L647,318L684,277Z" fill="#6bcdbe" stroke="#6bcdbe" fill-opacity="1" stroke-opacity="1"/><path d="M684,277L647,318L851,353Z" fill="#47b6a4" stroke="#47b6a4" fill-opacity="1" stroke-opacity="1"/><path d="M684,277L851,353L880,180Z" fill="#4bbaa8" stroke="#4bbaa8" fill-opacity="1" stroke-opacity="1"/><path d="M880,180L851,353L918,209Z" fill="#54af97" stroke="#54af97" fill-opacity="1" stroke-opacity="1"/><path d="M918,209L851,353L1031,416Z" fill="#339681" stroke="#339681" fill-opacity="1" stroke-opacity="1"/><path d="M918,209L1031,416L1098,232Z" fill="#449883" stroke="#449883" fill-opacity="1" stroke-opacity="1"/><path d="M1098,232L1031,416L1076,426Z" fill="#257a61" stroke="#257a61" fill-opacity="1" stroke-opacity="1"/><path d="M1098,232L1076,426L1231,330Z" fill="#317a61" stroke="#317a61" fill-opacity="1" stroke-opacity="1"/><path d="M1098,232L1231,330L1325,191Z" fill="#53826e" stroke="#53826e" fill-opacity="1" stroke-opacity="1"/><path d="M1325,191L1231,330L1223,479Z" fill="#2f675c" stroke="#2f675c" fill-opacity="1" stroke-opacity="1"/><path d="M1325,191L1223,479L1221,690Z" fill="#004131" stroke="#004131" fill-opacity="1" stroke-opacity="1"/><path d="M-60,376L-63,478L83,376Z" fill="#5f7a4b" stroke="#5f7a4b" fill-opacity="1" stroke-opacity="1"/><path d="M83,376L-63,478L112,532Z" fill="#587444" stroke="#587444" fill-opacity="1" stroke-opacity="1"/><path d="M83,376L112,532L268,428Z" fill="#648e5e" stroke="#648e5e" fill-opacity="1" stroke-opacity="1"/><path d="M268,428L112,532L190,553Z" fill="#688150" stroke="#688150" fill-opacity="1" stroke-opacity="1"/><path d="M268,428L190,553L372,624Z" fill="#6d8555" stroke="#6d8555" fill-opacity="1" stroke-opacity="1"/><path d="M268,428L372,624L426,572Z" fill="#5f855d" stroke="#5f855d" fill-opacity="1" stroke-opacity="1"/><path d="M268,428L426,572L331,373Z" fill="#629f78" stroke="#629f78" fill-opacity="1" stroke-opacity="1"/><path d="M331,373L426,572L478,547Z" fill="#559473" stroke="#559473" fill-opacity="1" stroke-opacity="1"/><path d="M331,373L478,547L554,372Z" fill="#52ab90" stroke="#52ab90" fill-opacity="1" stroke-opacity="1"/><path d="M554,372L478,547L639,583Z" fill="#39917c" stroke="#39917c" fill-opacity="1" stroke-opacity="1"/><path d="M554,372L639,583L647,318Z" fill="#33a28f" stroke="#33a28f" fill-opacity="1" stroke-opacity="1"/><path d="M647,318L639,583L851,353Z" fill="#1d9782" stroke="#1d9782" fill-opacity="1" stroke-opacity="1"/><path d="M851,353L639,583L870,544Z" fill="#01745c" stroke="#01745c" fill-opacity="1" stroke-opacity="1"/><path d="M851,353L870,544L920,491Z" fill="#007158" stroke="#007158" fill-opacity="1" stroke-opacity="1"/><path d="M851,353L920,491L1031,416Z" fill="#0a7860" stroke="#0a7860" fill-opacity="1" stroke-opacity="1"/><path d="M1031,416L920,491L1126,563Z" fill="#005439" stroke="#005439" fill-opacity="1" stroke-opacity="1"/><path d="M1031,416L1126,563L1076,426Z" fill="#005438" stroke="#005438" fill-opacity="1" stroke-opacity="1"/><path d="M1076,426L1126,563L1223,479Z" fill="#004527" stroke="#004527" fill-opacity="1" stroke-opacity="1"/><path d="M1076,426L1223,479L1231,330Z" fill="#0d5940" stroke="#0d5940" fill-opacity="1" stroke-opacity="1"/><path d="M-63,478L-15,710L112,532Z" fill="#544a16" stroke="#544a16" fill-opacity="1" stroke-opacity="1"/><path d="M112,532L-15,710L70,722Z" fill="#593b18" stroke="#593b18" fill-opacity="1" stroke-opacity="1"/><path d="M112,532L70,722L184,700Z" fill="#604724" stroke="#604724" fill-opacity="1" stroke-opacity="1"/><path d="M112,532L184,700L190,553Z" fill="#655f2c" stroke="#655f2c" fill-opacity="1" stroke-opacity="1"/><path d="M190,553L184,700L372,624Z" fill="#6e653c" stroke="#6e653c" fill-opacity="1" stroke-opacity="1"/><path d="M426,572L372,624L504,641Z" fill="#516f55" stroke="#516f55" fill-opacity="1" stroke-opacity="1"/><path d="M426,572L504,641L478,547Z" fill="#4a785b" stroke="#4a785b" fill-opacity="1" stroke-opacity="1"/><path d="M478,547L504,641L639,583Z" fill="#3d765f" stroke="#3d765f" fill-opacity="1" stroke-opacity="1"/><path d="M639,583L504,641L722,676Z" fill="#295d52" stroke="#295d52" fill-opacity="1" stroke-opacity="1"/><path d="M639,583L722,676L870,544Z" fill="#0c5740" stroke="#0c5740" fill-opacity="1" stroke-opacity="1"/><path d="M870,544L722,676L870,647Z" fill="#004534" stroke="#004534" fill-opacity="1" stroke-opacity="1"/><path d="M870,544L870,647L920,491Z" fill="#005035" stroke="#005035" fill-opacity="1" stroke-opacity="1"/><path d="M920,491L870,647L975,719Z" fill="#003925" stroke="#003925" fill-opacity="1" stroke-opacity="1"/><path d="M920,491L975,719L1111,633Z" fill="#002f18" stroke="#002f18" fill-opacity="1" stroke-opacity="1"/><path d="M920,491L1111,633L1126,563Z" fill="#00391b" stroke="#00391b" fill-opacity="1" stroke-opacity="1"/><path d="M1126,563L1111,633L1221,690Z" fill="#001601" stroke="#001601" fill-opacity="1" stroke-opacity="1"/><path d="M1126,563L1221,690L1223,479Z" fill="#002105" stroke="#002105" fill-opacity="1" stroke-opacity="1"/><path d="M70,722L975,719L184,700Z" fill="#556452" stroke="#556452" fill-opacity="1" stroke-opacity="1"/><path d="M184,700L975,719L722,676Z" fill="#285951" stroke="#285951" fill-opacity="1" stroke-opacity="1"/><path d="M184,700L722,676L504,641Z" fill="#4a665a" stroke="#4a665a" fill-opacity="1" stroke-opacity="1"/><path d="M184,700L504,641L372,624Z" fill="#5f634a" stroke="#5f634a" fill-opacity="1" stroke-opacity="1"/><path d="M722,676L975,719L870,647Z" fill="#003a2f" stroke="#003a2f" fill-opacity="1" stroke-opacity="1"/><path d="M975,719L1221,690L1111,633Z" fill="#001809" stroke="#001809" fill-opacity="1" stroke-opacity="1"/></g></svg>