<svg width="1052" height="535" xmlns="http://www.w3.org/2000/svg"><g><path d="M-21,-69L-91,26L115,79Z" fill="#a0611d" stroke="#a0611d" fill-opacity="1" stroke-opacity="1"/><path d="M-21,-69L115,79L54,-113Z" fill="#935013" stroke="#935013" fill-opacity="1" stroke-opacity="1"/><path d="M54,-113L115,79L175,40Z" fill="#b47a36" stroke="#b47a36" fill-opacity="1" stroke-opacity="1"/><path d="M54,-113L175,40L205,-15Z" fill="#ab6e2e" stroke="#ab6e2e" fill-opacity="1" stroke-opacity="1"/><path d="M54,-113L205,-15L403,-21Z" fill="#ab703f" stroke="#ab703f" fill-opacity="1" stroke-opacity="1"/><path d="M54,-113L403,-21L503,-67Z" fill="#ab745a" stroke="#ab745a" fill-opacity="1" stroke-opacity="1"/><path d="M54,-113L503,-67L645,-103Z" fill="#9a7567" stroke="#9a7567" fill-opacity="1" stroke-opacity="1"/><path d="M54,-113L645,-103L806,-120Z" fill="#837570" stroke="#837570" fill-opacity="1" stroke-opacity="1"/><path d="M54,-113L806,-120L943,-122Z" fill="#656a67" stroke="#656a67" fill-opacity="1" stroke-opacity="1"/><path d="M205,-15L175,40L365,69Z" fill="#d5a967" stroke="#d5a967" fill-opacity="1" stroke-opacity="1"/><path d="M205,-15L365,69L403,-21Z" fill="#d2a771" stroke="#d2a771" fill-opacity="1" stroke-opacity="1"/><path d="M403,-21L365,69L519,43Z" fill="#d3b989" stroke="#d3b989" fill-opacity="1" stroke-opacity="1"/><path d="M403,-21L519,43L503,-67Z" fill="#b79b78" stroke="#b79b78" fill-opacity="1" stroke-opacity="1"/><path d="M503,-67L519,43L636,18Z" fill="#aea07f" stroke="#aea07f" fill-opacity="1" stroke-opacity="1"/><path d="M503,-67L636,18L645,-103Z" fill="#897a68" stroke="#897a68" fill-opacity="1" stroke-opacity="1"/><path d="M645,-103L636,18L775,44Z" fill="#7f8464" stroke="#7f8464" fill-opacity="1" stroke-opacity="1"/><path d="M645,-103L775,44L806,-120Z" fill="#595a4d" stroke="#595a4d" fill-opacity="1" stroke-opacity="1"/><path d="M806,-120L775,44L924,87Z" fill="#616f4c" stroke="#616f4c" fill-opacity="1" stroke-opacity="1"/><path d="M806,-120L924,87L943,-122Z" fill="#3a3e2c" stroke="#3a3e2c" fill-opacity="1" stroke-opacity="1"/><path d="M943,-122L924,87L1167,-55Z" fill="#453214" stroke="#453214" fill-opacity="1" stroke-opacity="1"/><path d="M943,-122L1167,-55L1292,-121Z" fill="#230000" stroke="#230000" fill-opacity="1" stroke-opacity="1"/><path d="M1167,-55L924,87L1142,103Z" fill="#6a542a" stroke="#6a542a" fill-opacity="1" stroke-opacity="1"/><path d="M1167,-55L1142,103L1219,66Z" fill="#674924" stroke="#674924" fill-opacity="1" stroke-opacity="1"/><path d="M1167,-55L1219,66L1292,-121Z" fill="#421800" stroke="#421800" fill-opacity="1" stroke-opacity="1"/><path d="M1292,-121L1219,66L1308,280Z" fill="#796135" stroke="#796135" fill-opacity="1" stroke-opacity="1"/><path d="M-91,26L-87,624L-79,181Z" fill="#a38e7d" stroke="#a38e7d" fill-opacity="1" stroke-opacity="1"/><path d="M-91,26L-79,181L115,79Z" fill="#c29040" stroke="#c29040" fill-opacity="1" stroke-opacity="1"/><path d="M115,79L-79,181L111,172Z" fill="#d0ae70" stroke="#d0ae70" fill-opacity="1" stroke-opacity="1"/><path d="M115,79L111,172L226,174Z" fill="#e6ca8a" stroke="#e6ca8a" fill-opacity="1" stroke-opacity="1"/><path d="M115,79L226,174L175,40Z" fill="#ebc573" stroke="#ebc573" fill-opacity="1" stroke-opacity="1"/><path d="M175,40L226,174L365,69Z" fill="#f3d188" stroke="#f3d188" fill-opacity="1" stroke-opacity="1"/><path d="M365,69L226,174L372,263Z" fill="#f8edc8" stroke="#f8edc8" fill-opacity="1" stroke-opacity="1"/><path d="M365,69L372,263L509,206Z" fill="#f2f4dd" stroke="#f2f4dd" fill-opacity="1" stroke-opacity="1"/><path d="M365,69L509,206L519,43Z" fill="#ece3b3" stroke="#ece3b3" fill-opacity="1" stroke-opacity="1"/><path d="M519,43L509,206L636,18Z" fill="#dadbaa" stroke="#dadbaa" fill-opacity="1" stroke-opacity="1"/><path d="M636,18L509,206L726,179Z" fill="#c5dbbb" stroke="#c5dbbb" fill-opacity="1" stroke-opacity="1"/><path d="M636,18L726,179L775,44Z" fill="#a5bc8c" stroke="#a5bc8c" fill-opacity="1" stroke-opacity="1"/><path d="M775,44L726,179L833,236Z" fill="#99c3aa" stroke="#99c3aa" fill-opacity="1" stroke-opacity="1"/><path d="M775,44L833,236L924,87Z" fill="#89ad88" stroke="#89ad88" fill-opacity="1" stroke-opacity="1"/><path d="M924,87L833,236L1003,228Z" fill="#7fa99b" stroke="#7fa99b" fill-opacity="1" stroke-opacity="1"/><path d="M924,87L1003,228L1142,103Z" fill="#80896b" stroke="#80896b" fill-opacity="1" stroke-opacity="1"/><path d="M1142,103L1003,228L1128,277Z" fill="#7d8378" stroke="#7d8378" fill-opacity="1" stroke-opacity="1"/><path d="M1142,103L1128,277L1308,280Z" fill="#7c807a" stroke="#7c807a" fill-opacity="1" stroke-opacity="1"/><path d="M1142,103L1308,280L1219,66Z" fill="#807963" stroke="#807963" fill-opacity="1" stroke-opacity="1"/><path d="M-79,181L-87,624L-43,388Z" fill="#5c6b51" stroke="#5c6b51" fill-opacity="1" stroke-opacity="1"/><path d="M-79,181L-43,388L42,361Z" fill="#989774" stroke="#989774" fill-opacity="1" stroke-opacity="1"/><path d="M-79,181L42,361L111,172Z" fill="#c5af88" stroke="#c5af88" fill-opacity="1" stroke-opacity="1"/><path d="M111,172L42,361L216,340Z" fill="#c6c59e" stroke="#c6c59e" fill-opacity="1" stroke-opacity="1"/><path d="M111,172L216,340L226,174Z" fill="#e8dbb0" stroke="#e8dbb0" fill-opacity="1" stroke-opacity="1"/><path d="M226,174L216,340L372,263Z" fill="#ece8cb" stroke="#ece8cb" fill-opacity="1" stroke-opacity="1"/><path d="M372,263L216,340L427,319Z" fill="#d4e9d3" stroke="#d4e9d3" fill-opacity="1" stroke-opacity="1"/><path d="M372,263L427,319L509,206Z" fill="#e7f4e9" stroke="#e7f4e9" fill-opacity="1" stroke-opacity="1"/><path d="M509,206L427,319L561,423Z" fill="#baeae2" stroke="#baeae2" fill-opacity="1" stroke-opacity="1"/><path d="M509,206L561,423L622,418Z" fill="#93dcd5" stroke="#93dcd5" fill-opacity="1" stroke-opacity="1"/><path d="M509,206L622,418L726,179Z" fill="#bde6e3" stroke="#bde6e3" fill-opacity="1" stroke-opacity="1"/><path d="M726,179L622,418L833,236Z" fill="#96d2cd" stroke="#96d2cd" fill-opacity="1" stroke-opacity="1"/><path d="M833,236L622,418L840,423Z" fill="#52b7ae" stroke="#52b7ae" fill-opacity="1" stroke-opacity="1"/><path d="M833,236L840,423L1010,400Z" fill="#389c93" stroke="#389c93" fill-opacity="1" stroke-opacity="1"/><path d="M833,236L1010,400L1003,228Z" fill="#689e99" stroke="#689e99" fill-opacity="1" stroke-opacity="1"/><path d="M1003,228L1010,400L1113,369Z" fill="#477f78" stroke="#477f78" fill-opacity="1" stroke-opacity="1"/><path d="M1003,228L1113,369L1128,277Z" fill="#65807b" stroke="#65807b" fill-opacity="1" stroke-opacity="1"/><path d="M1128,277L1113,369L1270,346Z" fill="#49726e" stroke="#49726e" fill-opacity="1" stroke-opacity="1"/><path d="M1128,277L1270,346L1308,280Z" fill="#5e7876" stroke="#5e7876" fill-opacity="1" stroke-opacity="1"/><path d="M1308,280L1270,346L1294,560Z" fill="#265753" stroke="#265753" fill-opacity="1" stroke-opacity="1"/><path d="M-43,388L-87,624L-18,585Z" fill="#3c2a0b" stroke="#3c2a0b" fill-opacity="1" stroke-opacity="1"/><path d="M-43,388L-18,585L18,577Z" fill="#433c15" stroke="#433c15" fill-opacity="1" stroke-opacity="1"/><path d="M-43,388L18,577L42,361Z" fill="#5a6941" stroke="#5a6941" fill-opacity="1" stroke-opacity="1"/><path d="M42,361L18,577L234,551Z" fill="#5b663c" stroke="#5b663c" fill-opacity="1" stroke-opacity="1"/><path d="M42,361L234,551L216,340Z" fill="#87a277" stroke="#87a277" fill-opacity="1" stroke-opacity="1"/><path d="M216,340L234,551L423,470Z" fill="#85a486" stroke="#85a486" fill-opacity="1" stroke-opacity="1"/><path d="M216,340L423,470L427,319Z" fill="#a8d5be" stroke="#a8d5be" fill-opacity="1" stroke-opacity="1"/><path d="M427,319L423,470L561,423Z" fill="#8ec7bb" stroke="#8ec7bb" fill-opacity="1" stroke-opacity="1"/><path d="M561,423L423,470L526,479Z" fill="#74aca3" stroke="#74aca3" fill-opacity="1" stroke-opacity="1"/><path d="M561,423L526,479L622,418Z" fill="#6aaea7" stroke="#6aaea7" fill-opacity="1" stroke-opacity="1"/><path d="M622,418L526,479L700,539Z" fill="#4c928b" stroke="#4c928b" fill-opacity="1" stroke-opacity="1"/><path d="M622,418L700,539L840,423Z" fill="#348b82" stroke="#348b82" fill-opacity="1" stroke-opacity="1"/><path d="M840,423L700,539L790,571Z" fill="#1a635b" stroke="#1a635b" fill-opacity="1" stroke-opacity="1"/><path d="M840,423L790,571L944,491Z" fill="#055a52" stroke="#055a52" fill-opacity="1" stroke-opacity="1"/><path d="M840,423L944,491L1010,400Z" fill="#15685f" stroke="#15685f" fill-opacity="1" stroke-opacity="1"/><path d="M1010,400L944,491L1146,482Z" fill="#0d473e" stroke="#0d473e" fill-opacity="1" stroke-opacity="1"/><path d="M1010,400L1146,482L1113,369Z" fill="#1d4f47" stroke="#1d4f47" fill-opacity="1" stroke-opacity="1"/><path d="M1113,369L1146,482L1270,346Z" fill="#255551" stroke="#255551" fill-opacity="1" stroke-opacity="1"/><path d="M1270,346L1146,482L1294,560Z" fill="#0b342f" stroke="#0b342f" fill-opacity="1" stroke-opacity="1"/><path d="M-18,585L-87,624L53,628Z" fill="#422401" stroke="#422401" fill-opacity="1" stroke-opacity="1"/><path d="M-18,585L53,628L18,577Z" fill="#4a2e0a" stroke="#4a2e0a" fill-opacity="1" stroke-opacity="1"/><path d="M18,577L53,628L234,551Z" fill="#5c4520" stroke="#5c4520" fill-opacity="1" stroke-opacity="1"/><path d="M234,551L53,628L251,682Z" fill="#6d5a34" stroke="#6d5a34" fill-opacity="1" stroke-opacity="1"/><path d="M234,551L251,682L355,680Z" fill="#756a4f" stroke="#756a4f" fill-opacity="1" stroke-opacity="1"/><path d="M234,551L355,680L423,470Z" fill="#7a725e" stroke="#7a725e" fill-opacity="1" stroke-opacity="1"/><path d="M423,470L355,680L483,631Z" fill="#727569" stroke="#727569" fill-opacity="1" stroke-opacity="1"/><path d="M423,470L483,631L526,479Z" fill="#6a877c" stroke="#6a877c" fill-opacity="1" stroke-opacity="1"/><path d="M526,479L483,631L700,539Z" fill="#56756e" stroke="#56756e" fill-opacity="1" stroke-opacity="1"/><path d="M700,539L483,631L668,691Z" fill="#476764" stroke="#476764" fill-opacity="1" stroke-opacity="1"/><path d="M700,539L668,691L790,571Z" fill="#295652" stroke="#295652" fill-opacity="1" stroke-opacity="1"/><path d="M790,571L668,691L834,617Z" fill="#1d4c48" stroke="#1d4c48" fill-opacity="1" stroke-opacity="1"/><path d="M790,571L834,617L944,491Z" fill="#063834" stroke="#063834" fill-opacity="1" stroke-opacity="1"/><path d="M944,491L834,617L973,651Z" fill="#002a26" stroke="#002a26" fill-opacity="1" stroke-opacity="1"/><path d="M944,491L973,651L1113,642Z" fill="#001612" stroke="#001612" fill-opacity="1" stroke-opacity="1"/><path d="M944,491L1113,642L1146,482Z" fill="#00140d" stroke="#00140d" fill-opacity="1" stroke-opacity="1"/><path d="M1146,482L1113,642L1294,560Z" fill="#000000" stroke="#000000" fill-opacity="1" stroke-opacity="1"/><path d="M1294,560L1113,642L1283,716Z" fill="#000000" stroke="#000000" fill-opacity="1" stroke-opacity="1"/><path d="M-87,624L251,682L53,628Z" fill="#563d18" stroke="#563d18" fill-opacity="1" stroke-opacity="1"/><path d="M251,682L1283,716L668,691Z" fill="#25534f" stroke="#25534f" fill-opacity="1" stroke-opacity="1"/><path d="M251,682L668,691L355,680Z" fill="#717569" stroke="#717569" fill-opacity="1" stroke-opacity="1"/><path d="M355,680L668,691L483,631Z" fill="#677570" stroke="#677570" fill-opacity="1" stroke-opacity="1"/><path d="M668,691L1283,716L973,651Z" fill="#001d19" stroke="#001d19" fill-opacity="1" stroke-opacity="1"/><path d="M668,691L973,651L834,617Z" fill="#0e3f3b" stroke="#0e3f3b" fill-opacity="1" stroke-opacity="1"/><path d="M973,651L1283,716L1113,642Z" fill="#000000" stroke="#000000" fill-opacity="1" stroke-opacity="1"/></g></svg>