<svg width="1052" height="535" xmlns="http://www.w3.org/2000/svg"><g><path d="M-109,-32L-129,191L-32,129Z" fill="#b54143" stroke="#b54143" fill-opacity="1" stroke-opacity="1"/><path d="M-109,-32L-32,129L63,90Z" fill="#c72d4c" stroke="#c72d4c" fill-opacity="1" stroke-opacity="1"/><path d="M-109,-32L63,90L56,-115Z" fill="#a10c45" stroke="#a10c45" fill-opacity="1" stroke-opacity="1"/><path d="M56,-115L63,90L216,-34Z" fill="#be2d4b" stroke="#be2d4b" fill-opacity="1" stroke-opacity="1"/><path d="M56,-115L216,-34L402,-92Z" fill="#a34241" stroke="#a34241" fill-opacity="1" stroke-opacity="1"/><path d="M56,-115L402,-92L1308,-96Z" fill="#887964" stroke="#887964" fill-opacity="1" stroke-opacity="1"/><path d="M216,-34L63,90L261,65Z" fill="#f25550" stroke="#f25550" fill-opacity="1" stroke-opacity="1"/><path d="M216,-34L261,65L402,-92Z" fill="#cf6256" stroke="#cf6256" fill-opacity="1" stroke-opacity="1"/><path d="M402,-92L261,65L434,40Z" fill="#e07f6a" stroke="#e07f6a" fill-opacity="1" stroke-opacity="1"/><path d="M402,-92L434,40L519,-36Z" fill="#ca817b" stroke="#ca817b" fill-opacity="1" stroke-opacity="1"/><path d="M402,-92L519,-36L644,-66Z" fill="#ac7d73" stroke="#ac7d73" fill-opacity="1" stroke-opacity="1"/><path d="M402,-92L644,-66L973,-76Z" fill="#7d6e6c" stroke="#7d6e6c" fill-opacity="1" stroke-opacity="1"/><path d="M402,-92L973,-76L1308,-96Z" fill="#433a73" stroke="#433a73" fill-opacity="1" stroke-opacity="1"/><path d="M519,-36L434,40L560,38Z" fill="#e49584" stroke="#e49584" fill-opacity="1" stroke-opacity="1"/><path d="M519,-36L560,38L644,-66Z" fill="#c38470" stroke="#c38470" fill-opacity="1" stroke-opacity="1"/><path d="M644,-66L560,38L726,71Z" fill="#c5897a" stroke="#c5897a" fill-opacity="1" stroke-opacity="1"/><path d="M644,-66L726,71L796,-60Z" fill="#947177" stroke="#947177" fill-opacity="1" stroke-opacity="1"/><path d="M644,-66L796,-60L973,-76Z" fill="#595574" stroke="#595574" fill-opacity="1" stroke-opacity="1"/><path d="M796,-60L726,71L789,76Z" fill="#a37d7f" stroke="#a37d7f" fill-opacity="1" stroke-opacity="1"/><path d="M796,-60L789,76L973,-76Z" fill="#6c5081" stroke="#6c5081" fill-opacity="1" stroke-opacity="1"/><path d="M973,-76L789,76L965,124Z" fill="#9e5886" stroke="#9e5886" fill-opacity="1" stroke-opacity="1"/><path d="M973,-76L965,124L1102,-72Z" fill="#95256f" stroke="#95256f" fill-opacity="1" stroke-opacity="1"/><path d="M973,-76L1102,-72L1308,-96Z" fill="#7e0053" stroke="#7e0053" fill-opacity="1" stroke-opacity="1"/><path d="M1102,-72L965,124L1182,70Z" fill="#c6246d" stroke="#c6246d" fill-opacity="1" stroke-opacity="1"/><path d="M1102,-72L1182,70L1308,-96Z" fill="#af0551" stroke="#af0551" fill-opacity="1" stroke-opacity="1"/><path d="M1308,-96L1182,70L1276,57Z" fill="#d91650" stroke="#d91650" fill-opacity="1" stroke-opacity="1"/><path d="M1308,-96L1276,57L1309,165Z" fill="#f8234f" stroke="#f8234f" fill-opacity="1" stroke-opacity="1"/><path d="M1308,-96L1309,165L1333,570Z" fill="#ff807d" stroke="#ff807d" fill-opacity="1" stroke-opacity="1"/><path d="M-32,129L-129,191L38,245Z" fill="#c37d6e" stroke="#c37d6e" fill-opacity="1" stroke-opacity="1"/><path d="M-32,129L38,245L63,90Z" fill="#d57461" stroke="#d57461" fill-opacity="1" stroke-opacity="1"/><path d="M63,90L38,245L272,191Z" fill="#ef9c6f" stroke="#ef9c6f" fill-opacity="1" stroke-opacity="1"/><path d="M63,90L272,191L261,65Z" fill="#fa8951" stroke="#fa8951" fill-opacity="1" stroke-opacity="1"/><path d="M261,65L272,191L434,40Z" fill="#fea361" stroke="#fea361" fill-opacity="1" stroke-opacity="1"/><path d="M434,40L272,191L328,257Z" fill="#ffd680" stroke="#ffd680" fill-opacity="1" stroke-opacity="1"/><path d="M434,40L328,257L519,207Z" fill="#ffea97" stroke="#ffea97" fill-opacity="1" stroke-opacity="1"/><path d="M434,40L519,207L560,38Z" fill="#fcbe83" stroke="#fcbe83" fill-opacity="1" stroke-opacity="1"/><path d="M560,38L519,207L726,71Z" fill="#eabf79" stroke="#eabf79" fill-opacity="1" stroke-opacity="1"/><path d="M726,71L519,207L724,232Z" fill="#d9e497" stroke="#d9e497" fill-opacity="1" stroke-opacity="1"/><path d="M726,71L724,232L766,216Z" fill="#bcda9a" stroke="#bcda9a" fill-opacity="1" stroke-opacity="1"/><path d="M726,71L766,216L789,76Z" fill="#b4b683" stroke="#b4b683" fill-opacity="1" stroke-opacity="1"/><path d="M789,76L766,216L942,227Z" fill="#a0c2a3" stroke="#a0c2a3" fill-opacity="1" stroke-opacity="1"/><path d="M789,76L942,227L965,124Z" fill="#a19d91" stroke="#a19d91" fill-opacity="1" stroke-opacity="1"/><path d="M965,124L942,227L1090,272Z" fill="#b99ba7" stroke="#b99ba7" fill-opacity="1" stroke-opacity="1"/><path d="M965,124L1090,272L1182,70Z" fill="#cb6f7e" stroke="#cb6f7e" fill-opacity="1" stroke-opacity="1"/><path d="M1182,70L1090,272L1309,165Z" fill="#e57375" stroke="#e57375" fill-opacity="1" stroke-opacity="1"/><path d="M1182,70L1309,165L1276,57Z" fill="#f4414f" stroke="#f4414f" fill-opacity="1" stroke-opacity="1"/><path d="M-129,191L-65,671L-79,345Z" fill="#696a82" stroke="#696a82" fill-opacity="1" stroke-opacity="1"/><path d="M-129,191L-79,345L38,245Z" fill="#be8087" stroke="#be8087" fill-opacity="1" stroke-opacity="1"/><path d="M38,245L-79,345L49,414Z" fill="#b98182" stroke="#b98182" fill-opacity="1" stroke-opacity="1"/><path d="M38,245L49,414L166,410Z" fill="#c09789" stroke="#c09789" fill-opacity="1" stroke-opacity="1"/><path d="M38,245L166,410L272,191Z" fill="#f4ae83" stroke="#f4ae83" fill-opacity="1" stroke-opacity="1"/><path d="M272,191L166,410L328,257Z" fill="#fdcc89" stroke="#fdcc89" fill-opacity="1" stroke-opacity="1"/><path d="M328,257L166,410L319,375Z" fill="#ded090" stroke="#ded090" fill-opacity="1" stroke-opacity="1"/><path d="M328,257L319,375L565,339Z" fill="#eef3ab" stroke="#eef3ab" fill-opacity="1" stroke-opacity="1"/><path d="M328,257L565,339L519,207Z" fill="#fffec4" stroke="#fffec4" fill-opacity="1" stroke-opacity="1"/><path d="M519,207L565,339L724,232Z" fill="#eaf7b8" stroke="#eaf7b8" fill-opacity="1" stroke-opacity="1"/><path d="M724,232L565,339L621,401Z" fill="#cef2b0" stroke="#cef2b0" fill-opacity="1" stroke-opacity="1"/><path d="M724,232L621,401L854,326Z" fill="#b0e5b2" stroke="#b0e5b2" fill-opacity="1" stroke-opacity="1"/><path d="M724,232L854,326L766,216Z" fill="#aedcc0" stroke="#aedcc0" fill-opacity="1" stroke-opacity="1"/><path d="M766,216L854,326L942,227Z" fill="#9bc6c9" stroke="#9bc6c9" fill-opacity="1" stroke-opacity="1"/><path d="M942,227L854,326L1010,338Z" fill="#a7aeb0" stroke="#a7aeb0" fill-opacity="1" stroke-opacity="1"/><path d="M942,227L1010,338L1090,272Z" fill="#bc96aa" stroke="#bc96aa" fill-opacity="1" stroke-opacity="1"/><path d="M1090,272L1010,338L1076,329Z" fill="#bb89a1" stroke="#bb89a1" fill-opacity="1" stroke-opacity="1"/><path d="M1090,272L1076,329L1306,396Z" fill="#c88095" stroke="#c88095" fill-opacity="1" stroke-opacity="1"/><path d="M1090,272L1306,396L1309,165Z" fill="#ef808b" stroke="#ef808b" fill-opacity="1" stroke-opacity="1"/><path d="M1309,165L1306,396L1333,570Z" fill="#c77781" stroke="#c77781" fill-opacity="1" stroke-opacity="1"/><path d="M-79,345L-65,671L-27,559Z" fill="#8c1471" stroke="#8c1471" fill-opacity="1" stroke-opacity="1"/><path d="M-79,345L-27,559L49,414Z" fill="#685090" stroke="#685090" fill-opacity="1" stroke-opacity="1"/><path d="M49,414L-27,559L109,527Z" fill="#9b3480" stroke="#9b3480" fill-opacity="1" stroke-opacity="1"/><path d="M49,414L109,527L166,410Z" fill="#916a93" stroke="#916a93" fill-opacity="1" stroke-opacity="1"/><path d="M166,410L109,527L196,583Z" fill="#b84f7e" stroke="#b84f7e" fill-opacity="1" stroke-opacity="1"/><path d="M166,410L196,583L319,375Z" fill="#a38792" stroke="#a38792" fill-opacity="1" stroke-opacity="1"/><path d="M319,375L196,583L387,570Z" fill="#c37a8d" stroke="#c37a8d" fill-opacity="1" stroke-opacity="1"/><path d="M319,375L387,570L545,493Z" fill="#b3aab2" stroke="#b3aab2" fill-opacity="1" stroke-opacity="1"/><path d="M319,375L545,493L565,339Z" fill="#b4e9c6" stroke="#b4e9c6" fill-opacity="1" stroke-opacity="1"/><path d="M565,339L545,493L621,401Z" fill="#a1deb5" stroke="#a1deb5" fill-opacity="1" stroke-opacity="1"/><path d="M621,401L545,493L703,529Z" fill="#96acb4" stroke="#96acb4" fill-opacity="1" stroke-opacity="1"/><path d="M621,401L703,529L854,326Z" fill="#6bc5be" stroke="#6bc5be" fill-opacity="1" stroke-opacity="1"/><path d="M854,326L703,529L815,548Z" fill="#5a95bc" stroke="#5a95bc" fill-opacity="1" stroke-opacity="1"/><path d="M854,326L815,548L934,533Z" fill="#497dc4" stroke="#497dc4" fill-opacity="1" stroke-opacity="1"/><path d="M854,326L934,533L1010,338Z" fill="#609bba" stroke="#609bba" fill-opacity="1" stroke-opacity="1"/><path d="M1010,338L934,533L1140,472Z" fill="#635cb4" stroke="#635cb4" fill-opacity="1" stroke-opacity="1"/><path d="M1010,338L1140,472L1076,329Z" fill="#8f7aa3" stroke="#8f7aa3" fill-opacity="1" stroke-opacity="1"/><path d="M1076,329L1140,472L1306,396Z" fill="#976d98" stroke="#976d98" fill-opacity="1" stroke-opacity="1"/><path d="M1306,396L1140,472L1333,570Z" fill="#a93489" stroke="#a93489" fill-opacity="1" stroke-opacity="1"/><path d="M-27,559L-65,671L108,686Z" fill="#d00250" stroke="#d00250" fill-opacity="1" stroke-opacity="1"/><path d="M-27,559L108,686L109,527Z" fill="#d21564" stroke="#d21564" fill-opacity="1" stroke-opacity="1"/><path d="M109,527L108,686L181,618Z" fill="#ec285d" stroke="#ec285d" fill-opacity="1" stroke-opacity="1"/><path d="M109,527L181,618L196,583Z" fill="#df3067" stroke="#df3067" fill-opacity="1" stroke-opacity="1"/><path d="M196,583L181,618L387,570Z" fill="#ee4c6a" stroke="#ee4c6a" fill-opacity="1" stroke-opacity="1"/><path d="M387,570L181,618L433,699Z" fill="#fe636d" stroke="#fe636d" fill-opacity="1" stroke-opacity="1"/><path d="M387,570L433,699L530,710Z" fill="#ff7b80" stroke="#ff7b80" fill-opacity="1" stroke-opacity="1"/><path d="M387,570L530,710L545,493Z" fill="#f07f9c" stroke="#f07f9c" fill-opacity="1" stroke-opacity="1"/><path d="M545,493L530,710L726,628Z" fill="#e77785" stroke="#e77785" fill-opacity="1" stroke-opacity="1"/><path d="M545,493L726,628L703,529Z" fill="#b4739d" stroke="#b4739d" fill-opacity="1" stroke-opacity="1"/><path d="M703,529L726,628L815,548Z" fill="#9e6498" stroke="#9e6498" fill-opacity="1" stroke-opacity="1"/><path d="M815,548L726,628L855,722Z" fill="#aa5787" stroke="#aa5787" fill-opacity="1" stroke-opacity="1"/><path d="M815,548L855,722L934,533Z" fill="#914299" stroke="#914299" fill-opacity="1" stroke-opacity="1"/><path d="M934,533L855,722L1012,703Z" fill="#aa2f7e" stroke="#aa2f7e" fill-opacity="1" stroke-opacity="1"/><path d="M934,533L1012,703L1140,472Z" fill="#a5128c" stroke="#a5128c" fill-opacity="1" stroke-opacity="1"/><path d="M1140,472L1012,703L1104,731Z" fill="#cc016f" stroke="#cc016f" fill-opacity="1" stroke-opacity="1"/><path d="M1140,472L1104,731L1289,650Z" fill="#e20068" stroke="#e20068" fill-opacity="1" stroke-opacity="1"/><path d="M1140,472L1289,650L1333,570Z" fill="#d6006e" stroke="#d6006e" fill-opacity="1" stroke-opacity="1"/><path d="M108,686L530,710L433,699Z" fill="#ff6a5b" stroke="#ff6a5b" fill-opacity="1" stroke-opacity="1"/><path d="M108,686L433,699L181,618Z" fill="#fc484e" stroke="#fc484e" fill-opacity="1" stroke-opacity="1"/><path d="M530,710L855,722L726,628Z" fill="#c96a71" stroke="#c96a71" fill-opacity="1" stroke-opacity="1"/><path d="M855,722L1104,731L1012,703Z" fill="#b71e60" stroke="#b71e60" fill-opacity="1" stroke-opacity="1"/></g></svg>