<svg width="1052" height="535" xmlns="http://www.w3.org/2000/svg"><g><path d="M-118,-27L-113,185L-103,80Z" fill="#f7b351" stroke="#f7b351" fill-opacity="1" stroke-opacity="1"/><path d="M-118,-27L-103,80L19,60Z" fill="#f8b148" stroke="#f8b148" fill-opacity="1" stroke-opacity="1"/><path d="M-118,-27L19,60L17,-73Z" fill="#f8ad39" stroke="#f8ad39" fill-opacity="1" stroke-opacity="1"/><path d="M17,-73L19,60L241,46Z" fill="#f9c064" stroke="#f9c064" fill-opacity="1" stroke-opacity="1"/><path d="M17,-73L241,46L282,-27Z" fill="#fac56c" stroke="#fac56c" fill-opacity="1" stroke-opacity="1"/><path d="M17,-73L282,-27L545,-75Z" fill="#fbca72" stroke="#fbca72" fill-opacity="1" stroke-opacity="1"/><path d="M17,-73L545,-75L935,-99Z" fill="#e7b971" stroke="#e7b971" fill-opacity="1" stroke-opacity="1"/><path d="M282,-27L241,46L328,83Z" fill="#fbdba1" stroke="#fbdba1" fill-opacity="1" stroke-opacity="1"/><path d="M282,-27L328,83L353,-23Z" fill="#fbdba0" stroke="#fbdba0" fill-opacity="1" stroke-opacity="1"/><path d="M282,-27L353,-23L545,-75Z" fill="#f6cf8a" stroke="#f6cf8a" fill-opacity="1" stroke-opacity="1"/><path d="M353,-23L328,83L502,68Z" fill="#f5deb4" stroke="#f5deb4" fill-opacity="1" stroke-opacity="1"/><path d="M353,-23L502,68L545,-75Z" fill="#ecca94" stroke="#ecca94" fill-opacity="1" stroke-opacity="1"/><path d="M545,-75L502,68L657,-18Z" fill="#debb8e" stroke="#debb8e" fill-opacity="1" stroke-opacity="1"/><path d="M545,-75L657,-18L866,-57Z" fill="#cea270" stroke="#cea270" fill-opacity="1" stroke-opacity="1"/><path d="M545,-75L866,-57L935,-99Z" fill="#c18f5c" stroke="#c18f5c" fill-opacity="1" stroke-opacity="1"/><path d="M657,-18L502,68L665,47Z" fill="#d9bc9f" stroke="#d9bc9f" fill-opacity="1" stroke-opacity="1"/><path d="M657,-18L665,47L866,-57Z" fill="#c8a381" stroke="#c8a381" fill-opacity="1" stroke-opacity="1"/><path d="M866,-57L665,47L816,113Z" fill="#c1a293" stroke="#c1a293" fill-opacity="1" stroke-opacity="1"/><path d="M866,-57L816,113L944,129Z" fill="#b5999a" stroke="#b5999a" fill-opacity="1" stroke-opacity="1"/><path d="M866,-57L944,129L935,-99Z" fill="#b08773" stroke="#b08773" fill-opacity="1" stroke-opacity="1"/><path d="M935,-99L944,129L1090,-42Z" fill="#a67d70" stroke="#a67d70" fill-opacity="1" stroke-opacity="1"/><path d="M935,-99L1090,-42L1285,-22Z" fill="#96634e" stroke="#96634e" fill-opacity="1" stroke-opacity="1"/><path d="M1090,-42L944,129L1127,73Z" fill="#9d7d89" stroke="#9d7d89" fill-opacity="1" stroke-opacity="1"/><path d="M1090,-42L1127,73L1219,17Z" fill="#91686f" stroke="#91686f" fill-opacity="1" stroke-opacity="1"/><path d="M1090,-42L1219,17L1285,-22Z" fill="#8a5f5b" stroke="#8a5f5b" fill-opacity="1" stroke-opacity="1"/><path d="M1285,-22L1219,17L1308,264Z" fill="#807089" stroke="#807089" fill-opacity="1" stroke-opacity="1"/><path d="M-103,80L-113,185L19,60Z" fill="#f8bd6c" stroke="#f8bd6c" fill-opacity="1" stroke-opacity="1"/><path d="M19,60L-113,185L35,225Z" fill="#f8cb90" stroke="#f8cb90" fill-opacity="1" stroke-opacity="1"/><path d="M19,60L35,225L241,46Z" fill="#f9d297" stroke="#f9d297" fill-opacity="1" stroke-opacity="1"/><path d="M241,46L35,225L280,225Z" fill="#fae5ca" stroke="#fae5ca" fill-opacity="1" stroke-opacity="1"/><path d="M241,46L280,225L328,83Z" fill="#fbe9cb" stroke="#fbe9cb" fill-opacity="1" stroke-opacity="1"/><path d="M328,83L280,225L467,180Z" fill="#faf8f3" stroke="#faf8f3" fill-opacity="1" stroke-opacity="1"/><path d="M328,83L467,180L502,68Z" fill="#f0e4d3" stroke="#f0e4d3" fill-opacity="1" stroke-opacity="1"/><path d="M502,68L467,180L616,279Z" fill="#e3e0ed" stroke="#e3e0ed" fill-opacity="1" stroke-opacity="1"/><path d="M502,68L616,279L665,47Z" fill="#dbcfd2" stroke="#dbcfd2" fill-opacity="1" stroke-opacity="1"/><path d="M665,47L616,279L816,113Z" fill="#cdc2d1" stroke="#cdc2d1" fill-opacity="1" stroke-opacity="1"/><path d="M816,113L616,279L831,281Z" fill="#bcb4da" stroke="#bcb4da" fill-opacity="1" stroke-opacity="1"/><path d="M816,113L831,281L944,129Z" fill="#b6aed3" stroke="#b6aed3" fill-opacity="1" stroke-opacity="1"/><path d="M944,129L831,281L960,264Z" fill="#a79ccf" stroke="#a79ccf" fill-opacity="1" stroke-opacity="1"/><path d="M944,129L960,264L1092,230Z" fill="#9e93c9" stroke="#9e93c9" fill-opacity="1" stroke-opacity="1"/><path d="M944,129L1092,230L1127,73Z" fill="#9d8cb6" stroke="#9d8cb6" fill-opacity="1" stroke-opacity="1"/><path d="M1127,73L1092,230L1308,264Z" fill="#8b7dbe" stroke="#8b7dbe" fill-opacity="1" stroke-opacity="1"/><path d="M1127,73L1308,264L1219,17Z" fill="#87759c" stroke="#87759c" fill-opacity="1" stroke-opacity="1"/><path d="M-113,185L-38,691L-78,405Z" fill="#c58c7c" stroke="#c58c7c" fill-opacity="1" stroke-opacity="1"/><path d="M-113,185L-78,405L35,225Z" fill="#e5b58c" stroke="#e5b58c" fill-opacity="1" stroke-opacity="1"/><path d="M35,225L-78,405L126,430Z" fill="#d4ab9c" stroke="#d4ab9c" fill-opacity="1" stroke-opacity="1"/><path d="M35,225L126,430L206,410Z" fill="#d5b5b5" stroke="#d5b5b5" fill-opacity="1" stroke-opacity="1"/><path d="M35,225L206,410L280,225Z" fill="#e4ccc7" stroke="#e4ccc7" fill-opacity="1" stroke-opacity="1"/><path d="M280,225L206,410L377,358Z" fill="#dccfe1" stroke="#dccfe1" fill-opacity="1" stroke-opacity="1"/><path d="M280,225L377,358L395,278Z" fill="#e5e1f5" stroke="#e5e1f5" fill-opacity="1" stroke-opacity="1"/><path d="M280,225L395,278L467,180Z" fill="#edebf6" stroke="#edebf6" fill-opacity="1" stroke-opacity="1"/><path d="M395,278L377,358L543,355Z" fill="#d1caeb" stroke="#d1caeb" fill-opacity="1" stroke-opacity="1"/><path d="M395,278L543,355L467,180Z" fill="#d8d3ed" stroke="#d8d3ed" fill-opacity="1" stroke-opacity="1"/><path d="M467,180L543,355L616,279Z" fill="#cfc8e8" stroke="#cfc8e8" fill-opacity="1" stroke-opacity="1"/><path d="M616,279L543,355L713,402Z" fill="#b5aadc" stroke="#b5aadc" fill-opacity="1" stroke-opacity="1"/><path d="M616,279L713,402L782,349Z" fill="#aa9ed7" stroke="#aa9ed7" fill-opacity="1" stroke-opacity="1"/><path d="M616,279L782,349L831,281Z" fill="#ada3d7" stroke="#ada3d7" fill-opacity="1" stroke-opacity="1"/><path d="M831,281L782,349L948,371Z" fill="#988acc" stroke="#988acc" fill-opacity="1" stroke-opacity="1"/><path d="M831,281L948,371L960,264Z" fill="#9689ca" stroke="#9689ca" fill-opacity="1" stroke-opacity="1"/><path d="M960,264L948,371L1116,350Z" fill="#8575c1" stroke="#8575c1" fill-opacity="1" stroke-opacity="1"/><path d="M960,264L1116,350L1092,230Z" fill="#8879c0" stroke="#8879c0" fill-opacity="1" stroke-opacity="1"/><path d="M1092,230L1116,350L1308,264Z" fill="#7867b8" stroke="#7867b8" fill-opacity="1" stroke-opacity="1"/><path d="M1308,264L1116,350L1270,391Z" fill="#655ab0" stroke="#655ab0" fill-opacity="1" stroke-opacity="1"/><path d="M1308,264L1270,391L1331,638Z" fill="#4c43a5" stroke="#4c43a5" fill-opacity="1" stroke-opacity="1"/><path d="M-78,405L-38,691L-45,477Z" fill="#b1777c" stroke="#b1777c" fill-opacity="1" stroke-opacity="1"/><path d="M-78,405L-45,477L126,430Z" fill="#c39390" stroke="#c39390" fill-opacity="1" stroke-opacity="1"/><path d="M126,430L-45,477L96,557Z" fill="#b98e9c" stroke="#b98e9c" fill-opacity="1" stroke-opacity="1"/><path d="M126,430L96,557L198,538Z" fill="#b693b0" stroke="#b693b0" fill-opacity="1" stroke-opacity="1"/><path d="M126,430L198,538L206,410Z" fill="#c0a2bc" stroke="#c0a2bc" fill-opacity="1" stroke-opacity="1"/><path d="M206,410L198,538L434,524Z" fill="#bba7d5" stroke="#bba7d5" fill-opacity="1" stroke-opacity="1"/><path d="M206,410L434,524L377,358Z" fill="#c8bde9" stroke="#c8bde9" fill-opacity="1" stroke-opacity="1"/><path d="M377,358L434,524L543,355Z" fill="#beb4e5" stroke="#beb4e5" fill-opacity="1" stroke-opacity="1"/><path d="M543,355L434,524L549,539Z" fill="#aa9dde" stroke="#aa9dde" fill-opacity="1" stroke-opacity="1"/><path d="M543,355L549,539L713,402Z" fill="#a699d9" stroke="#a699d9" fill-opacity="1" stroke-opacity="1"/><path d="M713,402L549,539L678,542Z" fill="#9383d2" stroke="#9383d2" fill-opacity="1" stroke-opacity="1"/><path d="M713,402L678,542L828,485Z" fill="#8a79cc" stroke="#8a79cc" fill-opacity="1" stroke-opacity="1"/><path d="M713,402L828,485L782,349Z" fill="#9283cd" stroke="#9283cd" fill-opacity="1" stroke-opacity="1"/><path d="M782,349L828,485L948,371Z" fill="#8a7ac8" stroke="#8a7ac8" fill-opacity="1" stroke-opacity="1"/><path d="M948,371L828,485L976,557Z" fill="#7360bf" stroke="#7360bf" fill-opacity="1" stroke-opacity="1"/><path d="M948,371L976,557L1158,480Z" fill="#6550b7" stroke="#6550b7" fill-opacity="1" stroke-opacity="1"/><path d="M948,371L1158,480L1116,350Z" fill="#6d59b8" stroke="#6d59b8" fill-opacity="1" stroke-opacity="1"/><path d="M1116,350L1158,480L1270,391Z" fill="#5d49b0" stroke="#5d49b0" fill-opacity="1" stroke-opacity="1"/><path d="M1270,391L1158,480L1239,560Z" fill="#4938a8" stroke="#4938a8" fill-opacity="1" stroke-opacity="1"/><path d="M1270,391L1239,560L1331,638Z" fill="#382ba1" stroke="#382ba1" fill-opacity="1" stroke-opacity="1"/><path d="M-45,477L-38,691L96,557Z" fill="#a77288" stroke="#a77288" fill-opacity="1" stroke-opacity="1"/><path d="M96,557L-38,691L71,725Z" fill="#97638d" stroke="#97638d" fill-opacity="1" stroke-opacity="1"/><path d="M96,557L71,725L176,687Z" fill="#976ba0" stroke="#976ba0" fill-opacity="1" stroke-opacity="1"/><path d="M96,557L176,687L198,538Z" fill="#a580af" stroke="#a580af" fill-opacity="1" stroke-opacity="1"/><path d="M198,538L176,687L404,640Z" fill="#a085c8" stroke="#a085c8" fill-opacity="1" stroke-opacity="1"/><path d="M198,538L404,640L434,524Z" fill="#ac9de2" stroke="#ac9de2" fill-opacity="1" stroke-opacity="1"/><path d="M434,524L404,640L549,539Z" fill="#9d8ddb" stroke="#9d8ddb" fill-opacity="1" stroke-opacity="1"/><path d="M549,539L404,640L570,696Z" fill="#8b78d4" stroke="#8b78d4" fill-opacity="1" stroke-opacity="1"/><path d="M549,539L570,696L680,627Z" fill="#7f6bcd" stroke="#7f6bcd" fill-opacity="1" stroke-opacity="1"/><path d="M549,539L680,627L678,542Z" fill="#8572ce" stroke="#8572ce" fill-opacity="1" stroke-opacity="1"/><path d="M678,542L680,627L787,615Z" fill="#7560c7" stroke="#7560c7" fill-opacity="1" stroke-opacity="1"/><path d="M678,542L787,615L828,485Z" fill="#7864c6" stroke="#7864c6" fill-opacity="1" stroke-opacity="1"/><path d="M828,485L787,615L976,557Z" fill="#6a54be" stroke="#6a54be" fill-opacity="1" stroke-opacity="1"/><path d="M976,557L787,615L956,731Z" fill="#533ab6" stroke="#533ab6" fill-opacity="1" stroke-opacity="1"/><path d="M976,557L956,731L1162,720Z" fill="#3c1faa" stroke="#3c1faa" fill-opacity="1" stroke-opacity="1"/><path d="M976,557L1162,720L1158,480Z" fill="#4329ab" stroke="#4329ab" fill-opacity="1" stroke-opacity="1"/><path d="M1158,480L1162,720L1239,560Z" fill="#381da4" stroke="#381da4" fill-opacity="1" stroke-opacity="1"/><path d="M1239,560L1162,720L1331,638Z" fill="#25119d" stroke="#25119d" fill-opacity="1" stroke-opacity="1"/><path d="M71,725L956,731L570,696Z" fill="#7461cd" stroke="#7461cd" fill-opacity="1" stroke-opacity="1"/><path d="M71,725L570,696L176,687Z" fill="#8f73c6" stroke="#8f73c6" fill-opacity="1" stroke-opacity="1"/><path d="M176,687L570,696L404,640Z" fill="#917fda" stroke="#917fda" fill-opacity="1" stroke-opacity="1"/><path d="M570,696L956,731L680,627Z" fill="#6048c0" stroke="#6048c0" fill-opacity="1" stroke-opacity="1"/><path d="M680,627L956,731L787,615Z" fill="#5c43bc" stroke="#5c43bc" fill-opacity="1" stroke-opacity="1"/></g></svg>