<?xml version="1.0" encoding="utf-8"?>
<!-- Generator: Adobe Illustrator 17.0.0, SVG Export Plug-In . SVG Version: 6.00 Build 0)  -->
<!DOCTYPE svg PUBLIC "-//W3C//DTD SVG 1.1//EN" "http://www.w3.org/Graphics/SVG/1.1/DTD/svg11.dtd">
<svg version="1.1" id="Layer_1" xmlns="http://www.w3.org/2000/svg" xmlns:xlink="http://www.w3.org/1999/xlink" x="0px" y="0px"
	 width="88.13px" height="104.503px" viewBox="0 0 88.13 104.503" enable-background="new 0 0 88.13 104.503" xml:space="preserve">
<g>
	<circle fill="none" stroke="#FFCA05" stroke-width="3" stroke-miterlimit="10" cx="44.065" cy="37.525" r="36.025"/>
	<circle fill="none" stroke="#FFCA05" stroke-width="3" stroke-miterlimit="10" cx="44.065" cy="37.525" r="29.938"/>
	<path fill="none" stroke="#FFCA05" stroke-width="3" stroke-miterlimit="10" d="M59.155,11.671
		c-3.043-1.78-6.426-3.036-10.031-3.65l2.668,8.273L59.155,11.671z"/>
	<path fill="none" stroke="#FFCA05" stroke-width="3" stroke-miterlimit="10" d="M39.006,8.021
		c-3.605,0.614-6.988,1.871-10.031,3.65l7.362,4.622L39.006,8.021z"/>
	<path fill="none" stroke="#FFCA05" stroke-width="3" stroke-miterlimit="10" d="M72.251,27.42
		c-1.223-3.411-3.048-6.532-5.346-9.242l-3.272,8.049L72.251,27.42z"/>
	<path fill="none" stroke="#FFCA05" stroke-width="3" stroke-miterlimit="10" d="M72.153,47.904c1.195-3.234,1.85-6.73,1.85-10.379
		c0-0.047-0.003-0.094-0.004-0.141l-7.684,4.064L72.153,47.904z"/>
	<path fill="none" stroke="#FFCA05" stroke-width="3" stroke-miterlimit="10" d="M21.226,18.178
		c-2.298,2.71-4.123,5.831-5.346,9.242l8.619-1.193L21.226,18.178z"/>
	<path fill="none" stroke="#FFCA05" stroke-width="3" stroke-miterlimit="10" d="M58.91,63.519c3.121-1.786,5.892-4.113,8.178-6.86
		l-8.5-1.826L58.91,63.519z"/>
	<path fill="none" stroke="#FFCA05" stroke-width="3" stroke-miterlimit="10" d="M38.729,66.979
		c1.733,0.312,3.514,0.484,5.336,0.484s3.604-0.172,5.336-0.484l-5.336-6.86L38.729,66.979z"/>
	<path fill="none" stroke="#FFCA05" stroke-width="3" stroke-miterlimit="10" d="M21.042,56.659c2.286,2.748,5.057,5.074,8.178,6.86
		l0.322-8.686L21.042,56.659z"/>
	<path fill="none" stroke="#FFCA05" stroke-width="3" stroke-miterlimit="10" d="M14.13,37.384c0,0.047-0.004,0.094-0.004,0.141
		c0,3.649,0.655,7.145,1.85,10.379l5.837-6.455L14.13,37.384z"/>
	<polygon fill="none" stroke="#FFCA05" stroke-width="3" stroke-miterlimit="10" points="44.065,12.289 48.381,25.668 
		60.286,18.193 54.992,31.216 68.917,33.143 56.491,39.716 65.92,50.143 52.176,47.191 52.696,61.238 44.065,50.143 35.434,61.238 
		35.955,47.191 22.211,50.143 31.639,39.716 19.213,33.143 33.138,31.216 27.844,18.193 39.75,25.668 	"/>
</g>
<g>
	<path fill="#FFFFFF" d="M11.456,91.195v-4.992H3.232v4.992H0V79.226h3.232v4.356h8.224v-4.356h3.232v11.969H11.456z"/>
	<path fill="#FFFFFF" d="M28.051,88.93h-6.673l-1.124,2.265h-3.607l6.264-11.969h3.607l6.264,11.969h-3.607L28.051,88.93z
		 M22.536,86.596h4.373l-2.178-4.408L22.536,86.596z"/>
	<path fill="#FFFFFF" d="M41.402,91.195h-3.763l-6.054-11.969h3.607l4.356,9.008l4.347-9.008H47.5L41.402,91.195z"/>
	<path fill="#FFFFFF" d="M49.46,91.195V79.226h3.232v11.969H49.46z"/>
	<path fill="#FFFFFF" d="M68.364,90.847c-0.424,0.139-0.862,0.26-1.315,0.362s-0.931,0.179-1.433,0.231S64.575,91.518,64,91.518
		c-1.22,0-2.342-0.131-3.367-0.392c-1.025-0.261-1.908-0.655-2.648-1.18s-1.317-1.182-1.729-1.969
		c-0.412-0.787-0.619-1.706-0.619-2.757s0.206-1.97,0.619-2.757c0.412-0.787,0.989-1.443,1.729-1.969s1.623-0.919,2.648-1.18
		c1.025-0.261,2.147-0.392,3.367-0.392c0.575,0,1.114,0.026,1.616,0.078s0.98,0.129,1.433,0.231
		c0.453,0.102,0.891,0.222,1.315,0.362c0.424,0.139,0.845,0.296,1.263,0.47v2.91c-0.331-0.18-0.679-0.359-1.045-0.536
		c-0.366-0.177-0.77-0.337-1.211-0.479c-0.441-0.142-0.926-0.258-1.455-0.348c-0.528-0.09-1.124-0.135-1.786-0.135
		c-1.016,0-1.86,0.105-2.531,0.314s-1.207,0.488-1.607,0.836c-0.401,0.348-0.682,0.748-0.845,1.198
		c-0.163,0.45-0.244,0.916-0.244,1.398c0,0.319,0.035,0.634,0.105,0.945s0.186,0.604,0.348,0.88c0.163,0.276,0.375,0.53,0.636,0.762
		c0.261,0.232,0.587,0.433,0.976,0.601c0.389,0.168,0.844,0.301,1.363,0.396c0.52,0.096,1.119,0.144,1.799,0.144
		c0.662,0,1.257-0.042,1.786-0.126c0.528-0.084,1.013-0.196,1.455-0.335c0.441-0.139,0.845-0.298,1.211-0.475
		c0.366-0.177,0.714-0.359,1.045-0.544v2.91C69.209,90.551,68.788,90.708,68.364,90.847z"/>
	<path fill="#FFFFFF" d="M88.13,85.219c0,1.028-0.189,1.935-0.566,2.722s-0.918,1.445-1.62,1.973
		c-0.703,0.528-1.555,0.928-2.557,1.198c-1.002,0.27-2.127,0.405-3.376,0.405c-1.249,0-2.377-0.135-3.384-0.405
		c-1.008-0.27-1.866-0.669-2.574-1.198c-0.709-0.528-1.254-1.186-1.638-1.973c-0.383-0.787-0.575-1.694-0.575-2.722
		s0.192-1.935,0.575-2.722c0.383-0.787,0.929-1.445,1.638-1.973c0.709-0.528,1.567-0.928,2.574-1.198
		c1.008-0.27,2.136-0.405,3.384-0.405c1.249,0,2.374,0.135,3.376,0.405c1.002,0.27,1.854,0.669,2.557,1.198
		c0.703,0.528,1.243,1.186,1.62,1.973C87.941,83.284,88.13,84.191,88.13,85.219z M84.863,85.219c0-0.447-0.071-0.893-0.213-1.337
		c-0.142-0.444-0.395-0.844-0.758-1.198s-0.858-0.642-1.485-0.862s-1.426-0.331-2.396-0.331c-0.65,0-1.223,0.051-1.716,0.152
		c-0.494,0.102-0.921,0.242-1.281,0.423c-0.36,0.18-0.662,0.391-0.906,0.632c-0.244,0.241-0.438,0.499-0.584,0.775
		c-0.145,0.276-0.248,0.563-0.309,0.862c-0.061,0.299-0.091,0.594-0.091,0.884c0,0.296,0.03,0.595,0.091,0.897
		s0.164,0.591,0.309,0.867c0.145,0.276,0.34,0.533,0.584,0.771s0.546,0.446,0.906,0.623c0.36,0.177,0.787,0.317,1.281,0.418
		c0.494,0.102,1.066,0.152,1.716,0.152c0.97,0,1.768-0.11,2.396-0.331c0.627-0.221,1.122-0.508,1.485-0.862s0.616-0.754,0.758-1.198
		C84.792,86.112,84.863,85.667,84.863,85.219z"/>
</g>
<g>
	<path fill="#FFFFFF" d="M11.525,101.844c-0.146,1.466-1.356,2.658-3.236,2.658c-2.127,0-3.484-1.339-3.484-3.438
		c0-1.494,0.926-3.438,3.484-3.438c1.43,0,2.979,0.651,3.181,2.375h-0.678c-0.202-1.247-1.32-1.751-2.503-1.751
		c-1.623,0-2.75,0.908-2.75,2.814c0,1.458,0.761,2.814,2.75,2.814c1.558,0,2.329-0.788,2.558-2.035H11.525z"/>
	<path fill="#FFFFFF" d="M16.54,97.627c1.861,0,3.557,1.127,3.557,3.438s-1.696,3.438-3.557,3.438c-1.861,0-3.557-1.128-3.557-3.438
		S14.679,97.627,16.54,97.627z M16.54,103.879c1.44,0,2.824-0.843,2.824-2.814c0-1.971-1.384-2.814-2.824-2.814
		c-1.439,0-2.823,0.843-2.823,2.814C13.717,103.036,15.101,103.879,16.54,103.879z"/>
	<path fill="#FFFFFF" d="M21.894,97.792h3.566c1.109,0,2.127,0.394,2.127,1.769c0,0.697-0.431,1.394-1.283,1.586v0.018
		c0.926,0.147,1.118,0.743,1.164,1.815c0.019,0.413,0.074,1.211,0.23,1.357h-0.734c-0.119-0.138-0.165-0.623-0.174-1.339
		c-0.018-1.155-0.458-1.54-1.586-1.54h-2.631v2.879h-0.679V97.792z M22.572,100.835h2.869c0.743,0,1.412-0.275,1.412-1.274
		c0-0.963-0.724-1.146-1.348-1.146h-2.934V100.835z"/>
	<path fill="#FFFFFF" d="M29.42,97.792h3.53c1.008,0,1.971,0.504,1.971,1.888c0,1.238-0.816,1.907-2.274,1.907h-2.548v2.75H29.42
		V97.792z M30.099,100.964h2.622c1.137,0,1.467-0.522,1.467-1.283c0-0.981-0.55-1.265-1.329-1.265h-2.759V100.964z"/>
	<path fill="#FFFFFF" d="M39.797,97.627c1.861,0,3.557,1.127,3.557,3.438s-1.696,3.438-3.557,3.438s-3.557-1.128-3.557-3.438
		S37.936,97.627,39.797,97.627z M39.797,103.879c1.44,0,2.824-0.843,2.824-2.814c0-1.971-1.384-2.814-2.824-2.814
		c-1.439,0-2.823,0.843-2.823,2.814C36.974,103.036,38.358,103.879,39.797,103.879z"/>
	<path fill="#FFFFFF" d="M45.151,97.792h3.566c1.109,0,2.127,0.394,2.127,1.769c0,0.697-0.431,1.394-1.283,1.586v0.018
		c0.926,0.147,1.118,0.743,1.164,1.815c0.018,0.413,0.074,1.211,0.23,1.357h-0.734c-0.119-0.138-0.165-0.623-0.174-1.339
		c-0.018-1.155-0.458-1.54-1.586-1.54H45.83v2.879h-0.679V97.792z M45.83,100.835h2.869c0.743,0,1.412-0.275,1.412-1.274
		c0-0.963-0.724-1.146-1.348-1.146H45.83V100.835z"/>
	<path fill="#FFFFFF" d="M56.978,102.348h-3.447l-0.889,1.989h-0.733l2.97-6.545h0.789l2.97,6.545h-0.789L56.978,102.348z
		 M55.263,98.47l-1.457,3.255h2.897L55.263,98.47z"/>
	<path fill="#FFFFFF" d="M61.36,98.415h-2.567v-0.623h5.812v0.623h-2.567v5.922H61.36V98.415z"/>
	<path fill="#FFFFFF" d="M65.998,97.792h0.679v6.545h-0.679V97.792z"/>
	<path fill="#FFFFFF" d="M71.993,97.627c1.861,0,3.557,1.127,3.557,3.438s-1.696,3.438-3.557,3.438s-3.557-1.128-3.557-3.438
		S70.132,97.627,71.993,97.627z M71.993,103.879c1.44,0,2.824-0.843,2.824-2.814c0-1.971-1.384-2.814-2.824-2.814
		c-1.439,0-2.823,0.843-2.823,2.814C69.17,103.036,70.554,103.879,71.993,103.879z"/>
	<path fill="#FFFFFF" d="M77.237,97.792h0.816l4.574,5.592h0.019v-5.592h0.678v6.545h-0.789l-4.602-5.592h-0.018v5.592h-0.678
		V97.792z"/>
</g>
</svg>
