<?xml version="1.0" encoding="utf-8"?>
<!-- Generator: Adobe Illustrator 17.0.0, SVG Export Plug-In . SVG Version: 6.00 Build 0)  -->
<!DOCTYPE svg PUBLIC "-//W3C//DTD SVG 1.1//EN" "http://www.w3.org/Graphics/SVG/1.1/DTD/svg11.dtd">
<svg version="1.1" id="Layer_1" xmlns="http://www.w3.org/2000/svg" xmlns:xlink="http://www.w3.org/1999/xlink" x="0px" y="0px"
	 width="110.2px" height="142.264px" viewBox="-13.553 -17.825 110.2 142.264"
	 enable-background="new -13.553 -17.825 110.2 142.264" xml:space="preserve">
<circle fill="#336601" cx="41.547" cy="37.275" r="55.1"/>
<g>
	<circle fill="none" stroke="#FFD905" stroke-width="2.5" stroke-miterlimit="10" cx="41.547" cy="37.275" r="36.025"/>
	<circle fill="none" stroke="#FFD905" stroke-width="2.5" stroke-miterlimit="10" cx="41.547" cy="37.275" r="29.938"/>
	<path fill="none" stroke="#FFD905" stroke-width="2.5" stroke-miterlimit="10" d="M56.637,11.421
		c-3.043-1.78-6.426-3.036-10.031-3.65l2.668,8.273L56.637,11.421z"/>
	<path fill="none" stroke="#FFD905" stroke-width="2.5" stroke-miterlimit="10" d="M36.488,7.771
		c-3.605,0.614-6.988,1.871-10.031,3.65l7.362,4.622L36.488,7.771z"/>
	<path fill="none" stroke="#FFD905" stroke-width="2.5" stroke-miterlimit="10" d="M69.733,27.17
		c-1.223-3.411-3.048-6.532-5.346-9.242l-3.272,8.049L69.733,27.17z"/>
	<path fill="none" stroke="#FFD905" stroke-width="2.5" stroke-miterlimit="10" d="M69.635,47.654
		c1.195-3.234,1.85-6.73,1.85-10.379c0-0.047-0.003-0.094-0.004-0.141l-7.684,4.064L69.635,47.654z"/>
	<path fill="none" stroke="#FFD905" stroke-width="2.5" stroke-miterlimit="10" d="M18.708,17.928
		c-2.298,2.71-4.123,5.831-5.346,9.242l8.619-1.193L18.708,17.928z"/>
	<path fill="none" stroke="#FFD905" stroke-width="2.5" stroke-miterlimit="10" d="M56.392,63.269
		c3.121-1.786,5.892-4.113,8.178-6.86l-8.5-1.826L56.392,63.269z"/>
	<path fill="none" stroke="#FFD905" stroke-width="2.5" stroke-miterlimit="10" d="M36.211,66.729
		c1.733,0.312,3.514,0.484,5.336,0.484s3.604-0.172,5.336-0.484l-5.336-6.86L36.211,66.729z"/>
	<path fill="none" stroke="#FFD905" stroke-width="2.5" stroke-miterlimit="10" d="M18.524,56.409
		c2.286,2.748,5.057,5.074,8.178,6.86l0.322-8.686L18.524,56.409z"/>
	<path fill="none" stroke="#FFD905" stroke-width="2.5" stroke-miterlimit="10" d="M11.612,37.134c0,0.047-0.004,0.094-0.004,0.141
		c0,3.649,0.655,7.145,1.85,10.379l5.837-6.455L11.612,37.134z"/>
	<polygon fill="none" stroke="#FFD905" stroke-width="2.5" stroke-miterlimit="10" points="41.547,12.039 45.863,25.418 
		57.768,17.943 52.474,30.966 66.399,32.893 53.973,39.466 63.402,49.893 49.658,46.941 50.178,60.988 41.547,49.893 32.916,60.988 
		33.437,46.941 19.693,49.893 29.121,39.466 16.695,32.893 30.62,30.966 25.326,17.943 37.232,25.418 	"/>
</g>
<g>
	<path fill="#336601" d="M10.801,111.892v-4.706H3.047v4.706H0v-11.286h3.047v4.107h7.754v-4.107h3.047v11.286H10.801z"/>
	<path fill="#336601" d="M26.448,109.756h-6.292l-1.06,2.136h-3.4l5.906-11.286h3.4l5.906,11.286h-3.4L26.448,109.756z
		 M21.249,107.555h4.123l-2.053-4.156L21.249,107.555z"/>
	<path fill="#336601" d="M39.036,111.892h-3.548l-5.708-11.286h3.4l4.107,8.493l4.099-8.493h3.4L39.036,111.892z"/>
	<path fill="#336601" d="M46.634,111.892v-11.286h3.047v11.286H46.634z"/>
	<path fill="#336601" d="M64.457,111.563c-0.4,0.131-0.813,0.245-1.24,0.341s-0.877,0.168-1.351,0.218
		c-0.474,0.049-0.982,0.074-1.524,0.074c-1.15,0-2.208-0.123-3.175-0.37c-0.966-0.246-1.799-0.617-2.497-1.113
		s-1.242-1.114-1.63-1.856c-0.389-0.742-0.583-1.608-0.583-2.6s0.194-1.858,0.583-2.6s0.932-1.361,1.63-1.856
		c0.698-0.496,1.53-0.867,2.497-1.113c0.966-0.246,2.025-0.37,3.175-0.37c0.542,0,1.05,0.025,1.524,0.074
		c0.474,0.049,0.924,0.122,1.351,0.218s0.841,0.209,1.24,0.341c0.4,0.131,0.797,0.279,1.191,0.444v2.743
		c-0.312-0.17-0.641-0.338-0.986-0.505s-0.726-0.318-1.142-0.452s-0.873-0.244-1.372-0.329c-0.498-0.085-1.06-0.127-1.684-0.127
		c-0.958,0-1.754,0.099-2.386,0.296s-1.138,0.46-1.515,0.789s-0.643,0.705-0.797,1.129c-0.153,0.424-0.23,0.864-0.23,1.318
		c0,0.301,0.033,0.598,0.099,0.891s0.175,0.569,0.329,0.83c0.153,0.26,0.353,0.5,0.6,0.719c0.246,0.219,0.553,0.408,0.92,0.567
		s0.795,0.283,1.285,0.374c0.49,0.09,1.055,0.136,1.696,0.136c0.624,0,1.185-0.04,1.684-0.119s0.956-0.185,1.372-0.316
		s0.797-0.281,1.142-0.448s0.674-0.338,0.986-0.513v2.743C65.254,111.284,64.857,111.432,64.457,111.563z"/>
	<path fill="#336601" d="M83.094,106.257c0,0.969-0.178,1.825-0.534,2.567c-0.356,0.742-0.865,1.362-1.528,1.86
		s-1.466,0.875-2.411,1.129c-0.945,0.255-2.005,0.382-3.183,0.382c-1.177,0-2.241-0.127-3.191-0.382s-1.759-0.631-2.427-1.129
		s-1.183-1.118-1.544-1.86c-0.361-0.742-0.542-1.598-0.542-2.567s0.181-1.825,0.542-2.567c0.361-0.742,0.876-1.362,1.544-1.86
		s1.477-0.875,2.427-1.129c0.95-0.255,2.014-0.382,3.191-0.382s2.238,0.127,3.183,0.382c0.945,0.255,1.748,0.631,2.411,1.129
		s1.172,1.118,1.528,1.86C82.916,104.432,83.094,105.288,83.094,106.257z M80.014,106.257c0-0.422-0.067-0.842-0.201-1.261
		c-0.134-0.419-0.372-0.795-0.715-1.129c-0.342-0.334-0.809-0.605-1.4-0.813s-1.344-0.312-2.259-0.312
		c-0.613,0-1.153,0.048-1.618,0.144s-0.868,0.229-1.207,0.398c-0.339,0.17-0.624,0.368-0.854,0.595
		c-0.23,0.227-0.413,0.471-0.55,0.731s-0.234,0.531-0.292,0.813c-0.057,0.282-0.086,0.56-0.086,0.834
		c0,0.279,0.029,0.561,0.086,0.846s0.155,0.557,0.292,0.817s0.32,0.502,0.55,0.727s0.515,0.42,0.854,0.587
		c0.34,0.167,0.742,0.298,1.207,0.394c0.465,0.096,1.005,0.144,1.618,0.144c0.914,0,1.667-0.104,2.259-0.312
		c0.591-0.208,1.058-0.479,1.4-0.813c0.342-0.334,0.58-0.71,0.715-1.129C79.947,107.099,80.014,106.679,80.014,106.257z"/>
</g>
<g>
	<path fill="#336601" d="M10.867,121.932c-0.138,1.382-1.279,2.507-3.051,2.507c-2.006,0-3.285-1.262-3.285-3.242
		c0-1.409,0.873-3.241,3.285-3.241c1.348,0,2.809,0.614,2.999,2.239h-0.639c-0.19-1.176-1.245-1.651-2.36-1.651
		c-1.53,0-2.593,0.856-2.593,2.653c0,1.375,0.717,2.653,2.593,2.653c1.469,0,2.195-0.743,2.411-1.918H10.867z"/>
	<path fill="#336601" d="M15.595,117.955c1.755,0,3.354,1.063,3.354,3.241s-1.599,3.242-3.354,3.242s-3.354-1.063-3.354-3.242
		S13.84,117.955,15.595,117.955z M15.595,123.85c1.357,0,2.662-0.795,2.662-2.653s-1.305-2.653-2.662-2.653
		s-2.662,0.795-2.662,2.653C12.933,123.055,14.238,123.85,15.595,123.85z"/>
	<path fill="#336601" d="M20.642,118.111h3.362c1.046,0,2.005,0.372,2.005,1.668c0,0.657-0.406,1.314-1.21,1.495v0.017
		c0.873,0.139,1.055,0.7,1.097,1.711c0.018,0.389,0.069,1.141,0.216,1.279H25.42c-0.112-0.13-0.155-0.588-0.164-1.262
		c-0.017-1.089-0.432-1.452-1.495-1.452h-2.48v2.714h-0.64L20.642,118.111L20.642,118.111z M21.282,120.981h2.705
		c0.7,0,1.331-0.259,1.331-1.202c0-0.908-0.683-1.08-1.271-1.08h-2.766v2.282H21.282z"/>
	<path fill="#336601" d="M27.739,118.111h3.328c0.951,0,1.858,0.475,1.858,1.78c0,1.167-0.769,1.798-2.144,1.798h-2.403v2.593h-0.64
		L27.739,118.111L27.739,118.111z M28.379,121.102h2.472c1.072,0,1.383-0.493,1.383-1.21c0-0.925-0.519-1.193-1.253-1.193h-2.602
		C28.379,118.699,28.379,121.102,28.379,121.102z"/>
	<path fill="#336601" d="M37.523,117.955c1.755,0,3.354,1.063,3.354,3.241s-1.599,3.242-3.354,3.242s-3.354-1.063-3.354-3.242
		S35.769,117.955,37.523,117.955z M37.523,123.85c1.357,0,2.662-0.795,2.662-2.653s-1.305-2.653-2.662-2.653
		s-2.662,0.795-2.662,2.653S36.166,123.85,37.523,123.85z"/>
	<path fill="#336601" d="M42.571,118.111h3.362c1.046,0,2.005,0.372,2.005,1.668c0,0.657-0.406,1.314-1.21,1.495v0.017
		c0.873,0.139,1.055,0.7,1.097,1.711c0.017,0.389,0.069,1.141,0.216,1.279h-0.692c-0.112-0.13-0.155-0.588-0.164-1.262
		c-0.017-1.089-0.432-1.452-1.495-1.452h-2.48v2.714h-0.64L42.571,118.111L42.571,118.111z M43.211,120.981h2.705
		c0.7,0,1.331-0.259,1.331-1.202c0-0.908-0.683-1.08-1.271-1.08H43.21L43.211,120.981L43.211,120.981z"/>
	<path fill="#336601" d="M53.722,122.407h-3.25l-0.839,1.875h-0.691l2.8-6.171h0.743l2.8,6.171h-0.743L53.722,122.407z
		 M52.105,118.751l-1.374,3.069h2.731L52.105,118.751z"/>
	<path fill="#336601" d="M57.853,118.699h-2.42v-0.588h5.48v0.588h-2.42v5.584h-0.639L57.853,118.699L57.853,118.699z"/>
	<path fill="#336601" d="M62.227,118.111h0.64v6.171h-0.64V118.111z"/>
	<path fill="#336601" d="M67.88,117.955c1.755,0,3.354,1.063,3.354,3.241s-1.599,3.242-3.354,3.242
		c-1.755,0-3.354-1.063-3.354-3.242S66.125,117.955,67.88,117.955z M67.88,123.85c1.357,0,2.662-0.795,2.662-2.653
		s-1.305-2.653-2.662-2.653s-2.662,0.795-2.662,2.653C65.218,123.055,66.523,123.85,67.88,123.85z"/>
	<path fill="#336601" d="M72.824,118.111h0.769l4.313,5.272h0.018v-5.272h0.639v6.171H77.82l-4.339-5.272h-0.017v5.272h-0.639
		v-6.171H72.824z"/>
</g>
</svg>
