<?xml version="1.0" encoding="utf-8"?>
<!-- Generator: Adobe Illustrator 17.0.0, SVG Export Plug-In . SVG Version: 6.00 Build 0)  -->
<!DOCTYPE svg PUBLIC "-//W3C//DTD SVG 1.1//EN" "http://www.w3.org/Graphics/SVG/1.1/DTD/svg11.dtd">
<svg version="1.1" id="Layer_1" xmlns="http://www.w3.org/2000/svg" xmlns:xlink="http://www.w3.org/1999/xlink" x="0px" y="0px"
	 width="112px" height="203px" viewBox="0 0 112 203" enable-background="new 0 0 112 203" xml:space="preserve">
<g>
	<path fill="#336601" d="M41.943,81.829c0,5.329-1.513,10.081-10.081,10.081c-6.553,0-9.865-3.312-9.865-9.505V49.786
		c0-6.337,2.952-10.297,10.081-10.297c7.272,0,9.865,3.889,9.865,10.585v8.425h-7.633V48.85c0-1.8-0.216-3.24-2.305-3.24
		c-2.088,0-2.376,1.44-2.376,3.24v13.681c1.368-1.44,3.601-2.448,5.688-2.448c3.024,0,6.625,1.152,6.625,8.137V81.829z
		 M34.311,70.02c0-1.8-0.433-3.024-2.448-3.024c-1.8,0-2.232,1.512-2.232,3.024v11.449c0,2.088,0,4.32,2.521,4.32
		c2.088,0,2.16-1.8,2.16-3.312V70.02z"/>
	<path fill="#336601" d="M64.479,40.065V72.18h3.024V78.3h-3.024v13.033h-7.272V78.3H44.389v-5.329l9.289-32.907H64.479z
		 M57.206,72.18V46.545h-0.145c-1.655,8.713-3.672,17.282-6.336,25.634H57.206z"/>
	<path fill="#336601" d="M69.948,49.786c0-7.921,3.601-10.297,9.938-10.297c6.336,0,10.009,2.376,10.009,10.297v32.187
		c0,6.841-3.601,9.937-10.369,9.937c-5.473,0-9.577-3.168-9.577-9.937V49.786z M77.581,81.685c0,1.944,0.145,4.104,2.448,4.104
		c2.088,0,2.232-2.376,2.232-3.816V48.85c0-2.016-1.008-3.24-2.521-3.24c-1.152,0-2.16,1.224-2.16,3.24V81.685z"/>
</g>
<g>
	<path fill="#39B54A" d="M48.143,120.75h-0.439l-1.975-4.682c-0.273-0.645-0.547-1.346-0.82-2.104h-0.047
		c0.055,1.09,0.082,2.088,0.082,2.994v3.791h-0.955v-7.84h1.377l1.846,4.436c0.211,0.508,0.443,1.119,0.697,1.834h0.029
		c0.281-0.793,0.514-1.404,0.697-1.834l1.846-4.436h1.377v7.84h-0.955v-3.791c0-0.887,0.027-1.885,0.082-2.994h-0.047
		c-0.289,0.801-0.562,1.502-0.82,2.104L48.143,120.75z"/>
	<path fill="#39B54A" d="M53.059,120.75l3.193-7.84h0.826l3.193,7.84h-1.037l-0.937-2.361H55.02l-0.936,2.361H53.059z
		 M56.65,111.785c0.109,0,0.22-0.015,0.331-0.044s0.214-0.077,0.308-0.144s0.174-0.151,0.24-0.255s0.111-0.229,0.135-0.378h0.779
		c-0.027,0.25-0.092,0.47-0.193,0.659s-0.231,0.349-0.39,0.478s-0.341,0.227-0.548,0.293s-0.428,0.1-0.662,0.1
		s-0.455-0.033-0.662-0.1s-0.39-0.164-0.548-0.293s-0.288-0.288-0.39-0.478s-0.166-0.409-0.193-0.659h0.779
		c0.023,0.148,0.068,0.274,0.135,0.378s0.146,0.188,0.24,0.255s0.196,0.114,0.308,0.144S56.541,111.785,56.65,111.785z
		 M56.656,114.129c-0.35,0.976-0.684,1.862-1.002,2.66l-0.293,0.738h2.598l-0.297-0.738c-0.321-0.812-0.649-1.699-0.982-2.661
		H56.656z M56.135,122.59v-1.014h0.955v1.014H56.135z"/>
	<path fill="#39B54A" d="M63.641,120.75h-0.955v-6.979h-2.619v-0.861h6.193v0.861h-2.619V120.75z"/>
	<path fill="#39B54A" d="M30.91,131.154c0,0.375-0.039,0.73-0.117,1.066s-0.189,0.646-0.334,0.929s-0.317,0.536-0.519,0.759
		s-0.423,0.41-0.665,0.562v0.023c0.324-0.051,0.631-0.09,0.92-0.117s0.582-0.037,0.879-0.029v0.861
		c-0.184-0.012-0.383-0.024-0.598-0.038s-0.463-0.021-0.744-0.021c-0.211,0-0.424,0.006-0.639,0.018s-0.428,0.025-0.639,0.041
		s-0.418,0.029-0.621,0.041s-0.396,0.018-0.58,0.018c-0.582,0-1.103-0.098-1.562-0.293s-0.847-0.47-1.163-0.823
		s-0.559-0.778-0.727-1.274s-0.252-1.043-0.252-1.641s0.087-1.146,0.261-1.644s0.42-0.927,0.738-1.286s0.704-0.64,1.157-0.841
		s0.961-0.302,1.523-0.302c0.574,0,1.089,0.101,1.544,0.302s0.841,0.479,1.157,0.835s0.559,0.777,0.727,1.266
		S30.91,130.583,30.91,131.154z M29.902,131.236c0-0.527-0.068-0.992-0.205-1.395s-0.325-0.738-0.565-1.008s-0.523-0.474-0.85-0.612
		s-0.677-0.208-1.052-0.208s-0.726,0.069-1.052,0.208s-0.609,0.343-0.85,0.612s-0.429,0.605-0.565,1.008s-0.205,0.867-0.205,1.395
		s0.069,0.991,0.208,1.392s0.328,0.735,0.568,1.005s0.523,0.473,0.85,0.609s0.679,0.205,1.058,0.205
		c0.375,0,0.724-0.068,1.046-0.205s0.604-0.34,0.844-0.609s0.429-0.604,0.565-1.005S29.902,131.763,29.902,131.236z"/>
	<path fill="#39B54A" d="M35.744,134.447c0.285,0,0.538-0.033,0.759-0.1s0.413-0.16,0.577-0.281s0.301-0.267,0.41-0.437
		s0.193-0.358,0.252-0.565c0.039-0.129,0.066-0.272,0.082-0.431s0.023-0.312,0.023-0.46v-4.863h0.955v4.84
		c0,0.184-0.01,0.375-0.029,0.574s-0.051,0.385-0.094,0.557c-0.074,0.289-0.186,0.557-0.334,0.803s-0.342,0.459-0.58,0.639
		s-0.524,0.32-0.858,0.422s-0.726,0.152-1.175,0.152c-0.43,0-0.807-0.047-1.131-0.141s-0.603-0.224-0.835-0.39
		s-0.423-0.363-0.571-0.592s-0.264-0.478-0.346-0.747c-0.059-0.195-0.101-0.404-0.126-0.627s-0.038-0.439-0.038-0.65v-4.84h0.955
		v4.863c0,0.176,0.013,0.356,0.038,0.542s0.065,0.354,0.12,0.507c0.137,0.379,0.364,0.678,0.683,0.896
		S35.221,134.447,35.744,134.447z"/>
	<path fill="#39B54A" d="M39.975,135.15l3.193-7.84h0.826l3.193,7.84H46.15l-0.937-2.361h-3.278L41,135.15H39.975z M43.572,128.529
		c-0.35,0.976-0.684,1.862-1.002,2.66l-0.293,0.738h2.598l-0.297-0.738c-0.321-0.812-0.649-1.699-0.982-2.661H43.572z
		 M43.016,126.085c0.145-0.008,0.274-0.017,0.39-0.026s0.214-0.027,0.296-0.053s0.145-0.062,0.188-0.111s0.064-0.114,0.064-0.196
		c0-0.074-0.021-0.134-0.062-0.179s-0.093-0.079-0.155-0.103s-0.133-0.038-0.211-0.044s-0.154-0.009-0.229-0.009
		c-0.148,0-0.277,0.011-0.387,0.032s-0.197,0.044-0.264,0.067v-0.627c0.07-0.031,0.166-0.058,0.287-0.079s0.283-0.032,0.486-0.032
		c0.137,0,0.278,0.015,0.425,0.044s0.28,0.082,0.401,0.158s0.221,0.178,0.299,0.305s0.117,0.288,0.117,0.483
		c0,0.148-0.024,0.272-0.073,0.372s-0.115,0.181-0.199,0.243s-0.182,0.111-0.293,0.146s-0.229,0.064-0.354,0.088l-0.053,0.328
		h-0.545L43.016,126.085z"/>
	<path fill="#39B54A" d="M52.414,131.681c0.48,0.691,0.955,1.402,1.424,2.133h0.035c-0.051-0.762-0.076-1.539-0.076-2.332v-4.172
		h0.961v7.84h-0.955l-3.076-4.371c-0.531-0.762-1.006-1.473-1.424-2.133h-0.035c0.051,0.715,0.076,1.549,0.076,2.502v4.002h-0.955
		v-7.84h0.949L52.414,131.681z"/>
	<path fill="#39B54A" d="M61.871,131.98h-1.787v-0.861h2.742v3.791c-0.082,0.043-0.202,0.087-0.36,0.132s-0.339,0.087-0.542,0.126
		s-0.421,0.07-0.653,0.094s-0.462,0.035-0.688,0.035c-0.672,0-1.265-0.092-1.778-0.275s-0.944-0.443-1.292-0.779
		s-0.611-0.744-0.791-1.225s-0.27-1.016-0.27-1.605c0-0.641,0.099-1.223,0.295-1.746c0.197-0.523,0.482-0.971,0.855-1.342
		c0.374-0.371,0.825-0.657,1.354-0.858s1.112-0.302,1.749-0.302c0.172,0,0.344,0.007,0.516,0.021s0.336,0.033,0.492,0.059
		s0.301,0.056,0.434,0.091s0.244,0.072,0.334,0.111v0.844c-0.234-0.078-0.504-0.144-0.809-0.196s-0.609-0.079-0.914-0.079
		c-0.445,0-0.87,0.067-1.274,0.202s-0.761,0.339-1.069,0.612s-0.555,0.616-0.738,1.028s-0.275,0.896-0.275,1.45
		c0,0.543,0.076,1.012,0.229,1.406s0.368,0.721,0.646,0.979c0.279,0.258,0.618,0.448,1.016,0.571s0.84,0.185,1.327,0.185
		c0.226,0,0.448-0.012,0.668-0.035s0.414-0.057,0.585-0.1V131.98z"/>
	<path fill="#39B54A" d="M70.481,128.013c-0.438,0-0.849,0.069-1.23,0.208s-0.713,0.346-0.994,0.621
		c-0.28,0.275-0.502,0.617-0.664,1.025s-0.243,0.884-0.243,1.427c0,0.539,0.075,1.007,0.226,1.403
		c0.149,0.396,0.363,0.725,0.641,0.984c0.276,0.26,0.609,0.452,0.999,0.577s0.823,0.188,1.302,0.188
		c0.131,0,0.269-0.007,0.415-0.021s0.294-0.033,0.442-0.059s0.292-0.055,0.433-0.088s0.266-0.069,0.377-0.108v0.844
		c-0.23,0.09-0.498,0.159-0.803,0.208s-0.617,0.073-0.938,0.073c-0.652,0-1.23-0.091-1.734-0.272s-0.927-0.442-1.269-0.782
		s-0.601-0.755-0.776-1.245s-0.264-1.046-0.264-1.667c0-0.609,0.093-1.17,0.278-1.682s0.453-0.951,0.803-1.318
		s0.773-0.653,1.271-0.858s1.058-0.308,1.679-0.308c0.164,0,0.326,0.007,0.486,0.021s0.313,0.033,0.46,0.059
		s0.282,0.056,0.407,0.091s0.232,0.072,0.322,0.111v0.844c-0.237-0.078-0.497-0.144-0.777-0.196
		C71.049,128.04,70.767,128.013,70.481,128.013z"/>
	<path fill="#39B54A" d="M72.975,135.15l3.193-7.84h0.826l3.193,7.84H79.15l-0.937-2.361h-3.278L74,135.15H72.975z M76.572,128.529
		c-0.35,0.976-0.684,1.862-1.002,2.66l-0.293,0.738h2.598l-0.297-0.738c-0.321-0.812-0.649-1.699-0.982-2.661H76.572z
		 M78.107,125.447l-1.061,1.447h-0.814l0.855-1.447H78.107z"/>
	<path fill="#39B54A" d="M88.279,131.236c0,0.594-0.086,1.139-0.256,1.635c-0.171,0.496-0.415,0.924-0.732,1.283
		c-0.318,0.359-0.7,0.64-1.148,0.841c-0.447,0.201-0.948,0.302-1.502,0.302c-0.574,0-1.087-0.101-1.541-0.302
		c-0.453-0.201-0.837-0.481-1.15-0.841c-0.314-0.359-0.555-0.787-0.721-1.283c-0.167-0.496-0.25-1.041-0.25-1.635
		c0-0.598,0.086-1.146,0.259-1.644c0.172-0.498,0.416-0.927,0.732-1.286c0.315-0.359,0.698-0.64,1.147-0.841
		s0.953-0.302,1.512-0.302c0.569,0,1.08,0.101,1.531,0.302s0.834,0.481,1.148,0.841c0.313,0.359,0.554,0.788,0.721,1.286
		C88.195,130.09,88.279,130.638,88.279,131.236z M87.33,131.236c0-0.527-0.069-0.992-0.208-1.395
		c-0.138-0.402-0.328-0.738-0.571-1.008s-0.529-0.474-0.858-0.612c-0.33-0.139-0.685-0.208-1.063-0.208s-0.733,0.069-1.063,0.208
		s-0.616,0.343-0.859,0.612c-0.242,0.27-0.433,0.605-0.571,1.008s-0.207,0.867-0.207,1.395s0.069,0.991,0.21,1.392
		s0.332,0.735,0.574,1.005c0.243,0.27,0.529,0.473,0.859,0.609s0.687,0.205,1.069,0.205c0.379,0,0.731-0.068,1.058-0.205
		c0.325-0.137,0.609-0.34,0.853-0.609s0.434-0.604,0.571-1.005C87.261,132.227,87.33,131.763,87.33,131.236z"/>
	<path fill="#39B54A" d="M19.168,149.55h-0.955v-6.979h-2.619v-0.861h6.193v0.861h-2.619V149.55z"/>
	<path fill="#39B54A" d="M23.973,146.304v3.246h-0.955v-7.84h2.03c0.344,0,0.636,0.013,0.875,0.038
		c0.24,0.025,0.46,0.065,0.659,0.12c0.546,0.148,0.964,0.401,1.252,0.759c0.289,0.357,0.434,0.804,0.434,1.339
		c0,0.316-0.051,0.6-0.152,0.85s-0.244,0.467-0.428,0.65s-0.403,0.334-0.659,0.451s-0.54,0.203-0.853,0.258v0.023l2.32,3.352h-0.955
		l-2.414-3.246H23.973z M23.973,142.571v2.871h0.943c0.293,0,0.543-0.01,0.75-0.029s0.393-0.055,0.557-0.105
		c0.332-0.102,0.588-0.264,0.768-0.486s0.27-0.514,0.27-0.873c-0.004-0.336-0.09-0.606-0.258-0.812s-0.4-0.353-0.697-0.442
		c-0.141-0.043-0.309-0.074-0.504-0.094s-0.443-0.029-0.744-0.029H23.973z"/>
	<path fill="#39B54A" d="M31.074,148.688h4.02v0.861h-4.975v-7.84h4.758v0.861h-3.803v2.531h3.381v0.861h-3.381V148.688z
		 M32.973,139.847l1.266,1.447h-0.926l-0.803-0.885h-0.023l-0.797,0.885h-0.926l1.266-1.447H32.973z"/>
	<path fill="#39B54A" d="M40.76,146.081c0.48,0.691,0.955,1.402,1.424,2.133h0.035c-0.051-0.762-0.076-1.539-0.076-2.332v-4.172
		h0.961v7.84h-0.955l-3.076-4.371c-0.531-0.762-1.006-1.473-1.424-2.133h-0.035c0.051,0.715,0.076,1.549,0.076,2.502v4.002h-0.955
		v-7.84h0.949L40.76,146.081z"/>
	<path fill="#39B54A" d="M50.812,142.413c-0.438,0-0.849,0.069-1.23,0.208s-0.713,0.346-0.994,0.621
		c-0.28,0.275-0.502,0.617-0.664,1.025s-0.243,0.884-0.243,1.427c0,0.539,0.075,1.007,0.226,1.403
		c0.149,0.396,0.363,0.725,0.641,0.984c0.276,0.26,0.609,0.452,0.999,0.577s0.823,0.188,1.302,0.188
		c0.131,0,0.269-0.007,0.415-0.021s0.294-0.033,0.442-0.059s0.292-0.055,0.433-0.088s0.266-0.069,0.377-0.108v0.844
		c-0.23,0.09-0.498,0.159-0.803,0.208s-0.617,0.073-0.938,0.073c-0.652,0-1.23-0.091-1.734-0.272s-0.927-0.442-1.269-0.782
		s-0.601-0.755-0.776-1.245s-0.264-1.046-0.264-1.667c0-0.609,0.093-1.17,0.278-1.682s0.453-0.951,0.803-1.318
		s0.773-0.653,1.271-0.858s1.058-0.308,1.679-0.308c0.164,0,0.326,0.007,0.486,0.021s0.313,0.033,0.46,0.059
		s0.282,0.056,0.407,0.091s0.232,0.072,0.322,0.111v0.844c-0.237-0.078-0.497-0.144-0.777-0.196
		C51.379,142.439,51.097,142.413,50.812,142.413z"/>
	<path fill="#39B54A" d="M61.104,145.636c0,0.594-0.086,1.139-0.256,1.635c-0.171,0.496-0.415,0.924-0.732,1.283
		c-0.318,0.359-0.7,0.64-1.148,0.841c-0.447,0.201-0.948,0.302-1.502,0.302c-0.574,0-1.087-0.101-1.541-0.302
		c-0.453-0.201-0.837-0.481-1.15-0.841c-0.314-0.359-0.555-0.787-0.721-1.283c-0.167-0.496-0.25-1.041-0.25-1.635
		c0-0.598,0.086-1.146,0.259-1.644c0.172-0.498,0.416-0.927,0.732-1.286c0.315-0.359,0.698-0.64,1.147-0.841
		s0.953-0.302,1.512-0.302c0.569,0,1.08,0.101,1.531,0.302s0.834,0.481,1.148,0.841c0.313,0.359,0.554,0.788,0.721,1.286
		C61.02,144.49,61.104,145.038,61.104,145.636z M60.154,145.636c0-0.527-0.069-0.992-0.208-1.395
		c-0.138-0.402-0.328-0.738-0.571-1.008s-0.529-0.474-0.858-0.612c-0.33-0.139-0.685-0.208-1.063-0.208s-0.733,0.069-1.063,0.208
		s-0.616,0.343-0.859,0.612c-0.242,0.27-0.433,0.605-0.571,1.008s-0.207,0.867-0.207,1.395s0.069,0.991,0.21,1.392
		s0.332,0.735,0.574,1.005c0.243,0.27,0.529,0.473,0.859,0.609s0.687,0.205,1.069,0.205c0.379,0,0.731-0.068,1.058-0.205
		c0.325-0.137,0.609-0.34,0.853-0.609s0.434-0.604,0.571-1.005C60.085,146.627,60.154,146.163,60.154,145.636z M57.963,139.847
		l1.266,1.447h-0.926l-0.803-0.885h-0.023l-0.797,0.885h-0.926l1.266-1.447H57.963z M57.02,151.39v-1.014h0.955v1.014H57.02z"/>
	<path fill="#39B54A" d="M65.674,149.55h-0.955v-6.979H62.1v-0.861h6.193v0.861h-2.619V149.55z"/>
	<path fill="#39B54A" d="M71.281,145.103h0.82v-3.393h1.793c0.355,0,0.686,0.015,0.99,0.044s0.588,0.081,0.85,0.155
		c0.457,0.129,0.856,0.309,1.198,0.539s0.625,0.503,0.85,0.817s0.393,0.668,0.504,1.061s0.167,0.815,0.167,1.269
		c0,0.457-0.057,0.887-0.17,1.289s-0.284,0.765-0.513,1.087s-0.514,0.601-0.855,0.835s-0.741,0.416-1.198,0.545
		c-0.262,0.074-0.545,0.126-0.85,0.155s-0.635,0.044-0.99,0.044h-1.775v-3.586h-0.82V145.103z M77.445,145.595
		c0-0.754-0.164-1.365-0.492-1.834s-0.799-0.801-1.412-0.996c-0.234-0.074-0.496-0.125-0.785-0.152s-0.615-0.041-0.979-0.041h-0.721
		v2.531h2.016v0.861h-2.016v2.725h0.721c0.363,0,0.689-0.014,0.979-0.041s0.551-0.078,0.785-0.152
		c0.613-0.195,1.084-0.537,1.412-1.025S77.445,146.356,77.445,145.595z"/>
	<path fill="#39B54A" d="M81.107,148.688h4.02v0.861h-4.975v-7.84h4.758v0.861h-3.803v2.531h3.381v0.861h-3.381V148.688z
		 M82.244,139.847l0.855,1.447h-0.814l-1.061-1.447H82.244z"/>
	<path fill="#39B54A" d="M90.793,146.081c0.48,0.691,0.955,1.402,1.424,2.133h0.035c-0.051-0.762-0.076-1.539-0.076-2.332v-4.172
		h0.961v7.84h-0.955l-3.076-4.371c-0.531-0.762-1.006-1.473-1.424-2.133h-0.035c0.051,0.715,0.076,1.549,0.076,2.502v4.002h-0.955
		v-7.84h0.949L90.793,146.081z"/>
	<path fill="#39B54A" d="M48.521,159.954c0,0.375-0.039,0.73-0.117,1.066s-0.189,0.646-0.334,0.929s-0.317,0.536-0.519,0.759
		s-0.423,0.41-0.665,0.562v0.023c0.324-0.051,0.631-0.09,0.92-0.117s0.582-0.037,0.879-0.029v0.861
		c-0.184-0.012-0.383-0.024-0.598-0.038s-0.463-0.021-0.744-0.021c-0.211,0-0.424,0.006-0.639,0.018s-0.428,0.025-0.639,0.041
		s-0.418,0.029-0.621,0.041s-0.396,0.018-0.58,0.018c-0.582,0-1.103-0.098-1.562-0.293s-0.847-0.47-1.163-0.823
		s-0.559-0.778-0.727-1.274s-0.252-1.043-0.252-1.641s0.087-1.146,0.261-1.644s0.42-0.927,0.738-1.286s0.704-0.64,1.157-0.841
		s0.961-0.302,1.523-0.302c0.574,0,1.089,0.101,1.544,0.302s0.841,0.479,1.157,0.835s0.559,0.777,0.727,1.266
		S48.521,159.384,48.521,159.954z M47.513,160.036c0-0.527-0.068-0.992-0.205-1.395s-0.325-0.738-0.565-1.008
		s-0.523-0.474-0.85-0.612s-0.677-0.208-1.052-0.208s-0.726,0.069-1.052,0.208s-0.609,0.343-0.85,0.612s-0.429,0.605-0.565,1.008
		s-0.205,0.867-0.205,1.395s0.069,0.991,0.208,1.392s0.328,0.735,0.568,1.005s0.523,0.473,0.85,0.609s0.679,0.205,1.058,0.205
		c0.375,0,0.724-0.068,1.046-0.205s0.604-0.34,0.844-0.609s0.429-0.604,0.565-1.005S47.513,160.563,47.513,160.036z"/>
	<path fill="#39B54A" d="M53.354,163.247c0.285,0,0.538-0.033,0.759-0.1s0.413-0.16,0.577-0.281s0.301-0.267,0.41-0.437
		s0.193-0.358,0.252-0.565c0.039-0.129,0.066-0.272,0.082-0.431s0.023-0.312,0.023-0.46v-4.863h0.955v4.84
		c0,0.184-0.01,0.375-0.029,0.574s-0.051,0.385-0.094,0.557c-0.074,0.289-0.186,0.557-0.334,0.803s-0.342,0.459-0.58,0.639
		s-0.524,0.32-0.858,0.422s-0.726,0.152-1.175,0.152c-0.43,0-0.807-0.047-1.131-0.141s-0.603-0.224-0.835-0.39
		s-0.423-0.363-0.571-0.592s-0.264-0.478-0.346-0.747c-0.059-0.195-0.101-0.404-0.126-0.627s-0.038-0.439-0.038-0.65v-4.84h0.955
		v4.863c0,0.176,0.013,0.356,0.038,0.542s0.065,0.354,0.12,0.507c0.137,0.379,0.364,0.678,0.683,0.896
		S52.831,163.247,53.354,163.247z"/>
	<path fill="#39B54A" d="M57.585,163.95l3.193-7.84h0.826l3.193,7.84h-1.037l-0.937-2.361h-3.278l-0.936,2.361H57.585z
		 M61.183,157.329c-0.35,0.976-0.684,1.862-1.002,2.66l-0.293,0.738h2.598l-0.297-0.738c-0.321-0.812-0.649-1.698-0.982-2.66H61.183
		z"/>
	<path fill="#39B54A" d="M68.343,160.798v3.152h-0.955v-3.152l-2.854-4.688h1.043l2.273,3.809h0.029l2.273-3.809h1.043
		L68.343,160.798z"/>
</g>
</svg>
