<?xml version="1.0" encoding="utf-8"?>
<!-- Generator: Adobe Illustrator 17.0.0, SVG Export Plug-In . SVG Version: 6.00 Build 0)  -->
<!DOCTYPE svg PUBLIC "-//W3C//DTD SVG 1.1//EN" "http://www.w3.org/Graphics/SVG/1.1/DTD/svg11.dtd">
<svg version="1.1" id="Layer_1" xmlns="http://www.w3.org/2000/svg" xmlns:xlink="http://www.w3.org/1999/xlink" x="0px" y="0px"
	 width="112px" height="203px" viewBox="0 0 112 203" enable-background="new 0 0 112 203" xml:space="preserve">
<g>
	<path fill="#336601" d="M27.278,46.761c4.177-0.648,7.057-2.016,6.984-6.697h6.265v51.269h-7.633V52.09h-5.616V46.761z"/>
	<path fill="#336601" d="M42.613,49.137c0-5.328,1.513-10.081,10.081-10.081c6.553,0,9.865,3.312,9.865,9.505V81.18
		c0,6.336-2.952,10.297-10.081,10.297c-7.272,0-9.865-3.888-9.865-10.585V75.78h7.633v6.336c0,1.8,0.216,3.24,2.305,3.24
		c2.088,0,2.376-1.44,2.376-3.24V71.604c-1.368,1.44-3.601,2.448-5.688,2.448c-3.024,0-6.625-1.152-6.625-8.137V49.137z
		 M50.246,64.115c0,1.8,0.433,3.024,2.448,3.024c1.8,0,2.232-1.512,2.232-3.024V49.498c0-2.088,0-4.32-2.521-4.32
		c-2.088,0-2.16,1.8-2.16,3.312V64.115z"/>
	<path fill="#336601" d="M66.589,72.971c0-3.672,0.721-6.696,6.192-8.064v-0.144c-5.04-0.288-6.048-3.6-6.192-7.489v-7.993
		c0-7.849,5.688-9.793,9.649-9.793c4.968,0,10.152,2.376,10.225,9.793l0.072,7.201c0,3.528-1.225,7.921-6.049,8.281v0.144
		c4.536,1.224,6.049,3.96,6.049,5.833v12.889c0,4.968-3.961,8.281-10.226,8.281c-5.977,0-9.721-3.312-9.721-9.361V72.971z
		 M78.902,48.921c0-2.664-0.648-3.312-2.305-3.312c-1.872,0-2.304,1.44-2.376,3.312v9.073c0,2.736,0.648,3.312,2.521,3.312
		c1.296,0,2.16-0.864,2.16-3.097V48.921z M78.902,71.099c0-1.296-0.504-2.808-2.376-2.808s-2.305,1.512-2.305,2.808v11.017
		c0,2.448,0.937,3.672,2.448,3.672c2.16,0,2.232-2.16,2.232-3.672V71.099z"/>
</g>
<g>
	<path fill="#39B54A" d="M48.383,120.75h-0.439l-1.975-4.682c-0.273-0.645-0.547-1.346-0.82-2.104h-0.047
		c0.055,1.09,0.082,2.088,0.082,2.994v3.791h-0.955v-7.84h1.377l1.846,4.436c0.211,0.508,0.443,1.119,0.697,1.834h0.029
		c0.281-0.793,0.514-1.404,0.697-1.834l1.846-4.436h1.377v7.84h-0.955v-3.791c0-0.887,0.027-1.885,0.082-2.994h-0.047
		c-0.289,0.801-0.562,1.502-0.82,2.104L48.383,120.75z"/>
	<path fill="#39B54A" d="M53.299,120.75l3.193-7.84h0.826l3.193,7.84h-1.037l-0.936-2.361h-3.278l-0.937,2.361H53.299z
		 M56.891,111.785c0.109,0,0.221-0.015,0.332-0.044s0.213-0.077,0.307-0.144s0.174-0.151,0.24-0.255s0.111-0.229,0.135-0.378h0.779
		c-0.027,0.25-0.092,0.47-0.193,0.659s-0.23,0.349-0.389,0.478s-0.342,0.227-0.549,0.293s-0.428,0.1-0.662,0.1
		s-0.455-0.033-0.662-0.1s-0.389-0.164-0.547-0.293s-0.289-0.288-0.391-0.478s-0.166-0.409-0.193-0.659h0.779
		c0.023,0.148,0.068,0.274,0.135,0.378s0.146,0.188,0.24,0.255s0.197,0.114,0.309,0.144S56.781,111.785,56.891,111.785z
		 M56.896,114.128c-0.35,0.976-0.684,1.862-1.002,2.66l-0.293,0.738H58.2l-0.297-0.738c-0.321-0.812-0.649-1.699-0.983-2.661H56.896
		z M56.375,122.589v-1.014h0.955v1.014H56.375z"/>
	<path fill="#39B54A" d="M63.881,120.75h-0.955v-6.979h-2.619v-0.861H66.5v0.861h-2.619V120.75z"/>
	<path fill="#39B54A" d="M31.15,131.153c0,0.375-0.039,0.73-0.117,1.066s-0.189,0.646-0.334,0.929s-0.316,0.536-0.518,0.759
		s-0.424,0.41-0.666,0.562v0.023c0.324-0.051,0.631-0.09,0.92-0.117s0.582-0.037,0.879-0.029v0.861
		c-0.184-0.012-0.383-0.024-0.598-0.038s-0.463-0.021-0.744-0.021c-0.211,0-0.424,0.006-0.639,0.018s-0.428,0.025-0.639,0.041
		s-0.418,0.029-0.621,0.041s-0.396,0.018-0.58,0.018c-0.582,0-1.102-0.098-1.561-0.293s-0.848-0.47-1.164-0.823
		s-0.559-0.778-0.727-1.274s-0.252-1.043-0.252-1.641s0.088-1.146,0.262-1.644s0.42-0.927,0.738-1.286s0.703-0.64,1.156-0.841
		s0.961-0.302,1.523-0.302c0.574,0,1.09,0.101,1.545,0.302s0.84,0.479,1.156,0.835s0.559,0.777,0.727,1.266
		S31.15,130.583,31.15,131.153z M30.143,131.235c0-0.527-0.068-0.992-0.205-1.395s-0.324-0.738-0.564-1.008s-0.523-0.474-0.85-0.612
		s-0.678-0.208-1.053-0.208s-0.725,0.069-1.051,0.208s-0.609,0.343-0.85,0.612s-0.43,0.605-0.566,1.008s-0.205,0.867-0.205,1.395
		s0.07,0.991,0.209,1.392s0.328,0.735,0.568,1.005s0.523,0.473,0.85,0.609s0.678,0.205,1.057,0.205c0.375,0,0.725-0.068,1.047-0.205
		s0.604-0.34,0.844-0.609s0.428-0.604,0.564-1.005S30.143,131.763,30.143,131.235z"/>
	<path fill="#39B54A" d="M35.984,134.446c0.285,0,0.539-0.033,0.76-0.1s0.412-0.16,0.576-0.281s0.301-0.267,0.41-0.437
		s0.193-0.358,0.252-0.565c0.039-0.129,0.066-0.272,0.082-0.431s0.023-0.312,0.023-0.46v-4.863h0.955v4.84
		c0,0.184-0.01,0.375-0.029,0.574s-0.051,0.385-0.094,0.557c-0.074,0.289-0.186,0.557-0.334,0.803s-0.342,0.459-0.58,0.639
		s-0.523,0.32-0.857,0.422s-0.727,0.152-1.176,0.152c-0.43,0-0.807-0.047-1.131-0.141s-0.602-0.224-0.834-0.39
		s-0.424-0.363-0.572-0.592s-0.264-0.478-0.346-0.747c-0.059-0.195-0.1-0.404-0.125-0.627s-0.039-0.439-0.039-0.65v-4.84h0.955
		v4.863c0,0.176,0.014,0.356,0.039,0.542s0.064,0.354,0.119,0.507c0.137,0.379,0.365,0.678,0.684,0.896
		S35.461,134.446,35.984,134.446z"/>
	<path fill="#39B54A" d="M40.215,135.149l3.193-7.84h0.826l3.193,7.84h-1.037l-0.936-2.361h-3.278l-0.937,2.361H40.215z
		 M43.812,128.528c-0.35,0.976-0.684,1.862-1.002,2.66l-0.293,0.738h2.599l-0.297-0.738c-0.321-0.812-0.649-1.699-0.983-2.661
		H43.812z M43.256,126.085c0.145-0.008,0.275-0.017,0.391-0.026s0.213-0.027,0.295-0.053s0.145-0.062,0.188-0.111
		s0.064-0.114,0.064-0.196c0-0.074-0.02-0.134-0.061-0.179s-0.094-0.079-0.156-0.103s-0.133-0.038-0.211-0.044
		s-0.154-0.009-0.229-0.009c-0.148,0-0.277,0.011-0.387,0.032s-0.197,0.044-0.264,0.067v-0.627c0.07-0.031,0.166-0.058,0.287-0.079
		s0.283-0.032,0.486-0.032c0.137,0,0.279,0.015,0.426,0.044s0.279,0.082,0.4,0.158s0.221,0.178,0.299,0.305s0.117,0.288,0.117,0.483
		c0,0.148-0.023,0.272-0.072,0.372s-0.115,0.181-0.199,0.243s-0.182,0.111-0.293,0.146s-0.23,0.064-0.355,0.088l-0.053,0.328h-0.545
		L43.256,126.085z"/>
	<path fill="#39B54A" d="M52.654,131.681c0.48,0.691,0.955,1.402,1.424,2.133h0.035c-0.051-0.762-0.076-1.539-0.076-2.332v-4.172
		h0.961v7.84h-0.955l-3.076-4.371c-0.531-0.762-1.006-1.473-1.424-2.133h-0.035c0.051,0.715,0.076,1.549,0.076,2.502v4.002h-0.955
		v-7.84h0.949L52.654,131.681z"/>
	<path fill="#39B54A" d="M62.111,131.979h-1.787v-0.861h2.742v3.791c-0.082,0.043-0.201,0.087-0.359,0.132s-0.34,0.087-0.543,0.126
		s-0.42,0.07-0.652,0.094s-0.463,0.035-0.689,0.035c-0.672,0-1.264-0.092-1.777-0.275s-0.945-0.443-1.293-0.779
		s-0.611-0.744-0.791-1.225s-0.27-1.016-0.27-1.605c0-0.641,0.1-1.223,0.296-1.746s0.481-0.971,0.855-1.342s0.825-0.657,1.354-0.858
		s1.111-0.302,1.748-0.302c0.172,0,0.344,0.007,0.516,0.021s0.336,0.033,0.492,0.059s0.301,0.056,0.434,0.091
		s0.244,0.072,0.334,0.111v0.844c-0.234-0.078-0.504-0.144-0.809-0.196s-0.609-0.079-0.914-0.079c-0.445,0-0.869,0.067-1.273,0.202
		s-0.762,0.339-1.07,0.612s-0.555,0.616-0.738,1.028s-0.275,0.896-0.275,1.45c0,0.543,0.076,1.012,0.229,1.406
		s0.369,0.721,0.647,0.979c0.279,0.258,0.618,0.448,1.016,0.571s0.84,0.185,1.327,0.185c0.225,0,0.447-0.012,0.668-0.035
		c0.219-0.023,0.414-0.057,0.584-0.1V131.979z"/>
	<path fill="#39B54A" d="M70.723,128.013c-0.439,0-0.85,0.069-1.23,0.208c-0.383,0.139-0.713,0.346-0.994,0.621
		s-0.502,0.617-0.664,1.025s-0.244,0.884-0.244,1.427c0,0.539,0.076,1.007,0.227,1.403c0.149,0.396,0.363,0.725,0.641,0.984
		c0.275,0.26,0.609,0.452,0.998,0.577c0.391,0.125,0.824,0.188,1.303,0.188c0.131,0,0.269-0.007,0.415-0.021
		c0.146-0.014,0.294-0.033,0.442-0.059s0.292-0.055,0.433-0.088c0.14-0.033,0.266-0.069,0.376-0.108v0.844
		c-0.23,0.09-0.498,0.159-0.803,0.208s-0.617,0.073-0.938,0.073c-0.652,0-1.23-0.091-1.734-0.272s-0.926-0.442-1.268-0.782
		s-0.602-0.755-0.777-1.245s-0.264-1.046-0.264-1.667c0-0.609,0.094-1.17,0.279-1.682s0.453-0.951,0.803-1.318
		s0.773-0.653,1.271-0.858s1.057-0.308,1.678-0.308c0.164,0,0.326,0.007,0.486,0.021s0.314,0.033,0.461,0.059
		s0.281,0.056,0.406,0.091s0.232,0.072,0.322,0.111v0.844c-0.236-0.078-0.496-0.144-0.777-0.196
		C71.29,128.039,71.008,128.013,70.723,128.013z"/>
	<path fill="#39B54A" d="M73.215,135.149l3.193-7.84h0.826l3.193,7.84h-1.037l-0.936-2.361h-3.278l-0.937,2.361H73.215z
		 M76.812,128.528c-0.35,0.976-0.684,1.862-1.002,2.66l-0.293,0.738h2.599l-0.297-0.738c-0.321-0.812-0.649-1.699-0.983-2.661
		H76.812z M78.348,125.446l-1.061,1.447h-0.814l0.855-1.447H78.348z"/>
	<path fill="#39B54A" d="M88.52,131.235c0,0.594-0.085,1.139-0.256,1.635c-0.17,0.496-0.414,0.924-0.732,1.283
		c-0.317,0.359-0.699,0.64-1.147,0.841s-0.948,0.302-1.503,0.302c-0.573,0-1.086-0.101-1.54-0.302
		c-0.453-0.201-0.837-0.481-1.151-0.841c-0.313-0.359-0.554-0.787-0.721-1.283c-0.166-0.496-0.25-1.041-0.25-1.635
		c0-0.598,0.086-1.146,0.26-1.644c0.172-0.498,0.416-0.927,0.732-1.286c0.315-0.359,0.697-0.64,1.147-0.841
		c0.449-0.201,0.953-0.302,1.511-0.302c0.57,0,1.08,0.101,1.532,0.302c0.451,0.201,0.834,0.481,1.147,0.841
		c0.314,0.359,0.555,0.788,0.721,1.286C88.437,130.09,88.52,130.638,88.52,131.235z M87.57,131.235c0-0.527-0.068-0.992-0.207-1.395
		s-0.328-0.738-0.571-1.008s-0.529-0.474-0.858-0.612c-0.33-0.139-0.686-0.208-1.064-0.208s-0.732,0.069-1.062,0.208
		s-0.617,0.343-0.859,0.612s-0.434,0.605-0.572,1.008c-0.138,0.402-0.207,0.867-0.207,1.395s0.07,0.991,0.211,1.392
		s0.332,0.735,0.574,1.005c0.243,0.27,0.529,0.473,0.859,0.609s0.686,0.205,1.068,0.205c0.38,0,0.732-0.068,1.059-0.205
		c0.325-0.137,0.609-0.34,0.853-0.609s0.433-0.604,0.571-1.005S87.57,131.763,87.57,131.235z"/>
	<path fill="#39B54A" d="M33.914,149.55h-0.955v-6.979H30.34v-0.861h6.193v0.861h-2.619V149.55z"/>
	<path fill="#39B54A" d="M38.719,146.303v3.247h-0.955v-7.84h2.03c0.343,0,0.636,0.013,0.875,0.038
		c0.24,0.025,0.46,0.065,0.659,0.12c0.546,0.148,0.963,0.401,1.252,0.759s0.434,0.804,0.434,1.339c0,0.316-0.051,0.6-0.152,0.85
		s-0.244,0.467-0.428,0.65s-0.404,0.334-0.66,0.451s-0.539,0.203-0.852,0.258v0.023l2.32,3.352h-0.955l-2.414-3.247H38.719z
		 M38.719,142.571v2.871h0.943c0.293,0,0.543-0.01,0.75-0.029s0.393-0.055,0.557-0.105c0.332-0.102,0.588-0.264,0.768-0.486
		s0.27-0.514,0.27-0.873c-0.004-0.336-0.09-0.606-0.258-0.812s-0.4-0.353-0.697-0.442c-0.141-0.043-0.309-0.074-0.504-0.094
		s-0.443-0.029-0.744-0.029H38.719z"/>
	<path fill="#39B54A" d="M45.82,148.688h4.02v0.861h-4.975v-7.84h4.758v0.861H45.82v2.531h3.381v0.861H45.82V148.688z
		 M47.719,139.846l1.266,1.447h-0.926l-0.803-0.885h-0.023l-0.797,0.885H45.51l1.266-1.447H47.719z"/>
	<path fill="#39B54A" d="M55.506,146.081c0.48,0.691,0.955,1.402,1.424,2.133h0.035c-0.051-0.762-0.076-1.54-0.076-2.333v-4.172
		h0.961v7.84h-0.955l-3.076-4.372c-0.531-0.762-1.006-1.473-1.424-2.133h-0.035c0.051,0.715,0.076,1.549,0.076,2.502v4.002H51.48
		v-7.84h0.949L55.506,146.081z"/>
	<path fill="#39B54A" d="M68.59,145.594c0,0.457-0.057,0.887-0.17,1.289s-0.285,0.765-0.514,1.087
		c-0.229,0.323-0.514,0.601-0.855,0.835s-0.74,0.416-1.197,0.545c-0.262,0.074-0.545,0.126-0.85,0.155s-0.635,0.044-0.99,0.044
		h-1.775v-7.84h1.793c0.355,0,0.686,0.015,0.99,0.044s0.588,0.081,0.85,0.155c0.457,0.129,0.855,0.309,1.197,0.539
		s0.625,0.503,0.85,0.817s0.393,0.668,0.504,1.061S68.59,145.141,68.59,145.594z M67.641,145.594c0-0.754-0.166-1.365-0.5-1.834
		c-0.332-0.469-0.809-0.801-1.43-0.996c-0.238-0.074-0.504-0.125-0.797-0.152s-0.623-0.041-0.99-0.041h-0.73v6.118h0.73
		c0.367,0,0.697-0.014,0.99-0.041s0.559-0.078,0.797-0.152c0.621-0.195,1.098-0.538,1.43-1.026
		C67.475,146.981,67.641,146.356,67.641,145.594z"/>
	<path fill="#39B54A" d="M69.498,149.55l3.193-7.84h0.826l3.193,7.84h-1.037l-0.937-2.362h-3.278l-0.936,2.362H69.498z
		 M73.096,142.928c-0.35,0.976-0.684,1.862-1.002,2.66l-0.293,0.738h2.598l-0.297-0.738c-0.322-0.812-0.649-1.699-0.982-2.661
		H73.096z M72.539,140.485c0.145-0.008,0.273-0.017,0.389-0.026s0.215-0.027,0.297-0.053s0.145-0.062,0.188-0.111
		s0.064-0.114,0.064-0.196c0-0.074-0.021-0.134-0.062-0.179s-0.092-0.079-0.154-0.103s-0.133-0.038-0.211-0.044
		s-0.154-0.009-0.229-0.009c-0.148,0-0.277,0.011-0.387,0.032s-0.197,0.044-0.264,0.067v-0.627c0.07-0.031,0.166-0.058,0.287-0.079
		s0.283-0.032,0.486-0.032c0.137,0,0.277,0.015,0.424,0.044s0.281,0.082,0.402,0.158s0.221,0.178,0.299,0.305
		s0.117,0.288,0.117,0.483c0,0.148-0.025,0.272-0.074,0.372s-0.115,0.181-0.199,0.243s-0.182,0.111-0.293,0.146
		s-0.229,0.064-0.354,0.088l-0.053,0.328h-0.545L72.539,140.485z"/>
	<path fill="#39B54A" d="M77.912,149.55v-7.84h0.955v7.84H77.912z"/>
	<path fill="#39B54A" d="M26.924,163.95h-0.955v-7.84h2.171c0.323,0,0.624,0.02,0.898,0.059s0.528,0.1,0.758,0.182
		c0.468,0.168,0.823,0.419,1.065,0.753s0.363,0.745,0.363,1.233c0,0.398-0.08,0.749-0.237,1.052
		c-0.158,0.303-0.388,0.556-0.688,0.759c-0.3,0.203-0.666,0.356-1.096,0.46c-0.432,0.104-0.92,0.155-1.467,0.155
		c-0.262,0-0.532-0.012-0.812-0.035V163.95z M26.924,159.854c0.129,0.016,0.264,0.027,0.404,0.035s0.273,0.012,0.398,0.012
		c0.449,0,0.832-0.035,1.148-0.105s0.574-0.173,0.773-0.308s0.344-0.299,0.434-0.492s0.135-0.413,0.135-0.659
		c0-0.305-0.074-0.555-0.221-0.75s-0.354-0.344-0.623-0.445c-0.168-0.062-0.361-0.106-0.58-0.132s-0.473-0.038-0.762-0.038h-1.107
		V159.854z"/>
	<path fill="#39B54A" d="M33.768,159.503h4.107v-3.393h0.955v7.84h-0.955v-3.586h-4.107v3.586h-0.955v-7.84h0.955V159.503z"/>
	<path fill="#39B54A" d="M40.031,163.95l3.193-7.84h0.826l3.193,7.84h-1.037l-0.937-2.361h-3.278l-0.936,2.361H40.031z
		 M44.109,154.247l1.266,1.447h-0.926l-0.803-0.885h-0.023l-0.797,0.885H41.9l1.266-1.447H44.109z M43.629,157.329
		c-0.35,0.976-0.684,1.862-1.002,2.66l-0.293,0.738h2.598l-0.297-0.738c-0.322-0.812-0.649-1.698-0.982-2.66H43.629z"/>
	<path fill="#39B54A" d="M52.471,160.481c0.48,0.691,0.955,1.402,1.424,2.133h0.035c-0.051-0.762-0.076-1.539-0.076-2.332v-4.172
		h0.961v7.84h-0.955l-3.076-4.371c-0.531-0.762-1.006-1.473-1.424-2.133h-0.035c0.051,0.715,0.076,1.549,0.076,2.502v4.002h-0.955
		v-7.84h0.949L52.471,160.481z"/>
	<path fill="#39B54A" d="M62.522,156.813c-0.438,0-0.849,0.069-1.231,0.208c-0.381,0.139-0.713,0.346-0.993,0.621
		s-0.503,0.617-0.665,1.025s-0.242,0.884-0.242,1.427c0,0.539,0.074,1.007,0.225,1.403s0.364,0.725,0.641,0.984
		c0.277,0.26,0.61,0.452,1,0.577c0.389,0.125,0.823,0.188,1.302,0.188c0.13,0,0.269-0.007,0.415-0.021s0.293-0.033,0.441-0.059
		s0.293-0.055,0.434-0.088s0.266-0.069,0.377-0.108v0.844c-0.23,0.09-0.498,0.159-0.803,0.208s-0.617,0.073-0.938,0.073
		c-0.652,0-1.23-0.091-1.734-0.272s-0.928-0.442-1.27-0.782s-0.6-0.755-0.775-1.245s-0.264-1.046-0.264-1.667
		c0-0.609,0.092-1.17,0.277-1.682s0.453-0.951,0.803-1.318s0.773-0.653,1.271-0.858s1.059-0.308,1.68-0.308
		c0.164,0,0.326,0.007,0.486,0.021s0.312,0.033,0.459,0.059s0.283,0.056,0.408,0.091s0.232,0.072,0.322,0.111v0.844
		c-0.238-0.078-0.497-0.144-0.777-0.196C63.09,156.84,62.807,156.813,62.522,156.813z"/>
	<path fill="#39B54A" d="M65.016,163.95l3.193-7.84h0.826l3.193,7.84h-1.037l-0.937-2.361h-3.278l-0.936,2.361H65.016z
		 M68.613,157.329c-0.35,0.976-0.684,1.862-1.002,2.66l-0.293,0.738h2.598l-0.297-0.738c-0.322-0.812-0.649-1.698-0.982-2.66H68.613
		z M70.148,154.247l-1.061,1.447h-0.814l0.855-1.447H70.148z"/>
	<path fill="#39B54A" d="M77.101,156.813c-0.438,0-0.849,0.069-1.231,0.208c-0.381,0.139-0.713,0.346-0.993,0.621
		s-0.503,0.617-0.665,1.025s-0.242,0.884-0.242,1.427c0,0.539,0.074,1.007,0.225,1.403s0.364,0.725,0.641,0.984
		c0.277,0.26,0.61,0.452,1,0.577c0.389,0.125,0.823,0.188,1.302,0.188c0.13,0,0.269-0.007,0.415-0.021s0.293-0.033,0.441-0.059
		s0.293-0.055,0.434-0.088s0.266-0.069,0.377-0.108v0.844c-0.23,0.09-0.498,0.159-0.803,0.208s-0.617,0.073-0.938,0.073
		c-0.652,0-1.23-0.091-1.734-0.272s-0.928-0.442-1.27-0.782s-0.6-0.755-0.775-1.245s-0.264-1.046-0.264-1.667
		c0-0.609,0.092-1.17,0.277-1.682s0.453-0.951,0.803-1.318s0.773-0.653,1.271-0.858s1.059-0.308,1.68-0.308
		c0.164,0,0.326,0.007,0.486,0.021s0.312,0.033,0.459,0.059s0.283,0.056,0.408,0.091s0.232,0.072,0.322,0.111v0.844
		c-0.238-0.078-0.497-0.144-0.777-0.196C77.668,156.84,77.385,156.813,77.101,156.813z"/>
	<path fill="#39B54A" d="M81.34,159.503h4.107v-3.393h0.955v7.84h-0.955v-3.586H81.34v3.586h-0.955v-7.84h0.955V159.503z"/>
</g>
</svg>
