<?xml version="1.0" encoding="utf-8"?>
<!-- Generator: Adobe Illustrator 17.0.0, SVG Export Plug-In . SVG Version: 6.00 Build 0)  -->
<!DOCTYPE svg PUBLIC "-//W3C//DTD SVG 1.1//EN" "http://www.w3.org/Graphics/SVG/1.1/DTD/svg11.dtd">
<svg version="1.1" id="Layer_1" xmlns="http://www.w3.org/2000/svg" xmlns:xlink="http://www.w3.org/1999/xlink" x="0px" y="0px"
	 width="112px" height="203px" viewBox="0 0 112 203" enable-background="new 0 0 112 203" xml:space="preserve">
<g>
	<path fill="#336601" d="M41.433,72.467v7.849c0,5.041,1.224,5.473,2.088,5.473c1.44,0,2.592-0.36,2.592-3.96V72.54
		c0-3.024-1.296-4.104-3.528-4.104h-1.152v-6.121c3.96,0.288,4.68-1.944,4.68-5.041v-4.608c-0.144-3.672,0.432-7.057-2.088-7.057
		c-2.953,0-2.448,2.88-2.592,4.896v7.777H33.8v-8.353c0-7.849,3.601-10.441,10.225-10.441c7.272,0,9.721,4.321,9.721,10.009v8.281
		c0,3.168-0.936,6.336-6.048,7.488v0.288c5.688,1.872,6.048,4.104,6.048,7.345v8.641c0,8.209-4.032,10.369-9.937,10.369
		c-8.281,0-10.009-4.825-10.009-12.169v-7.273H41.433z"/>
	<path fill="#336601" d="M77.433,85.212v6.121H57.775v-3.24c0-14.978,12.313-25.058,12.313-33.915v-4.752
		c0-2.736-0.576-3.816-2.088-3.816c-1.873,0-2.592,1.512-2.592,3.816v9.001h-7.633v-8.065c0-7.92,3.384-10.873,11.089-10.873
		c7.345,0,8.857,5.761,8.857,11.809c0,14.257-11.233,22.61-11.593,33.915H77.433z"/>
</g>
<g>
	<path fill="#39B54A" d="M47.958,120.75h-0.439l-1.975-4.682c-0.273-0.645-0.547-1.346-0.82-2.104h-0.047
		c0.055,1.09,0.082,2.088,0.082,2.994v3.791h-0.955v-7.84h1.377l1.846,4.436c0.211,0.508,0.443,1.119,0.697,1.834h0.029
		c0.281-0.793,0.514-1.404,0.697-1.834l1.846-4.436h1.377v7.84h-0.955v-3.791c0-0.887,0.027-1.885,0.082-2.994h-0.047
		c-0.289,0.801-0.562,1.502-0.82,2.104L47.958,120.75z"/>
	<path fill="#39B54A" d="M52.874,120.75l3.193-7.84h0.826l3.193,7.84h-1.037l-0.936-2.361h-3.278l-0.936,2.361H52.874z
		 M56.465,111.785c0.109,0,0.22-0.015,0.331-0.044s0.214-0.077,0.308-0.144s0.174-0.151,0.24-0.255s0.111-0.229,0.135-0.378h0.779
		c-0.027,0.25-0.092,0.47-0.193,0.659s-0.231,0.349-0.39,0.478s-0.341,0.227-0.548,0.293s-0.428,0.1-0.662,0.1
		s-0.455-0.033-0.662-0.1s-0.39-0.164-0.548-0.293s-0.288-0.288-0.39-0.478s-0.166-0.409-0.193-0.659h0.779
		c0.023,0.148,0.068,0.274,0.135,0.378s0.146,0.188,0.24,0.255s0.196,0.114,0.308,0.144S56.356,111.785,56.465,111.785z
		 M56.471,114.128c-0.35,0.976-0.684,1.862-1.002,2.66l-0.293,0.738h2.598l-0.297-0.738c-0.322-0.812-0.649-1.699-0.983-2.661
		H56.471z M55.95,122.589v-1.014h0.955v1.014H55.95z"/>
	<path fill="#39B54A" d="M63.456,120.75H62.5v-6.979h-2.619v-0.861h6.193v0.861h-2.619V120.75z"/>
	<path fill="#39B54A" d="M30.725,131.153c0,0.375-0.039,0.73-0.117,1.066s-0.189,0.646-0.334,0.929s-0.317,0.536-0.519,0.759
		s-0.423,0.41-0.665,0.562v0.023c0.324-0.051,0.631-0.09,0.92-0.117s0.582-0.037,0.879-0.029v0.861
		c-0.184-0.012-0.383-0.024-0.598-0.038s-0.463-0.021-0.744-0.021c-0.211,0-0.424,0.006-0.639,0.018s-0.428,0.025-0.639,0.041
		s-0.418,0.029-0.621,0.041s-0.396,0.018-0.58,0.018c-0.582,0-1.103-0.098-1.562-0.293s-0.847-0.47-1.163-0.823
		s-0.559-0.778-0.727-1.274s-0.252-1.043-0.252-1.641s0.087-1.146,0.261-1.644s0.42-0.927,0.738-1.286s0.704-0.64,1.157-0.841
		s0.961-0.302,1.523-0.302c0.574,0,1.089,0.101,1.544,0.302s0.841,0.479,1.157,0.835s0.559,0.777,0.727,1.266
		S30.725,130.583,30.725,131.153z M29.717,131.235c0-0.527-0.068-0.992-0.205-1.395s-0.325-0.738-0.565-1.008
		s-0.523-0.474-0.85-0.612s-0.677-0.208-1.052-0.208s-0.726,0.069-1.052,0.208s-0.609,0.343-0.85,0.612s-0.429,0.605-0.565,1.008
		s-0.205,0.867-0.205,1.395s0.069,0.991,0.208,1.392s0.328,0.735,0.568,1.005s0.523,0.473,0.85,0.609s0.679,0.205,1.058,0.205
		c0.375,0,0.724-0.068,1.046-0.205s0.604-0.34,0.844-0.609s0.429-0.604,0.565-1.005S29.717,131.763,29.717,131.235z"/>
	<path fill="#39B54A" d="M35.559,134.446c0.285,0,0.538-0.033,0.759-0.1s0.413-0.16,0.577-0.281s0.301-0.267,0.41-0.437
		s0.193-0.358,0.252-0.565c0.039-0.129,0.066-0.272,0.082-0.431s0.023-0.312,0.023-0.46v-4.863h0.955v4.84
		c0,0.184-0.01,0.375-0.029,0.574s-0.051,0.385-0.094,0.557c-0.074,0.289-0.186,0.557-0.334,0.803s-0.342,0.459-0.58,0.639
		s-0.524,0.32-0.858,0.422s-0.726,0.152-1.175,0.152c-0.43,0-0.807-0.047-1.131-0.141s-0.603-0.224-0.835-0.39
		s-0.423-0.363-0.571-0.592s-0.264-0.478-0.346-0.747c-0.059-0.195-0.101-0.404-0.126-0.627s-0.038-0.439-0.038-0.65v-4.84h0.955
		v4.863c0,0.176,0.013,0.356,0.038,0.542s0.065,0.354,0.12,0.507c0.137,0.379,0.364,0.678,0.683,0.896
		S35.036,134.446,35.559,134.446z"/>
	<path fill="#39B54A" d="M39.79,135.149l3.193-7.84h0.826l3.193,7.84h-1.037l-0.936-2.361h-3.278l-0.936,2.361H39.79z
		 M43.387,128.528c-0.35,0.976-0.684,1.862-1.002,2.66l-0.293,0.738h2.598l-0.297-0.738c-0.322-0.812-0.649-1.699-0.983-2.661
		H43.387z M42.831,126.085c0.145-0.008,0.274-0.017,0.39-0.026s0.214-0.027,0.296-0.053s0.145-0.062,0.188-0.111
		s0.064-0.114,0.064-0.196c0-0.074-0.021-0.134-0.062-0.179s-0.093-0.079-0.155-0.103s-0.133-0.038-0.211-0.044
		s-0.154-0.009-0.229-0.009c-0.148,0-0.277,0.011-0.387,0.032s-0.197,0.044-0.264,0.067v-0.627c0.07-0.031,0.166-0.058,0.287-0.079
		s0.283-0.032,0.486-0.032c0.137,0,0.278,0.015,0.425,0.044s0.28,0.082,0.401,0.158s0.221,0.178,0.299,0.305
		s0.117,0.288,0.117,0.483c0,0.148-0.024,0.272-0.073,0.372s-0.115,0.181-0.199,0.243s-0.182,0.111-0.293,0.146
		s-0.229,0.064-0.354,0.088l-0.053,0.328h-0.545L42.831,126.085z"/>
	<path fill="#39B54A" d="M52.229,131.681c0.48,0.691,0.955,1.402,1.424,2.133h0.035c-0.051-0.762-0.076-1.539-0.076-2.332v-4.172
		h0.961v7.84h-0.955l-3.076-4.371c-0.531-0.762-1.006-1.473-1.424-2.133h-0.035c0.051,0.715,0.076,1.549,0.076,2.502v4.002h-0.955
		v-7.84h0.949L52.229,131.681z"/>
	<path fill="#39B54A" d="M61.686,131.979h-1.787v-0.861h2.742v3.791c-0.082,0.043-0.202,0.087-0.36,0.132s-0.339,0.087-0.542,0.126
		s-0.421,0.07-0.653,0.094s-0.462,0.035-0.688,0.035c-0.672,0-1.265-0.092-1.778-0.275s-0.944-0.443-1.292-0.779
		s-0.611-0.744-0.791-1.225s-0.27-1.016-0.27-1.605c0-0.641,0.099-1.223,0.295-1.746s0.482-0.971,0.855-1.342
		s0.825-0.657,1.354-0.858s1.112-0.302,1.749-0.302c0.172,0,0.344,0.007,0.516,0.021s0.336,0.033,0.492,0.059
		s0.301,0.056,0.434,0.091s0.244,0.072,0.334,0.111v0.844c-0.234-0.078-0.504-0.144-0.809-0.196s-0.609-0.079-0.914-0.079
		c-0.445,0-0.87,0.067-1.274,0.202s-0.761,0.339-1.069,0.612s-0.555,0.616-0.738,1.028s-0.275,0.896-0.275,1.45
		c0,0.543,0.076,1.012,0.229,1.406s0.368,0.721,0.647,0.979c0.279,0.258,0.618,0.448,1.016,0.571
		c0.397,0.123,0.84,0.185,1.327,0.185c0.226,0,0.448-0.012,0.668-0.035s0.415-0.057,0.585-0.1V131.979z"/>
	<path fill="#39B54A" d="M70.297,128.013c-0.439,0-0.849,0.069-1.231,0.208s-0.713,0.346-0.994,0.621s-0.502,0.617-0.665,1.025
		s-0.243,0.884-0.243,1.427c0,0.539,0.075,1.007,0.226,1.403c0.15,0.396,0.364,0.725,0.641,0.984c0.276,0.26,0.61,0.452,0.999,0.577
		c0.39,0.125,0.824,0.188,1.302,0.188c0.13,0,0.269-0.007,0.415-0.021c0.146-0.014,0.293-0.033,0.442-0.059s0.292-0.055,0.433-0.088
		c0.14-0.033,0.266-0.069,0.376-0.108v0.844c-0.23,0.09-0.498,0.159-0.803,0.208s-0.617,0.073-0.938,0.073
		c-0.652,0-1.23-0.091-1.734-0.272s-0.927-0.442-1.269-0.782s-0.601-0.755-0.776-1.245s-0.264-1.046-0.264-1.667
		c0-0.609,0.093-1.17,0.278-1.682s0.453-0.951,0.803-1.318s0.773-0.653,1.271-0.858s1.058-0.308,1.679-0.308
		c0.164,0,0.326,0.007,0.486,0.021s0.313,0.033,0.46,0.059s0.282,0.056,0.407,0.091s0.232,0.072,0.322,0.111v0.844
		c-0.237-0.078-0.497-0.144-0.777-0.196S70.582,128.013,70.297,128.013z"/>
	<path fill="#39B54A" d="M72.79,135.149l3.193-7.84h0.826l3.193,7.84h-1.037l-0.936-2.361h-3.278l-0.936,2.361H72.79z
		 M76.387,128.528c-0.35,0.976-0.684,1.862-1.002,2.66l-0.293,0.738h2.598l-0.297-0.738c-0.322-0.812-0.649-1.699-0.983-2.661
		H76.387z M77.922,125.446l-1.061,1.447h-0.814l0.855-1.447H77.922z"/>
	<path fill="#39B54A" d="M88.094,131.235c0,0.594-0.085,1.139-0.256,1.635s-0.415,0.924-0.732,1.283s-0.7,0.64-1.148,0.841
		s-0.948,0.302-1.502,0.302c-0.574,0-1.087-0.101-1.541-0.302c-0.453-0.201-0.837-0.481-1.151-0.841s-0.554-0.787-0.721-1.283
		s-0.25-1.041-0.25-1.635c0-0.598,0.086-1.146,0.259-1.644c0.172-0.498,0.417-0.927,0.732-1.286s0.698-0.64,1.148-0.841
		c0.449-0.201,0.953-0.302,1.511-0.302c0.57,0,1.08,0.101,1.532,0.302c0.451,0.201,0.834,0.481,1.148,0.841s0.554,0.788,0.721,1.286
		S88.094,130.638,88.094,131.235z M87.145,131.235c0-0.527-0.069-0.992-0.208-1.395s-0.329-0.738-0.571-1.008
		c-0.243-0.27-0.529-0.474-0.859-0.612c-0.33-0.139-0.685-0.208-1.063-0.208s-0.733,0.069-1.063,0.208
		c-0.33,0.139-0.616,0.343-0.859,0.612s-0.433,0.605-0.572,1.008c-0.138,0.402-0.207,0.867-0.207,1.395s0.07,0.991,0.21,1.392
		c0.14,0.4,0.332,0.735,0.574,1.005c0.243,0.27,0.529,0.473,0.859,0.609c0.33,0.137,0.687,0.205,1.069,0.205
		c0.379,0,0.731-0.068,1.058-0.205c0.326-0.137,0.61-0.34,0.853-0.609c0.243-0.27,0.433-0.604,0.571-1.005
		S87.145,131.763,87.145,131.235z"/>
	<path fill="#39B54A" d="M9.625,149.55H8.67v-6.979H6.051v-0.861h6.193v0.861H9.625V149.55z"/>
	<path fill="#39B54A" d="M14.43,146.303v3.247h-0.955v-7.84h2.031c0.343,0,0.635,0.013,0.875,0.038
		c0.24,0.025,0.459,0.065,0.659,0.12c0.546,0.148,0.964,0.401,1.252,0.759s0.433,0.804,0.433,1.339c0,0.316-0.051,0.6-0.152,0.85
		s-0.244,0.467-0.428,0.65s-0.403,0.334-0.659,0.451s-0.54,0.203-0.853,0.258v0.023l2.32,3.352h-0.955l-2.414-3.247H14.43z
		 M14.43,142.571v2.871h0.943c0.293,0,0.543-0.01,0.75-0.029s0.393-0.055,0.557-0.105c0.332-0.102,0.588-0.264,0.768-0.486
		s0.27-0.514,0.27-0.873c-0.004-0.336-0.09-0.606-0.258-0.812s-0.4-0.353-0.697-0.442c-0.141-0.043-0.309-0.074-0.504-0.094
		s-0.443-0.029-0.744-0.029H14.43z"/>
	<path fill="#39B54A" d="M21.532,148.688h4.02v0.861h-4.975v-7.84h4.758v0.861h-3.803v2.531h3.381v0.861h-3.381V148.688z
		 M23.43,139.846l1.266,1.447H23.77l-0.803-0.885h-0.023l-0.797,0.885h-0.926l1.266-1.447H23.43z"/>
	<path fill="#39B54A" d="M31.217,146.081c0.48,0.691,0.955,1.402,1.424,2.133h0.035c-0.051-0.762-0.076-1.54-0.076-2.333v-4.172
		h0.961v7.84h-0.955l-3.076-4.372c-0.531-0.762-1.006-1.473-1.424-2.133h-0.035c0.051,0.715,0.076,1.549,0.076,2.502v4.002h-0.955
		v-7.84h0.949L31.217,146.081z"/>
	<path fill="#39B54A" d="M39.942,149.55h-0.955v-6.979h-2.619v-0.861h6.193v0.861h-2.619V149.55z"/>
	<path fill="#39B54A" d="M44.747,146.303v3.247h-0.955v-7.84h2.031c0.343,0,0.635,0.013,0.875,0.038
		c0.24,0.025,0.459,0.065,0.659,0.12c0.546,0.148,0.964,0.401,1.252,0.759s0.433,0.804,0.433,1.339c0,0.316-0.051,0.6-0.152,0.85
		s-0.244,0.467-0.428,0.65s-0.403,0.334-0.659,0.451s-0.54,0.203-0.853,0.258v0.023l2.32,3.352h-0.955l-2.414-3.247H44.747z
		 M44.747,142.571v2.871h0.943c0.293,0,0.543-0.01,0.75-0.029s0.393-0.055,0.557-0.105c0.332-0.102,0.588-0.264,0.768-0.486
		s0.27-0.514,0.27-0.873c-0.004-0.336-0.09-0.606-0.258-0.812s-0.4-0.353-0.697-0.442c-0.141-0.043-0.309-0.074-0.504-0.094
		s-0.443-0.029-0.744-0.029H44.747z"/>
	<path fill="#39B54A" d="M50.102,149.55l3.193-7.84h0.826l3.193,7.84h-1.037l-0.936-2.362h-3.278l-0.936,2.362H50.102z
		 M53.7,142.928c-0.35,0.976-0.684,1.862-1.002,2.66l-0.293,0.738h2.598l-0.297-0.738c-0.322-0.812-0.649-1.699-0.983-2.661H53.7z
		 M53.178,151.39v-1.014h0.955v1.014H53.178z"/>
	<path fill="#39B54A" d="M62.67,149.55h-0.439l-1.975-4.682c-0.273-0.645-0.547-1.346-0.82-2.104h-0.047
		c0.055,1.09,0.082,2.088,0.082,2.994v3.792h-0.955v-7.84h1.377l1.846,4.436c0.211,0.508,0.443,1.119,0.697,1.834h0.029
		c0.281-0.793,0.514-1.404,0.697-1.834l1.846-4.436h1.377v7.84H65.43v-3.792c0-0.887,0.027-1.885,0.082-2.994h-0.047
		c-0.289,0.801-0.562,1.502-0.82,2.104L62.67,149.55z"/>
	<path fill="#39B54A" d="M77.131,145.594c0,0.457-0.057,0.887-0.17,1.289s-0.284,0.765-0.513,1.087
		c-0.229,0.323-0.514,0.601-0.855,0.835s-0.741,0.416-1.198,0.545c-0.262,0.074-0.545,0.126-0.85,0.155s-0.635,0.044-0.99,0.044
		H70.78v-7.84h1.793c0.355,0,0.686,0.015,0.99,0.044s0.588,0.081,0.85,0.155c0.457,0.129,0.856,0.309,1.198,0.539
		s0.625,0.503,0.85,0.817s0.393,0.668,0.504,1.061S77.131,145.141,77.131,145.594z M76.182,145.594c0-0.754-0.166-1.365-0.499-1.834
		c-0.332-0.469-0.809-0.801-1.431-0.996c-0.237-0.074-0.503-0.125-0.796-0.152s-0.623-0.041-0.991-0.041h-0.73v6.118h0.73
		c0.368,0,0.698-0.014,0.991-0.041s0.559-0.078,0.796-0.152c0.622-0.195,1.099-0.538,1.431-1.026
		C76.016,146.981,76.182,146.356,76.182,145.594z"/>
	<path fill="#39B54A" d="M86.928,142.131c0,0.258-0.042,0.483-0.126,0.677s-0.209,0.364-0.375,0.513s-0.375,0.281-0.627,0.398
		s-0.546,0.229-0.882,0.334v2.496c0,0.188-0.01,0.379-0.029,0.574s-0.051,0.381-0.094,0.557c-0.074,0.289-0.186,0.557-0.334,0.803
		s-0.342,0.459-0.58,0.639s-0.524,0.32-0.858,0.422s-0.726,0.152-1.175,0.152c-0.43,0-0.807-0.047-1.131-0.141
		s-0.603-0.224-0.835-0.39s-0.423-0.363-0.571-0.592s-0.264-0.478-0.346-0.748c-0.059-0.199-0.101-0.409-0.126-0.63
		s-0.038-0.437-0.038-0.647v-4.84h0.955v4.863c0,0.176,0.013,0.356,0.038,0.542s0.065,0.354,0.12,0.507
		c0.137,0.379,0.364,0.678,0.683,0.897s0.739,0.328,1.263,0.328c0.285,0,0.538-0.033,0.759-0.1s0.413-0.16,0.577-0.281
		s0.301-0.267,0.41-0.437c0.109-0.17,0.193-0.359,0.252-0.566c0.039-0.129,0.066-0.272,0.082-0.431s0.023-0.312,0.023-0.46v-4.863
		h0.955v1.723c0.207-0.078,0.379-0.16,0.516-0.246s0.246-0.179,0.328-0.278s0.14-0.209,0.173-0.328s0.05-0.253,0.05-0.401
		c0-0.199-0.021-0.377-0.064-0.533s-0.109-0.309-0.199-0.457h0.996c0.074,0.148,0.128,0.294,0.161,0.437
		S86.928,141.936,86.928,142.131z M81.467,139.846l0.855,1.447h-0.814l-1.061-1.447H81.467z"/>
	<path fill="#39B54A" d="M91.95,146.081c0.48,0.691,0.955,1.402,1.424,2.133h0.035c-0.051-0.762-0.076-1.54-0.076-2.333v-4.172
		h0.961v7.84h-0.955l-3.076-4.372c-0.531-0.762-1.006-1.473-1.424-2.133h-0.035c0.051,0.715,0.076,1.549,0.076,2.502v4.002h-0.955
		v-7.84h0.949L91.95,146.081z"/>
	<path fill="#39B54A" d="M101.407,146.379H99.62v-0.861h2.742v3.792c-0.082,0.043-0.202,0.087-0.36,0.132s-0.339,0.087-0.542,0.126
		s-0.421,0.07-0.653,0.094s-0.462,0.035-0.688,0.035c-0.672,0-1.265-0.092-1.778-0.275s-0.944-0.443-1.292-0.779
		s-0.611-0.745-0.791-1.225s-0.27-1.016-0.27-1.605c0-0.641,0.099-1.223,0.295-1.746s0.482-0.971,0.855-1.342
		s0.825-0.657,1.354-0.858s1.112-0.302,1.749-0.302c0.172,0,0.344,0.007,0.516,0.021s0.336,0.033,0.492,0.059
		s0.301,0.056,0.434,0.091s0.244,0.072,0.334,0.111v0.844c-0.234-0.078-0.504-0.144-0.809-0.196s-0.609-0.079-0.914-0.079
		c-0.445,0-0.87,0.067-1.274,0.202s-0.761,0.339-1.069,0.612s-0.555,0.616-0.738,1.028s-0.275,0.896-0.275,1.45
		c0,0.543,0.076,1.012,0.229,1.406s0.368,0.721,0.647,0.979c0.279,0.258,0.618,0.448,1.016,0.571
		c0.397,0.123,0.84,0.185,1.327,0.185c0.226,0,0.448-0.012,0.668-0.035s0.415-0.057,0.585-0.1V146.379z"/>
	<path fill="#39B54A" d="M36.804,159.286l2.168-3.176h1.061l-2.66,3.861l2.783,3.979h-1.072l-2.297-3.322h-0.023l-2.297,3.322
		h-1.084l2.807-4.002l-2.637-3.838h1.049l2.18,3.176H36.804z"/>
	<path fill="#39B54A" d="M42.224,163.089h4.02v0.861h-4.975v-7.84h4.758v0.861h-3.803v2.531h3.381v0.861h-3.381V163.089z"/>
	<path fill="#39B54A" d="M54.095,159.896c0.242,0.035,0.46,0.1,0.653,0.193s0.359,0.214,0.498,0.36s0.245,0.32,0.319,0.521
		s0.111,0.431,0.111,0.688c0,0.184-0.027,0.376-0.081,0.577c-0.054,0.201-0.144,0.396-0.27,0.586
		c-0.126,0.189-0.29,0.364-0.493,0.524c-0.203,0.16-0.455,0.291-0.756,0.393c-0.232,0.078-0.489,0.133-0.771,0.164
		c-0.282,0.031-0.62,0.047-1.015,0.047h-2.005v-7.84h1.935c0.178,0,0.339,0.003,0.483,0.009c0.145,0.006,0.278,0.015,0.4,0.026
		s0.234,0.026,0.339,0.044s0.203,0.038,0.295,0.062c0.243,0.066,0.464,0.157,0.663,0.272c0.199,0.115,0.368,0.253,0.507,0.413
		c0.139,0.16,0.246,0.342,0.322,0.545c0.075,0.203,0.113,0.424,0.113,0.662c0,0.191-0.022,0.375-0.067,0.551
		s-0.117,0.338-0.217,0.486s-0.229,0.281-0.387,0.398s-0.351,0.215-0.577,0.293V159.896z M52.695,159.503
		c0.188,0,0.35-0.009,0.486-0.026s0.26-0.044,0.369-0.079c0.293-0.098,0.507-0.25,0.642-0.457s0.202-0.451,0.202-0.732
		c0-0.289-0.07-0.525-0.211-0.709s-0.361-0.32-0.662-0.41c-0.148-0.043-0.32-0.073-0.516-0.091s-0.426-0.026-0.691-0.026h-1.072
		v2.531H52.695z M51.242,160.364v2.725h1.154c0.273,0,0.527-0.013,0.762-0.038s0.434-0.065,0.598-0.12
		c0.18-0.059,0.332-0.134,0.457-0.226s0.226-0.193,0.302-0.305s0.131-0.229,0.164-0.354s0.05-0.252,0.05-0.381
		c0-0.148-0.018-0.288-0.053-0.419s-0.093-0.248-0.173-0.352s-0.186-0.194-0.316-0.272s-0.294-0.139-0.489-0.182
		c-0.117-0.027-0.251-0.047-0.401-0.059s-0.337-0.018-0.56-0.018H51.242z"/>
	<path fill="#39B54A" d="M60.435,163.247c0.285,0,0.538-0.033,0.759-0.1s0.413-0.16,0.577-0.281s0.301-0.267,0.41-0.437
		s0.193-0.358,0.252-0.565c0.039-0.129,0.066-0.272,0.082-0.431s0.023-0.312,0.023-0.46v-4.863h0.955v4.84
		c0,0.184-0.01,0.375-0.029,0.574s-0.051,0.385-0.094,0.557c-0.074,0.289-0.186,0.557-0.334,0.803s-0.342,0.459-0.58,0.639
		s-0.524,0.32-0.858,0.422s-0.726,0.152-1.175,0.152c-0.43,0-0.807-0.047-1.131-0.141s-0.603-0.224-0.835-0.39
		s-0.423-0.363-0.571-0.592s-0.264-0.478-0.346-0.747c-0.059-0.195-0.101-0.404-0.126-0.627s-0.038-0.439-0.038-0.65v-4.84h0.955
		v4.863c0,0.176,0.013,0.356,0.038,0.542s0.065,0.354,0.12,0.507c0.137,0.379,0.364,0.678,0.683,0.896
		S59.912,163.247,60.435,163.247z"/>
	<path fill="#39B54A" d="M68.503,160.798v3.152h-0.955v-3.152l-2.854-4.688h1.043l2.273,3.809h0.029l2.273-3.809h1.043
		L68.503,160.798z M69.453,154.247l-1.061,1.447h-0.814l0.855-1.447H69.453z"/>
	<path fill="#39B54A" d="M75.4,163.95h-0.955v-6.979h-2.619v-0.861h6.193v0.861H75.4V163.95z"/>
</g>
</svg>
