<?xml version="1.0" encoding="utf-8"?>
<!-- Generator: Adobe Illustrator 17.0.0, SVG Export Plug-In . SVG Version: 6.00 Build 0)  -->
<!DOCTYPE svg PUBLIC "-//W3C//DTD SVG 1.1//EN" "http://www.w3.org/Graphics/SVG/1.1/DTD/svg11.dtd">
<svg version="1.1" id="Layer_1" xmlns="http://www.w3.org/2000/svg" xmlns:xlink="http://www.w3.org/1999/xlink" x="0px" y="0px"
	 width="300px" height="100px" viewBox="0 0 300 100" enable-background="new 0 0 300 100" xml:space="preserve">
<g>
	<path fill="#FFFFFF" d="M50.75,48.634v-15.09h-24.86v15.09h-9.77V12.45h9.77v13.168h24.86V12.45h9.77v36.184H50.75z"/>
	<path fill="#FFFFFF" d="M100.918,41.787H80.745l-3.397,6.847H66.445L85.38,12.45h10.903l18.935,36.184h-10.903L100.918,41.787z
		 M84.248,34.729h13.22l-6.584-13.326L84.248,34.729z"/>
	<path fill="#FFFFFF" d="M141.28,48.634h-11.377L111.6,12.45h10.903l13.168,27.23l13.141-27.23h10.903L141.28,48.634z"/>
	<path fill="#FFFFFF" d="M165.64,48.634V12.45h9.77v36.184H165.64z"/>
	<path fill="#FFFFFF" d="M222.787,47.58c-1.282,0.421-2.607,0.786-3.977,1.093c-1.369,0.307-2.813,0.54-4.332,0.698
		c-1.519,0.158-3.147,0.237-4.885,0.237c-3.687,0-7.08-0.395-10.179-1.185c-3.099-0.79-5.767-1.98-8.006-3.568
		c-2.238-1.589-3.981-3.573-5.228-5.952c-1.247-2.379-1.87-5.157-1.87-8.335s0.623-5.956,1.87-8.335
		c1.247-2.379,2.989-4.363,5.228-5.952c2.238-1.589,4.907-2.778,8.006-3.568c3.099-0.79,6.492-1.185,10.179-1.185
		c1.738,0,3.366,0.079,4.885,0.237c1.519,0.158,2.963,0.391,4.332,0.698c1.369,0.307,2.695,0.672,3.977,1.093
		c1.282,0.421,2.554,0.895,3.819,1.422v8.796c-1.001-0.544-2.054-1.084-3.16-1.62c-1.106-0.535-2.326-1.018-3.661-1.448
		c-1.334-0.43-2.8-0.781-4.398-1.053c-1.598-0.272-3.397-0.408-5.399-0.408c-3.072,0-5.623,0.316-7.65,0.948
		c-2.028,0.632-3.647,1.475-4.859,2.528c-1.211,1.053-2.063,2.26-2.555,3.621c-0.492,1.361-0.737,2.77-0.737,4.227
		c0,0.966,0.105,1.918,0.316,2.857c0.211,0.939,0.562,1.826,1.053,2.66s1.132,1.602,1.922,2.304c0.79,0.702,1.773,1.308,2.95,1.817
		s2.55,0.909,4.121,1.198c1.571,0.29,3.384,0.435,5.438,0.435c2.001,0,3.801-0.127,5.399-0.382c1.598-0.255,3.064-0.593,4.398-1.014
		c1.334-0.421,2.554-0.9,3.661-1.435s2.159-1.084,3.16-1.646v8.796C225.341,46.685,224.069,47.159,222.787,47.58z"/>
	<path fill="#FFFFFF" d="M282.541,30.568c0,3.108-0.571,5.851-1.712,8.23c-1.141,2.379-2.774,4.367-4.898,5.965
		s-4.701,2.805-7.729,3.621c-3.029,0.816-6.43,1.225-10.205,1.225c-3.775,0-7.185-0.408-10.231-1.225
		c-3.046-0.816-5.64-2.023-7.782-3.621c-2.142-1.598-3.792-3.586-4.951-5.965c-1.159-2.379-1.738-5.122-1.738-8.23
		c0-3.108,0.579-5.851,1.738-8.23c1.159-2.379,2.809-4.367,4.951-5.965c2.142-1.598,4.736-2.805,7.782-3.621
		c3.046-0.816,6.456-1.225,10.231-1.225c3.775,0,7.176,0.408,10.205,1.225c3.029,0.816,5.605,2.023,7.729,3.621
		s3.757,3.586,4.898,5.965S282.541,27.46,282.541,30.568z M272.665,30.568c0-1.352-0.215-2.699-0.645-4.042s-1.194-2.55-2.291-3.621
		s-2.594-1.94-4.49-2.607s-4.31-1.001-7.242-1.001c-1.966,0-3.696,0.154-5.188,0.461c-1.492,0.307-2.783,0.733-3.871,1.277
		c-1.089,0.544-2.001,1.181-2.739,1.909s-1.326,1.51-1.764,2.344s-0.751,1.703-0.935,2.607c-0.184,0.904-0.277,1.795-0.277,2.673
		c0,0.895,0.092,1.8,0.277,2.713c0.184,0.913,0.496,1.786,0.935,2.62c0.439,0.834,1.027,1.611,1.764,2.331
		c0.737,0.72,1.65,1.347,2.739,1.883s2.379,0.957,3.871,1.264c1.492,0.307,3.222,0.461,5.188,0.461c2.932,0,5.346-0.334,7.242-1.001
		c1.896-0.667,3.393-1.536,4.49-2.607c1.097-1.071,1.861-2.278,2.291-3.621C272.45,33.267,272.665,31.92,272.665,30.568z"/>
</g>
<g>
	<path fill="#FFFFFF" d="M50.961,80.825c-0.443,4.433-4.101,8.037-9.782,8.037c-6.431,0-10.531-4.047-10.531-10.394
		c0-4.516,2.798-10.392,10.531-10.392c4.323,0,9.006,1.968,9.616,7.178h-2.05c-0.61-3.77-3.991-5.294-7.566-5.294
		c-4.905,0-8.315,2.744-8.315,8.508c0,4.407,2.3,8.508,8.315,8.508c4.711,0,7.039-2.382,7.732-6.151H50.961z"/>
	<path fill="#FFFFFF" d="M66.12,68.076c5.626,0,10.752,3.408,10.752,10.392c0,6.984-5.126,10.394-10.752,10.394
		s-10.752-3.41-10.752-10.394C55.368,71.485,60.494,68.076,66.12,68.076z M66.12,86.976c4.352,0,8.536-2.548,8.536-8.508
		c0-5.958-4.184-8.508-8.536-8.508c-4.35,0-8.535,2.55-8.535,8.508C57.586,84.428,61.77,86.976,66.12,86.976z"/>
	<path fill="#FFFFFF" d="M82.304,68.576h10.781c3.353,0,6.429,1.192,6.429,5.348c0,2.107-1.303,4.213-3.879,4.795v0.055
		c2.8,0.444,3.381,2.245,3.519,5.487c0.057,1.247,0.223,3.659,0.694,4.102H97.63c-0.36-0.416-0.498-1.884-0.526-4.047
		c-0.055-3.49-1.385-4.655-4.795-4.655h-7.953v8.702h-2.052V68.576z M84.356,77.776h8.674c2.245,0,4.268-0.831,4.268-3.852
		c0-2.91-2.189-3.464-4.074-3.464h-8.868V77.776z"/>
	<path fill="#FFFFFF" d="M105.058,68.576h10.67c3.048,0,5.958,1.524,5.958,5.708c0,3.742-2.466,5.765-6.873,5.765h-7.703v8.313
		h-2.052V68.576z M107.11,78.163h7.926c3.437,0,4.434-1.579,4.434-3.879c0-2.966-1.663-3.824-4.018-3.824h-8.342V78.163z"/>
	<path fill="#FFFFFF" d="M136.429,68.076c5.626,0,10.752,3.408,10.752,10.392c0,6.984-5.126,10.394-10.752,10.394
		c-5.626,0-10.752-3.41-10.752-10.394C125.676,71.485,130.803,68.076,136.429,68.076z M136.429,86.976
		c4.352,0,8.536-2.548,8.536-8.508c0-5.958-4.184-8.508-8.536-8.508c-4.35,0-8.535,2.55-8.535,8.508
		C127.894,84.428,132.078,86.976,136.429,86.976z"/>
	<path fill="#FFFFFF" d="M152.614,68.576h10.781c3.353,0,6.429,1.192,6.429,5.348c0,2.107-1.303,4.213-3.879,4.795v0.055
		c2.8,0.444,3.381,2.245,3.519,5.487c0.055,1.247,0.223,3.659,0.694,4.102h-2.218c-0.36-0.416-0.498-1.884-0.526-4.047
		c-0.055-3.49-1.385-4.655-4.794-4.655h-7.953v8.702h-2.052V68.576z M154.666,77.776h8.674c2.245,0,4.268-0.831,4.268-3.852
		c0-2.91-2.189-3.464-4.074-3.464h-8.868V77.776z"/>
	<path fill="#FFFFFF" d="M188.365,82.349h-10.421l-2.689,6.013h-2.216l8.979-19.787h2.384l8.979,19.787h-2.384L188.365,82.349z
		 M183.182,70.626l-4.406,9.839h8.758L183.182,70.626z"/>
	<path fill="#FFFFFF" d="M201.612,70.46h-7.76v-1.884h17.57v1.884h-7.76v17.902h-2.05V70.46z"/>
	<path fill="#FFFFFF" d="M215.635,68.576h2.052v19.787h-2.052V68.576z"/>
	<path fill="#FFFFFF" d="M233.759,68.076c5.626,0,10.752,3.408,10.752,10.392c0,6.984-5.126,10.394-10.752,10.394
		s-10.752-3.41-10.752-10.394C223.006,71.485,228.133,68.076,233.759,68.076z M233.759,86.976c4.352,0,8.536-2.548,8.536-8.508
		c0-5.958-4.184-8.508-8.536-8.508c-4.35,0-8.535,2.55-8.535,8.508C225.224,84.428,229.409,86.976,233.759,86.976z"/>
	<path fill="#FFFFFF" d="M249.611,68.576h2.466l13.829,16.905h0.057V68.576h2.05v19.787h-2.384l-13.912-16.905h-0.055v16.905h-2.05
		V68.576z"/>
</g>
</svg>
