<?xml version="1.0" encoding="utf-8"?>
<!-- Generator: Adobe Illustrator 17.1.0, SVG Export Plug-In . SVG Version: 6.00 Build 0)  -->
<!DOCTYPE svg PUBLIC "-//W3C//DTD SVG 1.1//EN" "http://www.w3.org/Graphics/SVG/1.1/DTD/svg11.dtd">
<svg version="1.1" id="Layer_1" xmlns="http://www.w3.org/2000/svg" xmlns:xlink="http://www.w3.org/1999/xlink" x="0px" y="0px"
	 viewBox="0 0 100 100" enable-background="new 0 0 100 100" xml:space="preserve">
<path fill="#FFFFFF" d="M29.8,15.2C36,11.6,42.7,9.8,50,9.8c7.3,0,14,1.8,20.2,5.4c6.2,3.6,11,8.5,14.6,14.6
	c3.6,6.2,5.4,12.9,5.4,20.2c0,7.3-1.8,14-5.4,20.2c-3.6,6.2-8.5,11-14.6,14.6C64,88.4,57.3,90.2,50,90.2c-7.3,0-14-1.8-20.2-5.4
	c-6.2-3.6-11-8.5-14.6-14.6C11.6,64,9.8,57.3,9.8,50c0-7.3,1.8-14,5.4-20.2C18.8,23.7,23.7,18.8,29.8,15.2z M69.7,30.3
	c-5.5-5.5-12-8.2-19.7-8.2c-7.7,0-14.3,2.7-19.7,8.2c-5.5,5.5-8.2,12-8.2,19.7c0,7.7,2.7,14.3,8.2,19.8c5.5,5.4,12,8.2,19.7,8.2
	c7.7,0,14.3-2.7,19.7-8.2c5.5-5.4,8.2-12,8.2-19.8C77.9,42.3,75.2,35.7,69.7,30.3z M30.5,43.4c0.7-0.7,1.6-1,2.6-1
	c1,0,1.9,0.4,2.6,1.1c0.7,0.7,1.1,1.6,1.1,2.6c0,1-0.4,1.9-1.1,2.6c-0.7,0.7-1.6,1.1-2.6,1.1c-1,0-1.8-0.4-2.6-1.1
	c-0.7-0.7-1.1-1.6-1.1-2.6C29.4,45,29.8,44.1,30.5,43.4z M40.5,29.1c1,0,1.8,0.4,2.6,1.1c0.7,0.7,1.1,1.6,1.1,2.6s-0.4,1.9-1.1,2.6
	c-0.7,0.7-1.6,1.1-2.6,1.1c-1,0-1.9-0.4-2.6-1.1c-0.7-0.7-1.1-1.6-1.1-2.6c0-1,0.4-1.9,1.1-2.6C38.6,29.5,39.4,29.1,40.5,29.1z
	 M57.6,34.8L57.6,34.8c-0.3-0.7-0.5-1.3-0.5-2c0-1,0.4-1.9,1.1-2.6c0.7-0.7,1.6-1.1,2.6-1.1c1,0,1.8,0.4,2.6,1.1
	c0.7,0.7,1.1,1.6,1.1,2.6s-0.4,1.9-1.1,2.6c-0.7,0.7-1.6,1.1-2.6,1.1c-0.6,0-1.3-0.2-2-0.7l-3.7,9.8c0.8,1,1.1,2.1,1.1,3.4
	c0,1.6-0.6,3-1.7,4.2C53.3,54.4,52,55,50.3,55c-1.6,0-3-0.6-4.1-1.7c-1.1-1.1-1.7-2.5-1.7-4.2c0-1.4,0.5-2.7,1.4-3.8
	c0.9-1.1,2.1-1.8,3.5-2L57.6,34.8z M64.9,43.5c0.7-0.7,1.6-1.1,2.6-1.1c1,0,1.9,0.3,2.6,1c0.7,0.7,1,1.6,1,2.6c0,1-0.4,1.9-1.1,2.6
	c-0.7,0.7-1.6,1.1-2.6,1.1c-1,0-1.9-0.4-2.6-1.1c-0.7-0.7-1.1-1.6-1.1-2.6C63.8,45,64.1,44.2,64.9,43.5z"/>
</svg>
