<?xml version="1.0" encoding="utf-8"?>
<!-- Generator: Adobe Illustrator 17.1.0, SVG Export Plug-In . SVG Version: 6.00 Build 0)  -->
<!DOCTYPE svg PUBLIC "-//W3C//DTD SVG 1.1//EN" "http://www.w3.org/Graphics/SVG/1.1/DTD/svg11.dtd">
<svg version="1.1" id="Layer_1" xmlns="http://www.w3.org/2000/svg" xmlns:xlink="http://www.w3.org/1999/xlink" x="0px" y="0px"
	 viewBox="0 0 100 100" enable-background="new 0 0 100 100" xml:space="preserve">
<path fill="#FFFFFF" d="M88.4,37.2V82H75.6V69.2H24.4V82H11.6V37.2h12.8L30.8,50h38.4l6.4-12.8H88.4z M72.2,35.3l-6-22.2
	c-0.1-0.5-0.3-0.9-0.6-1.2c-0.3-0.3-0.7-0.4-1.2-0.4H35.6c-0.4,0-0.8,0.2-1.2,0.4c-0.3,0.3-0.6,0.7-0.6,1.2l-6,22.2l2.6,7.9h37.9
	L72.2,35.3z M68,77.2l2.4,9.7c0.1,0.4,0,0.8-0.2,1.1c-0.2,0.3-0.6,0.4-1,0.4H30.8c-0.4,0-0.8-0.1-1-0.4c-0.2-0.3-0.3-0.7-0.2-1.1
	l2.4-9.7c0.1-0.4,0.3-0.8,0.7-1.1c0.4-0.3,0.8-0.4,1.2-0.4h32c0.4,0,0.8,0.2,1.2,0.4C67.7,76.4,67.9,76.7,68,77.2z"/>
</svg>
