<?xml version="1.0" encoding="utf-8"?>
<!-- Generator: Adobe Illustrator 17.1.0, SVG Export Plug-In . SVG Version: 6.00 Build 0)  -->
<!DOCTYPE svg PUBLIC "-//W3C//DTD SVG 1.1//EN" "http://www.w3.org/Graphics/SVG/1.1/DTD/svg11.dtd">
<svg version="1.1" id="Layer_1" xmlns="http://www.w3.org/2000/svg" xmlns:xlink="http://www.w3.org/1999/xlink" x="0px" y="0px"
	 viewBox="0 0 142 218" enable-background="new 0 0 142 218" xml:space="preserve">
<g>
	<g>
		<path fill="#0F5959" d="M65.5,139.7v-5.9c0-0.1,0-0.5,0-1.1c0-0.7,0-1.1,0-1.4h0l-2.8,8.4h-1.3l-2.8-8.4h0c0,0.3,0,0.8,0,1.4
			c0,0.6,0,1,0,1.1v5.9h-1.3v-10h1.9l2.9,8.5h0l2.8-8.5h1.9v10H65.5z"/>
		<path fill="#0F5959" d="M70.5,136.8l-1.1,2.9h-1.4l3.8-10h1.5l3.6,10h-1.5l-1-2.9H70.5z M70.5,126.8h0.7c0.2,0.7,0.6,1.1,1.4,1.1
			c0.8,0,1.3-0.4,1.4-1.1h0.7c-0.1,1.3-0.8,1.9-2.1,1.9C71.3,128.7,70.6,128.1,70.5,126.8z M74.1,135.6l-1.5-4.4h0l-1.6,4.4H74.1z
			 M72,142.4V141h1.2v1.4H72z"/>
		<path fill="#0F5959" d="M80.8,130.8h-3.4v-1.2h8.2v1.2h-3.4v8.8h-1.4V130.8z"/>
		<path fill="#0F5959" d="M38.7,151.5c0,1.6-0.5,2.9-1.5,3.9l1.4,1.1l-0.7,0.8l-1.5-1.2c-0.8,0.4-1.6,0.7-2.6,0.7
			c-1.5,0-2.7-0.5-3.6-1.5c-0.9-1-1.3-2.3-1.3-3.8c0-1.5,0.4-2.8,1.3-3.8c0.9-1,2.1-1.5,3.6-1.5c1.6,0,2.8,0.5,3.6,1.5
			C38.3,148.8,38.7,150,38.7,151.5z M37.3,151.5c0-1.2-0.3-2.2-0.9-2.9s-1.5-1.2-2.6-1.2c-1.1,0-1.9,0.4-2.6,1.2s-0.9,1.8-0.9,2.9
			c0,1.2,0.3,2.2,1,2.9c0.6,0.8,1.5,1.1,2.5,1.1c0.5,0,1-0.1,1.5-0.3l-1.1-0.8l0.7-0.8l1.3,1C36.9,153.8,37.3,152.8,37.3,151.5z"/>
		<path fill="#0F5959" d="M48.2,146.4v6.5c0,1.1-0.4,2-1.1,2.7s-1.7,1.1-3,1.1c-1.2,0-2.1-0.3-2.8-1c-0.7-0.7-1-1.5-1-2.6v-6.7h1.3
			v6.3c0,0.9,0.2,1.6,0.7,2.1c0.5,0.5,1.1,0.7,1.9,0.7c0.8,0,1.5-0.2,1.9-0.7c0.5-0.5,0.7-1.2,0.7-2.1v-6.4H48.2z"/>
		<path fill="#0F5959" d="M51.9,153.6l-1.1,2.9h-1.4l3.8-10h1.5l3.6,10h-1.5l-1-2.9H51.9z M55.4,152.4l-1.5-4.4h0l-1.6,4.4H55.4z
			 M54.3,145.6h-0.8c0-0.2,0-0.3,0.1-0.4c0.1-0.1,0.2-0.2,0.4-0.3c0.2-0.1,0.3-0.2,0.4-0.2s0.1-0.2,0.1-0.3c0-0.2-0.1-0.3-0.2-0.4
			c-0.1-0.1-0.2-0.1-0.4-0.1c-0.2,0-0.3,0-0.4,0.1c-0.1,0.1-0.2,0.2-0.2,0.4h-0.8c0-0.4,0.1-0.7,0.4-0.9c0.3-0.2,0.6-0.3,1-0.3
			c0.4,0,0.7,0.1,1,0.3s0.4,0.5,0.4,0.9c0,0.2,0,0.3-0.1,0.5s-0.2,0.3-0.4,0.4c-0.2,0.1-0.3,0.2-0.3,0.2
			C54.4,145.4,54.4,145.5,54.3,145.6z"/>
		<path fill="#0F5959" d="M66.4,146.4h1.3v10h-1.5l-5.1-8.1h0v8.1h-1.3v-10h1.6l5,8.1h0V146.4z"/>
		<path fill="#0F5959" d="M74.2,151.1h4.4v5.4h-0.9l-0.3-1.3c-0.4,0.5-0.9,0.9-1.5,1.2c-0.6,0.2-1.2,0.4-1.8,0.4
			c-1,0-1.8-0.2-2.5-0.7s-1.2-1-1.6-1.8c-0.4-0.8-0.6-1.7-0.6-2.9c0-1.4,0.4-2.7,1.3-3.7c0.9-1,2-1.5,3.5-1.5c1.1,0,2,0.3,2.8,0.9
			c0.8,0.6,1.3,1.4,1.4,2.4h-1.3c-0.2-0.7-0.5-1.2-1-1.6c-0.5-0.4-1.2-0.6-2-0.6c-1,0-1.8,0.4-2.4,1.1s-0.9,1.7-0.9,3
			c0,1.4,0.3,2.5,0.9,3.1c0.6,0.7,1.4,1,2.4,1c0.7,0,1.2-0.1,1.7-0.4c0.5-0.3,0.8-0.6,1.1-1.1c0.3-0.5,0.4-1.1,0.4-1.8h-3.1V151.1z"
			/>
		<path fill="#0F5959" d="M91.2,149.5c-0.2-0.7-0.5-1.2-0.9-1.6c-0.5-0.4-1.1-0.5-1.9-0.5c-1,0-1.8,0.4-2.4,1.1s-0.9,1.7-0.9,2.9
			c0,1.4,0.3,2.5,0.9,3.2c0.6,0.7,1.4,1,2.5,1c0.7,0,1.3-0.2,1.8-0.7s0.9-1.2,1-2.1h1.3c-0.2,1.3-0.7,2.3-1.5,2.9
			c-0.8,0.7-1.8,1-2.9,1c-1.4,0-2.5-0.5-3.3-1.4c-0.8-0.9-1.2-2.3-1.2-3.9c0-1.6,0.4-2.9,1.3-3.8c0.9-0.9,2-1.4,3.4-1.4
			c1.2,0,2.1,0.3,2.8,0.9s1.2,1.4,1.3,2.4H91.2z"/>
		<path fill="#0F5959" d="M95.8,153.6l-1.1,2.9h-1.4l3.8-10h1.5l3.6,10h-1.5l-1-2.9H95.8z M99.3,152.4l-1.5-4.4h0l-1.6,4.4H99.3z
			 M98.2,145.5h-0.9l1-2h1.5L98.2,145.5z"/>
		<path fill="#0F5959" d="M112.9,151.5c0,1.5-0.4,2.8-1.3,3.8c-0.9,1-2.1,1.5-3.6,1.5c-1.5,0-2.7-0.5-3.6-1.5
			c-0.9-1-1.3-2.3-1.3-3.8c0-1.5,0.4-2.8,1.3-3.8c0.9-1,2.1-1.5,3.6-1.5c1.6,0,2.8,0.5,3.6,1.5C112.4,148.8,112.9,150,112.9,151.5z
			 M111.5,151.5c0-1.2-0.3-2.2-0.9-2.9s-1.5-1.2-2.6-1.2c-1.1,0-1.9,0.4-2.6,1.2s-0.9,1.8-0.9,2.9c0,1.2,0.3,2.2,1,3
			c0.6,0.8,1.5,1.1,2.5,1.1c1,0,1.9-0.4,2.5-1.1S111.5,152.7,111.5,151.5z"/>
		<path fill="#0F5959" d="M42.3,164.4h-3.4v-1.2h8.2v1.2h-3.4v8.8h-1.4V164.4z"/>
		<path fill="#0F5959" d="M49.7,173.3h-1.4v-10H53c1.1,0,1.9,0.2,2.5,0.7c0.6,0.5,0.8,1.1,0.8,2c0,0.6-0.1,1.1-0.3,1.4
			c-0.2,0.4-0.6,0.7-1.1,1c0.4,0.2,0.7,0.4,0.9,0.6c0.2,0.3,0.3,0.7,0.3,1.3l0.1,1.9c0,0.3,0.1,0.5,0.1,0.7s0.2,0.2,0.4,0.3v0.2
			h-1.7c-0.1-0.3-0.1-0.6-0.2-1.1c0-0.5-0.1-1-0.1-1.4c0-0.2,0-0.4-0.1-0.6c0-0.2-0.1-0.4-0.2-0.6s-0.3-0.3-0.5-0.4
			c-0.2-0.1-0.6-0.2-1-0.2h-3.3V173.3z M49.7,167.8h3.1c0.7,0,1.3-0.1,1.6-0.4c0.3-0.3,0.5-0.7,0.5-1.3c0-0.5-0.1-0.9-0.4-1.2
			s-0.7-0.5-1.4-0.5h-3.4V167.8z"/>
		<path fill="#0F5959" d="M65.8,173.3h-7.4v-10h7.3v1.2h-6v3.1h5.5v1.2h-5.5v3.4h6.1V173.3z M61.1,162.3H60l1.4-2h1.3l1.4,2h-1.1
			L62,161L61.1,162.3z"/>
		<path fill="#0F5959" d="M74.1,163.2h1.3v10h-1.5l-5.1-8.1h0v8.1h-1.3v-10h1.6l5,8.1h0V163.2z"/>
		<path fill="#0F5959" d="M81.1,163.2h4.1c1.3,0,2.3,0.5,3.1,1.4s1.1,2.1,1.1,3.5c0,1.5-0.4,2.8-1.1,3.7s-1.8,1.4-3.1,1.4h-4V163.2z
			 M82.5,172.1h2.6c0.9,0,1.6-0.3,2.1-1c0.5-0.7,0.8-1.7,0.8-2.9c0-1.2-0.3-2.1-0.8-2.8s-1.3-1-2.2-1h-2.5V172.1z"/>
		<path fill="#0F5959" d="M92.7,170.4l-1.1,2.9h-1.4l3.8-10h1.5l3.6,10h-1.5l-1-2.9H92.7z M96.2,169.2l-1.5-4.4h0l-1.6,4.4H96.2z
			 M95.1,162.4h-0.8c0-0.2,0-0.3,0.1-0.4c0.1-0.1,0.2-0.2,0.4-0.3c0.2-0.1,0.3-0.2,0.4-0.2s0.1-0.2,0.1-0.3c0-0.2-0.1-0.3-0.2-0.4
			c-0.1-0.1-0.2-0.1-0.4-0.1c-0.2,0-0.3,0-0.4,0.1c-0.1,0.1-0.2,0.2-0.2,0.4h-0.8c0-0.4,0.1-0.7,0.4-0.9c0.3-0.2,0.6-0.3,1-0.3
			c0.4,0,0.7,0.1,1,0.3s0.4,0.5,0.4,0.9c0,0.2,0,0.3-0.1,0.5s-0.2,0.3-0.4,0.4c-0.2,0.1-0.3,0.2-0.3,0.2
			C95.2,162.2,95.2,162.3,95.1,162.4z"/>
		<path fill="#0F5959" d="M101.9,173.3h-1.4v-10h1.4V173.3z"/>
		<path fill="#0F5959" d="M32.3,190.1H31v-10h4.5c0.9,0,1.6,0.3,2.2,0.8s0.8,1.2,0.8,2c0,0.9-0.3,1.6-0.8,2.1
			c-0.5,0.6-1.3,0.8-2.2,0.8h-3.2V190.1z M32.3,184.7H35c0.7,0,1.2-0.1,1.5-0.4s0.5-0.8,0.5-1.4c0-0.5-0.2-1-0.5-1.2
			s-0.8-0.4-1.5-0.4h-2.8V184.7z"/>
		<path fill="#0F5959" d="M48,190.1h-1.4v-4.7h-5.3v4.7H40v-10h1.3v4.2h5.3V180H48V190.1z"/>
		<path fill="#0F5959" d="M51.7,187.2l-1.1,2.9h-1.4l3.8-10h1.5l3.6,10h-1.5l-1-2.9H51.7z M52.9,179.1h-1.1l1.4-2h1.3l1.4,2h-1.1
			l-0.9-1.3L52.9,179.1z M55.3,186l-1.5-4.4h0l-1.6,4.4H55.3z"/>
		<path fill="#0F5959" d="M66.2,180h1.3v10H66l-5.1-8.1h0v8.1h-1.3v-10h1.6l5,8.1h0V180z"/>
		<path fill="#0F5959" d="M80.2,183.1c-0.2-0.7-0.5-1.2-0.9-1.6c-0.5-0.4-1.1-0.5-1.9-0.5c-1,0-1.8,0.4-2.4,1.1s-0.9,1.7-0.9,2.9
			c0,1.4,0.3,2.5,0.9,3.2c0.6,0.7,1.4,1,2.5,1c0.7,0,1.3-0.2,1.8-0.7s0.9-1.2,1-2.1h1.3c-0.2,1.3-0.7,2.3-1.5,2.9
			c-0.8,0.7-1.8,1-2.9,1c-1.4,0-2.5-0.5-3.3-1.4c-0.8-0.9-1.2-2.3-1.2-3.9c0-1.6,0.4-2.9,1.3-3.8c0.9-0.9,2-1.4,3.4-1.4
			c1.2,0,2.1,0.3,2.8,0.9s1.2,1.4,1.3,2.4H80.2z"/>
		<path fill="#0F5959" d="M84.9,187.2l-1.1,2.9h-1.4l3.8-10h1.5l3.6,10h-1.5l-1-2.9H84.9z M88.4,186l-1.5-4.4h0l-1.6,4.4H88.4z
			 M87.3,179.1h-0.9l1-2h1.5L87.3,179.1z"/>
		<path fill="#0F5959" d="M99.7,183.1c-0.2-0.7-0.5-1.2-0.9-1.6c-0.5-0.4-1.1-0.5-1.9-0.5c-1,0-1.8,0.4-2.4,1.1s-0.9,1.7-0.9,2.9
			c0,1.4,0.3,2.5,0.9,3.2c0.6,0.7,1.4,1,2.5,1c0.7,0,1.3-0.2,1.8-0.7s0.9-1.2,1-2.1h1.3c-0.2,1.3-0.7,2.3-1.5,2.9
			c-0.8,0.7-1.8,1-2.9,1c-1.4,0-2.5-0.5-3.3-1.4c-0.8-0.9-1.2-2.3-1.2-3.9c0-1.6,0.4-2.9,1.3-3.8c0.9-0.9,2-1.4,3.4-1.4
			c1.2,0,2.1,0.3,2.8,0.9s1.2,1.4,1.3,2.4H99.7z"/>
		<path fill="#0F5959" d="M110.8,190.1h-1.4v-4.7h-5.3v4.7h-1.3v-10h1.3v4.2h5.3V180h1.4V190.1z"/>
	</g>
	<g>
		<path fill="#0F5959" d="M48,102.3H35v-1.8h2.5V34.1H35v-1.8h10.5v68.2H48V102.3z"/>
		<path fill="#0F5959" d="M76.4,92.6c0,2.8-1.2,5.2-3.5,7.2s-5.2,3-8.5,3c-3.3,0-6.1-1-8.5-3c-2.4-2-3.5-4.4-3.5-7.2V42
			c0-2.8,1.2-5.2,3.5-7.2c2.4-2,5.2-3,8.5-3c3.3,0,6.2,1,8.5,3s3.5,4.4,3.5,7.2v11.3h-8V37.6c0-1.1-0.4-2.1-1.2-2.8
			s-1.7-1.2-2.8-1.2c-1.1,0-2.1,0.4-2.8,1.2s-1.2,1.7-1.2,2.8v28.2c1.5-1.2,3.5-1.9,6.1-1.9c6.6,0,9.9,3.1,9.9,9.2V92.6z M68.4,97
			V69.7c0-2.5-1.3-3.8-4-3.8c-1.4,0-2.8,0.6-4,1.7V97c0,1.1,0.4,2.1,1.2,2.8s1.7,1.2,2.8,1.2c1.1,0,2.1-0.4,2.8-1.2
			S68.4,98.1,68.4,97z"/>
		<path fill="#0F5959" d="M105.4,92.6c0,3-1.1,5.4-3.3,7.3c-2.2,1.9-5,2.9-8.3,2.9s-6.1-1-8.3-2.9c-2.2-1.9-3.3-4.4-3.3-7.3V81.3h8
			V97c0,2.7,1.2,4,3.6,4c2.4,0,3.6-1.3,3.6-4V70.3c0-1.1-0.4-2.1-1.2-2.8s-1.7-1.2-2.8-1.2h-6.1v-1.8h6.1c1.1,0,2.1-0.4,2.8-1.2
			s1.2-1.7,1.2-2.8V37.6c0-2.7-1.2-4-3.6-4c-2.4,0-3.6,1.3-3.6,4v15.7h-8V42c0-2.9,1.1-5.4,3.3-7.3c2.2-1.9,5-2.9,8.3-2.9
			s6.1,1,8.3,2.9c2.2,1.9,3.3,4.4,3.3,7.3v14c0,4.4-2.3,7.5-7,9.3c4.7,2,7,5.1,7,9.3V92.6z"/>
	</g>
</g>
</svg>
