<?xml version="1.0" encoding="utf-8"?>
<!-- Generator: Adobe Illustrator 17.1.0, SVG Export Plug-In . SVG Version: 6.00 Build 0)  -->
<!DOCTYPE svg PUBLIC "-//W3C//DTD SVG 1.1//EN" "http://www.w3.org/Graphics/SVG/1.1/DTD/svg11.dtd">
<svg version="1.1" id="Layer_1" xmlns="http://www.w3.org/2000/svg" xmlns:xlink="http://www.w3.org/1999/xlink" x="0px" y="0px"
	 viewBox="0 0 142 218" enable-background="new 0 0 142 218" xml:space="preserve">
<g>
	<g>
		<path fill="#0F5959" d="M65.2,139.7v-5.9c0-0.1,0-0.5,0-1.1s0-1.1,0-1.4h0l-2.8,8.4H61l-2.8-8.4h0c0,0.3,0,0.8,0,1.4s0,1,0,1.1
			v5.9h-1.3v-10h1.9l2.9,8.5h0l2.8-8.5h1.9v10H65.2z"/>
		<path fill="#0F5959" d="M70.2,136.8l-1.1,2.9h-1.4l3.8-10h1.5l3.6,10h-1.5l-1-2.9H70.2z M70.2,126.8h0.7c0.2,0.7,0.6,1.1,1.4,1.1
			s1.3-0.4,1.4-1.1h0.7c-0.1,1.3-0.8,1.9-2.1,1.9S70.3,128.1,70.2,126.8z M73.8,135.6l-1.5-4.4h0l-1.6,4.4H73.8z M71.7,142.4V141
			h1.2v1.4H71.7z"/>
		<path fill="#0F5959" d="M80.5,130.8h-3.4v-1.2h8.2v1.2h-3.4v8.8h-1.4V130.8z"/>
		<path fill="#0F5959" d="M38.4,151.5c0,1.6-0.5,2.9-1.5,3.9l1.4,1.1l-0.7,0.8l-1.5-1.2c-0.8,0.4-1.6,0.7-2.6,0.7
			c-1.5,0-2.7-0.5-3.6-1.5s-1.3-2.3-1.3-3.8c0-1.5,0.4-2.8,1.3-3.8s2.1-1.5,3.6-1.5c1.6,0,2.8,0.5,3.6,1.5S38.4,150,38.4,151.5z
			 M37,151.5c0-1.2-0.3-2.2-0.9-2.9s-1.5-1.2-2.6-1.2c-1.1,0-1.9,0.4-2.6,1.2s-0.9,1.8-0.9,2.9c0,1.2,0.3,2.2,1,2.9s1.5,1.1,2.5,1.1
			c0.5,0,1-0.1,1.5-0.3l-1.1-0.8l0.7-0.8l1.3,1C36.6,153.8,37,152.8,37,151.5z"/>
		<path fill="#0F5959" d="M47.9,146.4v6.5c0,1.1-0.4,2-1.1,2.7s-1.7,1.1-3,1.1c-1.2,0-2.1-0.3-2.8-1s-1-1.5-1-2.6v-6.7h1.3v6.3
			c0,0.9,0.2,1.6,0.7,2.1s1.1,0.7,1.9,0.7c0.8,0,1.5-0.2,1.9-0.7s0.7-1.2,0.7-2.1v-6.4H47.9z"/>
		<path fill="#0F5959" d="M51.6,153.6l-1.1,2.9h-1.4l3.8-10h1.5l3.6,10h-1.5l-1-2.9H51.6z M55.1,152.4l-1.5-4.4h0l-1.6,4.4H55.1z
			 M54,145.6h-0.8c0-0.2,0-0.3,0.1-0.4s0.2-0.2,0.4-0.3c0.2-0.1,0.3-0.2,0.4-0.2s0.1-0.2,0.1-0.3c0-0.2-0.1-0.3-0.2-0.4
			s-0.2-0.1-0.4-0.1c-0.2,0-0.3,0-0.4,0.1s-0.2,0.2-0.2,0.4h-0.8c0-0.4,0.1-0.7,0.4-0.9s0.6-0.3,1-0.3c0.4,0,0.7,0.1,1,0.3
			s0.4,0.5,0.4,0.9c0,0.2,0,0.3-0.1,0.5s-0.2,0.3-0.4,0.4c-0.2,0.1-0.3,0.2-0.3,0.2S54.1,145.5,54,145.6z"/>
		<path fill="#0F5959" d="M66.1,146.4h1.3v10h-1.5l-5.1-8.1h0v8.1h-1.3v-10H61l5,8.1h0V146.4z"/>
		<path fill="#0F5959" d="M73.9,151.1h4.4v5.4h-0.9l-0.3-1.3c-0.4,0.5-0.9,0.9-1.5,1.2s-1.2,0.4-1.8,0.4c-1,0-1.8-0.2-2.5-0.7
			s-1.2-1-1.6-1.8s-0.6-1.7-0.6-2.9c0-1.4,0.4-2.7,1.3-3.7s2-1.5,3.5-1.5c1.1,0,2,0.3,2.8,0.9s1.3,1.4,1.4,2.4h-1.3
			c-0.2-0.7-0.5-1.2-1-1.6s-1.2-0.6-2-0.6c-1,0-1.8,0.4-2.4,1.1s-0.9,1.7-0.9,3c0,1.4,0.3,2.5,0.9,3.1s1.4,1,2.4,1
			c0.7,0,1.2-0.1,1.7-0.4s0.8-0.6,1.1-1.1s0.4-1.1,0.4-1.8h-3.1V151.1z"/>
		<path fill="#0F5959" d="M90.9,149.5c-0.2-0.7-0.5-1.2-0.9-1.6s-1.1-0.5-1.9-0.5c-1,0-1.8,0.4-2.4,1.1s-0.9,1.7-0.9,2.9
			c0,1.4,0.3,2.5,0.9,3.2s1.4,1,2.5,1c0.7,0,1.3-0.2,1.8-0.7s0.9-1.2,1-2.1h1.3c-0.2,1.3-0.7,2.3-1.5,2.9s-1.8,1-2.9,1
			c-1.4,0-2.5-0.5-3.3-1.4s-1.2-2.3-1.2-3.9c0-1.6,0.4-2.9,1.3-3.8s2-1.4,3.4-1.4c1.2,0,2.1,0.3,2.8,0.9s1.2,1.4,1.3,2.4H90.9z"/>
		<path fill="#0F5959" d="M95.5,153.6l-1.1,2.9H93l3.8-10h1.5l3.6,10h-1.5l-1-2.9H95.5z M99,152.4l-1.5-4.4h0l-1.6,4.4H99z
			 M97.9,145.5H97l1-2h1.5L97.9,145.5z"/>
		<path fill="#0F5959" d="M112.6,151.5c0,1.5-0.4,2.8-1.3,3.8s-2.1,1.5-3.6,1.5c-1.5,0-2.7-0.5-3.6-1.5s-1.3-2.3-1.3-3.8
			c0-1.5,0.4-2.8,1.3-3.8s2.1-1.5,3.6-1.5c1.6,0,2.8,0.5,3.6,1.5S112.6,150,112.6,151.5z M111.2,151.5c0-1.2-0.3-2.2-0.9-2.9
			s-1.5-1.2-2.6-1.2c-1.1,0-1.9,0.4-2.6,1.2s-0.9,1.8-0.9,2.9c0,1.2,0.3,2.2,1,3s1.5,1.1,2.5,1.1c1,0,1.9-0.4,2.5-1.1
			S111.2,152.7,111.2,151.5z"/>
		<path fill="#0F5959" d="M37.3,164.4H34v-1.2h8.2v1.2h-3.4v8.8h-1.4V164.4z"/>
		<path fill="#0F5959" d="M44.8,173.3h-1.4v-10h4.6c1.1,0,1.9,0.2,2.5,0.7s0.8,1.1,0.8,2c0,0.6-0.1,1.1-0.3,1.4s-0.6,0.7-1.1,1
			c0.4,0.2,0.7,0.4,0.9,0.6s0.3,0.7,0.3,1.3l0.1,1.9c0,0.3,0.1,0.5,0.1,0.7s0.2,0.2,0.4,0.3v0.2h-1.7c-0.1-0.3-0.1-0.6-0.2-1.1
			s-0.1-1-0.1-1.4c0-0.2,0-0.4-0.1-0.6s-0.1-0.4-0.2-0.6s-0.3-0.3-0.5-0.4s-0.6-0.2-1-0.2h-3.3V173.3z M44.8,167.8h3.1
			c0.7,0,1.3-0.1,1.6-0.4s0.5-0.7,0.5-1.3c0-0.5-0.1-0.9-0.4-1.2s-0.7-0.5-1.4-0.5h-3.4V167.8z"/>
		<path fill="#0F5959" d="M60.8,173.3h-7.4v-10h7.3v1.2h-6v3.1h5.5v1.2h-5.5v3.4h6.1V173.3z M56.1,162.3H55l1.4-2h1.3l1.4,2h-1.1
			L57,161L56.1,162.3z"/>
		<path fill="#0F5959" d="M69.2,163.2h1.3v10H69l-5.1-8.1h0v8.1h-1.3v-10h1.6l5,8.1h0V163.2z"/>
		<path fill="#0F5959" d="M76.2,163.2h4.4c0.9,0,1.6,0.2,2.1,0.7s0.8,1.1,0.8,1.8c0,0.5-0.1,0.9-0.3,1.2s-0.6,0.7-1,0.9
			c0.6,0.2,1.1,0.6,1.4,0.9c0.3,0.4,0.4,0.9,0.4,1.5c0,0.9-0.3,1.6-0.9,2.1s-1.5,0.8-2.5,0.8h-4.3V163.2z M77.5,167.5H80
			c0.7,0,1.2-0.1,1.6-0.4s0.5-0.7,0.5-1.2c0-0.5-0.2-0.8-0.5-1.1s-0.8-0.4-1.6-0.4h-2.5V167.5z M77.5,172.1h2.9
			c0.7,0,1.2-0.2,1.6-0.5s0.5-0.8,0.5-1.3c0-0.6-0.2-1-0.6-1.3s-1-0.4-1.8-0.4h-2.7V172.1z"/>
		<path fill="#0F5959" d="M86.9,173.3h-1.4v-10h1.4V173.3z"/>
		<path fill="#0F5959" d="M96.6,173.3h-7.4v-10h7.3v1.2h-6v3.1H96v1.2h-5.5v3.4h6.1V173.3z M91.9,162.6h-1.1l1.4-2h1.3l1.4,2h-1.1
			l-0.9-1.3L91.9,162.6z M94.9,160.9h-0.8c0-0.2,0-0.3,0.1-0.4s0.2-0.2,0.4-0.3c0.2-0.1,0.3-0.2,0.4-0.2s0.1-0.2,0.1-0.3
			c0-0.2-0.1-0.3-0.2-0.4s-0.2-0.1-0.4-0.1c-0.2,0-0.3,0-0.4,0.1s-0.2,0.2-0.2,0.4h-0.8c0-0.4,0.1-0.7,0.4-0.9s0.6-0.3,1-0.3
			c0.4,0,0.7,0.1,1,0.3s0.4,0.5,0.4,0.9c0,0.2,0,0.3-0.1,0.5s-0.2,0.3-0.4,0.4c-0.2,0.1-0.3,0.2-0.3,0.2S94.9,160.8,94.9,160.9z"/>
		<path fill="#0F5959" d="M104.9,163.2h1.3v10h-1.5l-5.1-8.1h0v8.1h-1.3v-10h1.6l5,8.1h0V163.2z"/>
		<path fill="#0F5959" d="M42.7,181.2h-3.4V180h8.2v1.2H44v8.8h-1.4V181.2z"/>
		<path fill="#0F5959" d="M50.2,187.2l-1.1,2.9h-1.4l3.8-10h1.5l3.6,10h-1.5l-1-2.9H50.2z M51.4,179.4h-1.1l1.4-2H53l1.4,2h-1.1
			l-0.9-1.3L51.4,179.4z M53.8,186l-1.5-4.4h0l-1.6,4.4H53.8z M54.4,177.7h-0.9l1-2h1.4L54.4,177.7z"/>
		<path fill="#0F5959" d="M66.4,190.1v-5.9c0-0.1,0-0.5,0-1.1s0-1.1,0-1.4h0l-2.8,8.4h-1.3l-2.8-8.4h0c0,0.3,0,0.8,0,1.4s0,1,0,1.1
			v5.9h-1.3v-10H60l2.9,8.5h0l2.8-8.5h1.9v10H66.4z"/>
		<path fill="#0F5959" d="M74.8,188.9h5.1v1.2h-6.5v-10h1.3V188.9z"/>
		<path fill="#0F5959" d="M90.4,185.1c0,1.5-0.4,2.8-1.3,3.8s-2.1,1.5-3.6,1.5c-1.5,0-2.7-0.5-3.6-1.5s-1.3-2.3-1.3-3.8
			c0-1.5,0.4-2.8,1.3-3.8s2.1-1.5,3.6-1.5c1.6,0,2.8,0.5,3.6,1.5c0.1,0.1,0.2,0.3,0.3,0.5c0.4,0,0.6-0.1,0.7-0.3s0.2-0.5,0.2-0.8
			c0-0.2,0-0.4,0-0.6h1.2c0.1,0.2,0.1,0.5,0.1,0.8c0,0.6-0.1,1.1-0.4,1.4s-0.7,0.5-1.2,0.5C90.3,183.4,90.4,184.2,90.4,185.1z
			 M89,185.1c0-1.2-0.3-2.2-0.9-2.9s-1.5-1.2-2.6-1.2c-1.1,0-1.9,0.4-2.6,1.2s-0.9,1.8-0.9,2.9c0,1.2,0.3,2.2,1,3s1.5,1.1,2.5,1.1
			c1,0,1.9-0.4,2.5-1.1S89,186.3,89,185.1z M85.8,179.1h-0.9l1-2h1.5L85.8,179.1z"/>
		<path fill="#0F5959" d="M99.6,180h1.3v10h-1.5l-5.1-8.1h0v8.1h-1.3v-10h1.6l5,8.1h0V180z"/>
	</g>
	<g>
		<path fill="#0F5959" d="M69.1,92.6c0,3-1.1,5.4-3.3,7.3c-2.2,1.9-5,2.9-8.3,2.9s-6.1-1-8.3-2.9c-2.2-1.9-3.3-4.4-3.3-7.3V81.3h8
			V97c0,2.7,1.2,4,3.6,4c2.4,0,3.6-1.3,3.6-4V70.3c0-1.1-0.4-2.1-1.2-2.8s-1.7-1.2-2.8-1.2H51v-1.8h6.1c1.1,0,2.1-0.4,2.8-1.2
			s1.2-1.7,1.2-2.8V37.6c0-2.7-1.2-4-3.6-4c-2.4,0-3.6,1.3-3.6,4v15.7h-8V42c0-2.9,1.1-5.4,3.3-7.3c2.2-1.9,5-2.9,8.3-2.9
			s6.1,1,8.3,2.9c2.2,1.9,3.3,4.4,3.3,7.3v14c0,4.4-2.3,7.5-7,9.3c4.7,2,7,5.1,7,9.3V92.6z"/>
		<path fill="#0F5959" d="M96.9,102.3h-13v-1.8h2.5V86.2H72.9v-2.1l13.5-51.8h8v51.8h2.5v2.1h-2.5v14.3h2.5V102.3z M86.4,84.1V40.7
			L75.2,84.1H86.4z"/>
	</g>
</g>
</svg>
