<?xml version="1.0" encoding="utf-8"?>
<!-- Generator: Adobe Illustrator 17.1.0, SVG Export Plug-In . SVG Version: 6.00 Build 0)  -->
<!DOCTYPE svg PUBLIC "-//W3C//DTD SVG 1.1//EN" "http://www.w3.org/Graphics/SVG/1.1/DTD/svg11.dtd">
<svg version="1.1" id="Layer_1" xmlns="http://www.w3.org/2000/svg" xmlns:xlink="http://www.w3.org/1999/xlink" x="0px" y="0px"
	 viewBox="0 0 142 218" enable-background="new 0 0 142 218" xml:space="preserve">
<g>
	<g>
		<path fill="#0F5959" d="M65.7,139.7v-5.9c0-0.1,0-0.5,0-1.1c0-0.7,0-1.1,0-1.4h0l-2.8,8.4h-1.3l-2.8-8.4h0c0,0.3,0,0.8,0,1.4
			c0,0.6,0,1,0,1.1v5.9h-1.3v-10h1.9l2.9,8.5h0l2.8-8.5H67v10H65.7z"/>
		<path fill="#0F5959" d="M70.8,136.8l-1.1,2.9h-1.4l3.8-10h1.5l3.6,10h-1.5l-1-2.9H70.8z M70.8,126.8h0.7c0.2,0.7,0.6,1.1,1.4,1.1
			c0.8,0,1.3-0.4,1.4-1.1H75c-0.1,1.3-0.8,1.9-2.1,1.9C71.5,128.7,70.8,128.1,70.8,126.8z M74.3,135.6l-1.5-4.4h0l-1.6,4.4H74.3z
			 M72.2,142.4V141h1.2v1.4H72.2z"/>
		<path fill="#0F5959" d="M81,130.8h-3.4v-1.2h8.2v1.2h-3.4v8.8H81V130.8z"/>
		<path fill="#0F5959" d="M38.9,151.5c0,1.6-0.5,2.9-1.5,3.9l1.4,1.1l-0.7,0.8l-1.5-1.2c-0.8,0.4-1.6,0.7-2.6,0.7
			c-1.5,0-2.7-0.5-3.6-1.5s-1.3-2.3-1.3-3.8c0-1.5,0.4-2.8,1.3-3.8s2.1-1.5,3.6-1.5c1.6,0,2.8,0.5,3.6,1.5
			C38.5,148.8,38.9,150,38.9,151.5z M37.5,151.5c0-1.2-0.3-2.2-0.9-2.9s-1.5-1.2-2.6-1.2c-1.1,0-1.9,0.4-2.6,1.2s-0.9,1.8-0.9,2.9
			c0,1.2,0.3,2.2,1,2.9s1.5,1.1,2.5,1.1c0.5,0,1-0.1,1.5-0.3l-1.1-0.8l0.7-0.8l1.3,1C37.2,153.8,37.5,152.8,37.5,151.5z"/>
		<path fill="#0F5959" d="M48.5,146.4v6.5c0,1.1-0.4,2-1.1,2.7s-1.7,1.1-3,1.1c-1.2,0-2.1-0.3-2.8-1c-0.7-0.7-1-1.5-1-2.6v-6.7h1.3
			v6.3c0,0.9,0.2,1.6,0.7,2.1c0.5,0.5,1.1,0.7,1.9,0.7c0.8,0,1.5-0.2,1.9-0.7c0.5-0.5,0.7-1.2,0.7-2.1v-6.4H48.5z"/>
		<path fill="#0F5959" d="M52.1,153.6l-1.1,2.9h-1.4l3.8-10H55l3.6,10h-1.5l-1-2.9H52.1z M55.7,152.4l-1.5-4.4h0l-1.6,4.4H55.7z
			 M54.6,145.6h-0.8c0-0.2,0-0.3,0.1-0.4c0.1-0.1,0.2-0.2,0.4-0.3c0.2-0.1,0.3-0.2,0.4-0.2s0.1-0.2,0.1-0.3c0-0.2-0.1-0.3-0.2-0.4
			c-0.1-0.1-0.2-0.1-0.4-0.1c-0.2,0-0.3,0-0.4,0.1c-0.1,0.1-0.2,0.2-0.2,0.4h-0.8c0-0.4,0.1-0.7,0.4-0.9c0.3-0.2,0.6-0.3,1-0.3
			c0.4,0,0.7,0.1,1,0.3s0.4,0.5,0.4,0.9c0,0.2,0,0.3-0.1,0.5s-0.2,0.3-0.4,0.4c-0.2,0.1-0.3,0.2-0.3,0.2
			C54.6,145.4,54.6,145.5,54.6,145.6z"/>
		<path fill="#0F5959" d="M66.6,146.4h1.3v10h-1.5l-5.1-8.1h0v8.1H60v-10h1.6l5,8.1h0V146.4z"/>
		<path fill="#0F5959" d="M74.5,151.1h4.4v5.4H78l-0.3-1.3c-0.4,0.5-0.9,0.9-1.5,1.2c-0.6,0.2-1.2,0.4-1.8,0.4c-1,0-1.8-0.2-2.5-0.7
			s-1.2-1-1.6-1.8c-0.4-0.8-0.6-1.7-0.6-2.9c0-1.4,0.4-2.7,1.3-3.7c0.9-1,2-1.5,3.5-1.5c1.1,0,2,0.3,2.8,0.9
			c0.8,0.6,1.3,1.4,1.4,2.4h-1.3c-0.2-0.7-0.5-1.2-1-1.6c-0.5-0.4-1.2-0.6-2-0.6c-1,0-1.8,0.4-2.4,1.1s-0.9,1.7-0.9,3
			c0,1.4,0.3,2.5,0.9,3.1c0.6,0.7,1.4,1,2.4,1c0.7,0,1.2-0.1,1.7-0.4c0.5-0.3,0.8-0.6,1.1-1.1c0.3-0.5,0.4-1.1,0.4-1.8h-3.1V151.1z"
			/>
		<path fill="#0F5959" d="M91.4,149.5c-0.2-0.7-0.5-1.2-0.9-1.6c-0.5-0.4-1.1-0.5-1.9-0.5c-1,0-1.8,0.4-2.4,1.1s-0.9,1.7-0.9,2.9
			c0,1.4,0.3,2.5,0.9,3.2c0.6,0.7,1.4,1,2.5,1c0.7,0,1.3-0.2,1.8-0.7s0.9-1.2,1-2.1h1.3c-0.2,1.3-0.7,2.3-1.5,2.9
			c-0.8,0.7-1.8,1-2.9,1c-1.4,0-2.5-0.5-3.3-1.4c-0.8-0.9-1.2-2.3-1.2-3.9c0-1.6,0.4-2.9,1.3-3.8c0.9-0.9,2-1.4,3.4-1.4
			c1.2,0,2.1,0.3,2.8,0.9s1.2,1.4,1.3,2.4H91.4z"/>
		<path fill="#0F5959" d="M96,153.6l-1.1,2.9h-1.4l3.8-10h1.5l3.6,10h-1.5l-1-2.9H96z M99.6,152.4l-1.5-4.4h0l-1.6,4.4H99.6z
			 M98.4,145.5h-0.9l1-2h1.5L98.4,145.5z"/>
		<path fill="#0F5959" d="M113.1,151.5c0,1.5-0.4,2.8-1.3,3.8c-0.9,1-2.1,1.5-3.6,1.5c-1.5,0-2.7-0.5-3.6-1.5
			c-0.9-1-1.3-2.3-1.3-3.8c0-1.5,0.4-2.8,1.3-3.8c0.9-1,2.1-1.5,3.6-1.5c1.6,0,2.8,0.5,3.6,1.5C112.7,148.8,113.1,150,113.1,151.5z
			 M111.7,151.5c0-1.2-0.3-2.2-0.9-2.9s-1.5-1.2-2.6-1.2c-1.1,0-1.9,0.4-2.6,1.2s-0.9,1.8-0.9,2.9c0,1.2,0.3,2.2,1,3
			c0.6,0.8,1.5,1.1,2.5,1.1c1,0,1.9-0.4,2.5-1.1S111.7,152.7,111.7,151.5z"/>
		<path fill="#0F5959" d="M10.4,164.4H7v-1.2h8.2v1.2h-3.4v8.8h-1.4V164.4z"/>
		<path fill="#0F5959" d="M17.8,173.3h-1.4v-10h4.6c1.1,0,1.9,0.2,2.5,0.7s0.8,1.1,0.8,2c0,0.6-0.1,1.1-0.3,1.4s-0.6,0.7-1.1,1
			c0.4,0.2,0.7,0.4,0.9,0.6s0.3,0.7,0.3,1.3l0.1,1.9c0,0.3,0.1,0.5,0.1,0.7s0.2,0.2,0.4,0.3v0.2h-1.7c-0.1-0.3-0.1-0.6-0.2-1.1
			s-0.1-1-0.1-1.4c0-0.2,0-0.4-0.1-0.6s-0.1-0.4-0.2-0.6s-0.3-0.3-0.5-0.4s-0.6-0.2-1-0.2h-3.3V173.3z M17.8,167.8H21
			c0.7,0,1.3-0.1,1.6-0.4s0.5-0.7,0.5-1.3c0-0.5-0.1-0.9-0.4-1.2s-0.7-0.5-1.4-0.5h-3.4V167.8z"/>
		<path fill="#0F5959" d="M33.9,173.3h-7.4v-10h7.3v1.2h-6v3.1h5.5v1.2h-5.5v3.4h6.1V173.3z M29.2,162.3H28l1.4-2h1.3l1.4,2H31
			l-0.9-1.3L29.2,162.3z"/>
		<path fill="#0F5959" d="M42.2,163.2h1.3v10H42l-5.1-8.1h0v8.1h-1.3v-10h1.6l5,8.1h0V163.2z"/>
		<path fill="#0F5959" d="M56.2,166.3c-0.2-0.7-0.5-1.2-0.9-1.6c-0.5-0.4-1.1-0.5-1.9-0.5c-1,0-1.8,0.4-2.4,1.1s-0.9,1.7-0.9,2.9
			c0,1.4,0.3,2.5,0.9,3.2c0.6,0.7,1.4,1,2.5,1c0.7,0,1.3-0.2,1.8-0.7s0.9-1.2,1-2.1h1.3c-0.2,1.3-0.7,2.3-1.5,2.9
			c-0.8,0.7-1.8,1-2.9,1c-1.4,0-2.5-0.5-3.3-1.4c-0.8-0.9-1.2-2.3-1.2-3.9c0-1.6,0.4-2.9,1.3-3.8c0.9-0.9,2-1.4,3.4-1.4
			c1.2,0,2.1,0.3,2.8,0.9s1.2,1.4,1.3,2.4H56.2z"/>
		<path fill="#0F5959" d="M68.5,168.3c0,1.5-0.4,2.8-1.3,3.8c-0.9,1-2.1,1.5-3.6,1.5c-1.5,0-2.7-0.5-3.6-1.5c-0.9-1-1.3-2.3-1.3-3.8
			c0-1.5,0.4-2.8,1.3-3.8c0.9-1,2.1-1.5,3.6-1.5c1.6,0,2.8,0.5,3.6,1.5C68.1,165.6,68.5,166.8,68.5,168.3z M67.2,168.3
			c0-1.2-0.3-2.2-0.9-2.9s-1.5-1.2-2.6-1.2c-1.1,0-1.9,0.4-2.6,1.2s-0.9,1.8-0.9,2.9c0,1.2,0.3,2.2,1,3c0.6,0.8,1.5,1.1,2.5,1.1
			c1,0,1.9-0.4,2.5-1.1S67.2,169.5,67.2,168.3z M62.7,162.3h-1.1l1.4-2h1.3l1.4,2h-1.1l-0.9-1.3L62.7,162.3z"/>
		<path fill="#0F5959" d="M76.9,163.2h1.3v10h-1.5l-5.1-8.1h0v8.1h-1.3v-10h1.6l5,8.1h0V163.2z"/>
		<path fill="#0F5959" d="M84.7,167.9h4.4v5.4h-0.9l-0.3-1.3c-0.4,0.5-0.9,0.9-1.5,1.2c-0.6,0.2-1.2,0.4-1.8,0.4
			c-1,0-1.8-0.2-2.5-0.7s-1.2-1-1.6-1.8c-0.4-0.8-0.6-1.7-0.6-2.9c0-1.4,0.4-2.7,1.3-3.7c0.9-1,2-1.5,3.5-1.5c1.1,0,2,0.3,2.8,0.9
			c0.8,0.6,1.3,1.4,1.4,2.4h-1.3c-0.2-0.7-0.5-1.2-1-1.6c-0.5-0.4-1.2-0.6-2-0.6c-1,0-1.8,0.4-2.4,1.1s-0.9,1.7-0.9,3
			c0,1.4,0.3,2.5,0.9,3.1c0.6,0.7,1.4,1,2.4,1c0.7,0,1.2-0.1,1.7-0.4c0.5-0.3,0.8-0.6,1.1-1.1c0.3-0.5,0.4-1.1,0.4-1.8h-3.1V167.9z"
			/>
		<path fill="#0F5959" d="M96.4,164.4H93v-1.2h8.2v1.2h-3.4v8.8h-1.4V164.4z"/>
		<path fill="#0F5959" d="M103.8,173.3h-1.4v-10h4.6c1.1,0,1.9,0.2,2.5,0.7c0.6,0.5,0.8,1.1,0.8,2c0,0.6-0.1,1.1-0.3,1.4
			c-0.2,0.4-0.6,0.7-1.1,1c0.4,0.2,0.7,0.4,0.9,0.6c0.2,0.3,0.3,0.7,0.3,1.3l0.1,1.9c0,0.3,0.1,0.5,0.1,0.7s0.2,0.2,0.4,0.3v0.2
			h-1.7c-0.1-0.3-0.1-0.6-0.2-1.1c0-0.5-0.1-1-0.1-1.4c0-0.2,0-0.4-0.1-0.6c0-0.2-0.1-0.4-0.2-0.6s-0.3-0.3-0.5-0.4
			c-0.2-0.1-0.6-0.2-1-0.2h-3.3V173.3z M103.8,167.8h3.1c0.7,0,1.3-0.1,1.6-0.4c0.3-0.3,0.5-0.7,0.5-1.3c0-0.5-0.1-0.9-0.4-1.2
			s-0.7-0.5-1.4-0.5h-3.4V167.8z"/>
		<path fill="#0F5959" d="M111.3,160.4h1.5l1,2h-0.9L111.3,160.4z M113.8,173.3h-1.4v-10h1.4V173.3z"/>
		<path fill="#0F5959" d="M122.7,163.2h1.3v10h-1.5l-5.1-8.1h0v8.1h-1.3v-10h1.6l5,8.1h0V163.2z"/>
		<path fill="#0F5959" d="M134.3,173.3h-1.4v-4.7h-5.2v4.7h-1.3v-10h1.3v4.2h5.2v-4.2h1.4V173.3z"/>
		<path fill="#0F5959" d="M35.5,183.1c-0.2-0.7-0.5-1.2-0.9-1.6c-0.5-0.4-1.1-0.5-1.9-0.5c-1,0-1.8,0.4-2.4,1.1s-0.9,1.7-0.9,2.9
			c0,1.4,0.3,2.5,0.9,3.2s1.4,1,2.5,1c0.7,0,1.3-0.2,1.8-0.7s0.9-1.2,1-2.1h1.3c-0.2,1.3-0.7,2.3-1.5,2.9c-0.8,0.7-1.8,1-2.9,1
			c-1.4,0-2.5-0.5-3.3-1.4S28,186.7,28,185c0-1.6,0.4-2.9,1.3-3.8s2-1.4,3.4-1.4c1.2,0,2.1,0.3,2.8,0.9s1.2,1.4,1.3,2.4H35.5z"/>
		<path fill="#0F5959" d="M47.8,185.1c0,1.5-0.4,2.8-1.3,3.8c-0.9,1-2.1,1.5-3.6,1.5c-1.5,0-2.7-0.5-3.6-1.5c-0.9-1-1.3-2.3-1.3-3.8
			c0-1.5,0.4-2.8,1.3-3.8c0.9-1,2.1-1.5,3.6-1.5c1.6,0,2.8,0.5,3.6,1.5C47.4,182.4,47.8,183.6,47.8,185.1z M46.4,185.1
			c0-1.2-0.3-2.2-0.9-2.9S44,181,42.9,181c-1.1,0-1.9,0.4-2.6,1.2s-0.9,1.8-0.9,2.9c0,1.2,0.3,2.2,1,3c0.6,0.8,1.5,1.1,2.5,1.1
			c1,0,1.9-0.4,2.5-1.1S46.4,186.3,46.4,185.1z M42,179.1h-1.1l1.4-2h1.3l1.4,2h-1.1l-0.9-1.3L42,179.1z"/>
		<path fill="#0F5959" d="M56.2,180h1.3v10H56l-5.1-8.1h0v8.1h-1.3v-10h1.6l5,8.1h0V180z"/>
		<path fill="#0F5959" d="M64,184.7h4.4v5.4h-0.9l-0.3-1.3c-0.4,0.5-0.9,0.9-1.5,1.2c-0.6,0.2-1.2,0.4-1.8,0.4c-1,0-1.8-0.2-2.5-0.7
			s-1.2-1-1.6-1.8c-0.4-0.8-0.6-1.7-0.6-2.9c0-1.4,0.4-2.7,1.3-3.7c0.9-1,2-1.5,3.5-1.5c1.1,0,2,0.3,2.8,0.9
			c0.8,0.6,1.3,1.4,1.4,2.4h-1.3c-0.2-0.7-0.5-1.2-1-1.6c-0.5-0.4-1.2-0.6-2-0.6c-1,0-1.8,0.4-2.4,1.1s-0.9,1.7-0.9,3
			c0,1.4,0.3,2.5,0.9,3.1c0.6,0.7,1.4,1,2.4,1c0.7,0,1.2-0.1,1.7-0.4c0.5-0.3,0.8-0.6,1.1-1.1c0.3-0.5,0.4-1.1,0.4-1.8H64V184.7z"/>
		<path fill="#0F5959" d="M80.9,183.1c-0.2-0.7-0.5-1.2-0.9-1.6c-0.5-0.4-1.1-0.5-1.9-0.5c-1,0-1.8,0.4-2.4,1.1s-0.9,1.7-0.9,2.9
			c0,1.4,0.3,2.5,0.9,3.2c0.6,0.7,1.4,1,2.5,1c0.7,0,1.3-0.2,1.8-0.7s0.9-1.2,1-2.1h1.3c-0.2,1.3-0.7,2.3-1.5,2.9
			c-0.8,0.7-1.8,1-2.9,1c-1.4,0-2.5-0.5-3.3-1.4c-0.8-0.9-1.2-2.3-1.2-3.9c0-1.6,0.4-2.9,1.3-3.8c0.9-0.9,2-1.4,3.4-1.4
			c1.2,0,2.1,0.3,2.8,0.9s1.2,1.4,1.3,2.4H80.9z"/>
		<path fill="#0F5959" d="M93.3,185.1c0,1.5-0.4,2.8-1.3,3.8c-0.9,1-2.1,1.5-3.6,1.5c-1.5,0-2.7-0.5-3.6-1.5c-0.9-1-1.3-2.3-1.3-3.8
			c0-1.5,0.4-2.8,1.3-3.8c0.9-1,2.1-1.5,3.6-1.5c1.6,0,2.8,0.5,3.6,1.5C92.9,182.4,93.3,183.6,93.3,185.1z M91.9,185.1
			c0-1.2-0.3-2.2-0.9-2.9s-1.5-1.2-2.6-1.2c-1.1,0-1.9,0.4-2.6,1.2s-0.9,1.8-0.9,2.9c0,1.2,0.3,2.2,1,3c0.6,0.8,1.5,1.1,2.5,1.1
			c1,0,1.9-0.4,2.5-1.1S91.9,186.3,91.9,185.1z M87.5,179.1h-1.1l1.4-2h1.3l1.4,2h-1.1l-0.9-1.3L87.5,179.1z M87.8,192.8v-1.4H89
			v1.4H87.8z"/>
		<path fill="#0F5959" d="M101.6,180h1.3v10h-1.5l-5.1-8.1h0v8.1H95v-10h1.6l5,8.1h0V180z"/>
		<path fill="#0F5959" d="M109.5,184.7h4.4v5.4H113l-0.3-1.3c-0.4,0.5-0.9,0.9-1.5,1.2c-0.6,0.2-1.2,0.4-1.8,0.4
			c-1,0-1.8-0.2-2.5-0.7s-1.2-1-1.6-1.8c-0.4-0.8-0.6-1.7-0.6-2.9c0-1.4,0.4-2.7,1.3-3.7c0.9-1,2-1.5,3.5-1.5c1.1,0,2,0.3,2.8,0.9
			c0.8,0.6,1.3,1.4,1.4,2.4h-1.3c-0.2-0.7-0.5-1.2-1-1.6c-0.5-0.4-1.2-0.6-2-0.6c-1,0-1.8,0.4-2.4,1.1s-0.9,1.7-0.9,3
			c0,1.4,0.3,2.5,0.9,3.1c0.6,0.7,1.4,1,2.4,1c0.7,0,1.2-0.1,1.7-0.4c0.5-0.3,0.8-0.6,1.1-1.1c0.3-0.5,0.4-1.1,0.4-1.8h-3.1V184.7z"
			/>
	</g>
	<g>
		<path fill="#0F5959" d="M67.9,102.3H55v-1.8h2.5V86.2H43.9v-2.1l13.5-51.8h8v51.8h2.5v2.1h-2.5v14.3h2.5V102.3z M57.4,84.1V40.7
			L46.2,84.1H57.4z"/>
		<path fill="#0F5959" d="M96.1,92.6c0,2.8-1.2,5.2-3.5,7.2s-5.2,3-8.5,3c-3.3,0-6.1-1-8.5-3c-2.4-2-3.5-4.4-3.5-7.2V81.3h8V97
			c0,1.1,0.4,2.1,1.2,2.8s1.7,1.2,2.8,1.2c1.1,0,2.1-0.4,2.8-1.2s1.2-1.7,1.2-2.8V70.3c0-1.1-0.4-2.1-1.2-2.8s-1.7-1.2-2.8-1.2H72.6
			V32.3h22.5v21h-8V34.1h-6.5v30.3h3.5c3.3,0,6.2,1,8.5,3s3.5,4.4,3.5,7.2V92.6z"/>
	</g>
</g>
</svg>
