<?xml version="1.0" encoding="utf-8"?>
<!-- Generator: Adobe Illustrator 17.1.0, SVG Export Plug-In . SVG Version: 6.00 Build 0)  -->
<!DOCTYPE svg PUBLIC "-//W3C//DTD SVG 1.1//EN" "http://www.w3.org/Graphics/SVG/1.1/DTD/svg11.dtd">
<svg version="1.1" id="Layer_1" xmlns="http://www.w3.org/2000/svg" xmlns:xlink="http://www.w3.org/1999/xlink" x="0px" y="0px"
	 viewBox="0 0 142 218" enable-background="new 0 0 142 218" xml:space="preserve">
<g>
	<g>
		<path fill="#0F5959" d="M65.2,139.7v-5.9c0-0.1,0-0.5,0-1.1c0-0.7,0-1.1,0-1.4h0l-2.8,8.4h-1.3l-2.8-8.4h0c0,0.3,0,0.8,0,1.4
			c0,0.6,0,1,0,1.1v5.9h-1.3v-10h1.9l2.9,8.5h0l2.8-8.5h1.9v10H65.2z"/>
		<path fill="#0F5959" d="M70.3,136.8l-1.1,2.9h-1.4l3.8-10h1.5l3.6,10h-1.5l-1-2.9H70.3z M70.3,126.8H71c0.2,0.7,0.6,1.1,1.4,1.1
			c0.8,0,1.3-0.4,1.4-1.1h0.7c-0.1,1.3-0.8,1.9-2.1,1.9C71.1,128.7,70.4,128.1,70.3,126.8z M73.8,135.6l-1.5-4.4h0l-1.6,4.4H73.8z
			 M71.7,142.4V141H73v1.4H71.7z"/>
		<path fill="#0F5959" d="M80.6,130.8h-3.4v-1.2h8.2v1.2h-3.4v8.8h-1.4V130.8z"/>
		<path fill="#0F5959" d="M38.5,151.5c0,1.6-0.5,2.9-1.5,3.9l1.4,1.1l-0.7,0.8l-1.5-1.2c-0.8,0.4-1.6,0.7-2.6,0.7
			c-1.5,0-2.7-0.5-3.6-1.5c-0.9-1-1.3-2.3-1.3-3.8c0-1.5,0.4-2.8,1.3-3.8c0.9-1,2.1-1.5,3.6-1.5c1.6,0,2.8,0.5,3.6,1.5
			C38,148.8,38.5,150,38.5,151.5z M37.1,151.5c0-1.2-0.3-2.2-0.9-2.9s-1.5-1.2-2.6-1.2c-1.1,0-1.9,0.4-2.6,1.2s-0.9,1.8-0.9,2.9
			c0,1.2,0.3,2.2,1,2.9c0.6,0.8,1.5,1.1,2.5,1.1c0.5,0,1-0.1,1.5-0.3l-1.1-0.8l0.7-0.8l1.3,1C36.7,153.8,37.1,152.8,37.1,151.5z"/>
		<path fill="#0F5959" d="M48,146.4v6.5c0,1.1-0.4,2-1.1,2.7s-1.7,1.1-3,1.1c-1.2,0-2.1-0.3-2.8-1c-0.7-0.7-1-1.5-1-2.6v-6.7h1.3
			v6.3c0,0.9,0.2,1.6,0.7,2.1c0.5,0.5,1.1,0.7,1.9,0.7c0.8,0,1.5-0.2,1.9-0.7c0.5-0.5,0.7-1.2,0.7-2.1v-6.4H48z"/>
		<path fill="#0F5959" d="M51.7,153.6l-1.1,2.9h-1.4l3.8-10h1.5l3.6,10h-1.5l-1-2.9H51.7z M55.2,152.4l-1.5-4.4h0l-1.6,4.4H55.2z
			 M54.1,145.6h-0.8c0-0.2,0-0.3,0.1-0.4c0.1-0.1,0.2-0.2,0.4-0.3c0.2-0.1,0.3-0.2,0.4-0.2s0.1-0.2,0.1-0.3c0-0.2-0.1-0.3-0.2-0.4
			c-0.1-0.1-0.2-0.1-0.4-0.1c-0.2,0-0.3,0-0.4,0.1c-0.1,0.1-0.2,0.2-0.2,0.4h-0.8c0-0.4,0.1-0.7,0.4-0.9c0.3-0.2,0.6-0.3,1-0.3
			c0.4,0,0.7,0.1,1,0.3s0.4,0.5,0.4,0.9c0,0.2,0,0.3-0.1,0.5s-0.2,0.3-0.4,0.4c-0.2,0.1-0.3,0.2-0.3,0.2
			C54.2,145.4,54.1,145.5,54.1,145.6z"/>
		<path fill="#0F5959" d="M66.2,146.4h1.3v10H66l-5.1-8.1h0v8.1h-1.3v-10h1.6l5,8.1h0V146.4z"/>
		<path fill="#0F5959" d="M74,151.1h4.4v5.4h-0.9l-0.3-1.3c-0.4,0.5-0.9,0.9-1.5,1.2c-0.6,0.2-1.2,0.4-1.8,0.4c-1,0-1.8-0.2-2.5-0.7
			s-1.2-1-1.6-1.8c-0.4-0.8-0.6-1.7-0.6-2.9c0-1.4,0.4-2.7,1.3-3.7c0.9-1,2-1.5,3.5-1.5c1.1,0,2,0.3,2.8,0.9
			c0.8,0.6,1.3,1.4,1.4,2.4h-1.3c-0.2-0.7-0.5-1.2-1-1.6c-0.5-0.4-1.2-0.6-2-0.6c-1,0-1.8,0.4-2.4,1.1s-0.9,1.7-0.9,3
			c0,1.4,0.3,2.5,0.9,3.1c0.6,0.7,1.4,1,2.4,1c0.7,0,1.2-0.1,1.7-0.4c0.5-0.3,0.8-0.6,1.1-1.1c0.3-0.5,0.4-1.1,0.4-1.8H74V151.1z"/>
		<path fill="#0F5959" d="M90.9,149.5c-0.2-0.7-0.5-1.2-0.9-1.6c-0.5-0.4-1.1-0.5-1.9-0.5c-1,0-1.8,0.4-2.4,1.1s-0.9,1.7-0.9,2.9
			c0,1.4,0.3,2.5,0.9,3.2c0.6,0.7,1.4,1,2.5,1c0.7,0,1.3-0.2,1.8-0.7s0.9-1.2,1-2.1h1.3c-0.2,1.3-0.7,2.3-1.5,2.9
			c-0.8,0.7-1.8,1-2.9,1c-1.4,0-2.5-0.5-3.3-1.4c-0.8-0.9-1.2-2.3-1.2-3.9c0-1.6,0.4-2.9,1.3-3.8c0.9-0.9,2-1.4,3.4-1.4
			c1.2,0,2.1,0.3,2.8,0.9s1.2,1.4,1.3,2.4H90.9z"/>
		<path fill="#0F5959" d="M95.6,153.6l-1.1,2.9h-1.4l3.8-10h1.5l3.6,10h-1.5l-1-2.9H95.6z M99.1,152.4l-1.5-4.4h0l-1.6,4.4H99.1z
			 M98,145.5h-0.9l1-2h1.5L98,145.5z"/>
		<path fill="#0F5959" d="M112.6,151.5c0,1.5-0.4,2.8-1.3,3.8c-0.9,1-2.1,1.5-3.6,1.5c-1.5,0-2.7-0.5-3.6-1.5
			c-0.9-1-1.3-2.3-1.3-3.8c0-1.5,0.4-2.8,1.3-3.8c0.9-1,2.1-1.5,3.6-1.5c1.6,0,2.8,0.5,3.6,1.5C112.2,148.8,112.6,150,112.6,151.5z
			 M111.2,151.5c0-1.2-0.3-2.2-0.9-2.9s-1.5-1.2-2.6-1.2c-1.1,0-1.9,0.4-2.6,1.2s-0.9,1.8-0.9,2.9c0,1.2,0.3,2.2,1,3
			c0.6,0.8,1.5,1.1,2.5,1.1c1,0,1.9-0.4,2.5-1.1S111.2,152.7,111.2,151.5z"/>
		<path fill="#0F5959" d="M20.9,164.4h-3.4v-1.2h8.2v1.2h-3.4v8.8h-1.4V164.4z"/>
		<path fill="#0F5959" d="M28.4,173.3H27v-10h4.6c1.1,0,1.9,0.2,2.5,0.7c0.6,0.5,0.8,1.1,0.8,2c0,0.6-0.1,1.1-0.3,1.4
			c-0.2,0.4-0.6,0.7-1.1,1c0.4,0.2,0.7,0.4,0.9,0.6c0.2,0.3,0.3,0.7,0.3,1.3l0.1,1.9c0,0.3,0.1,0.5,0.1,0.7s0.2,0.2,0.4,0.3v0.2
			h-1.7c-0.1-0.3-0.1-0.6-0.2-1.1c0-0.5-0.1-1-0.1-1.4c0-0.2,0-0.4-0.1-0.6c0-0.2-0.1-0.4-0.2-0.6s-0.3-0.3-0.5-0.4
			c-0.2-0.1-0.6-0.2-1-0.2h-3.3V173.3z M28.4,167.8h3.1c0.7,0,1.3-0.1,1.6-0.4c0.3-0.3,0.5-0.7,0.5-1.3c0-0.5-0.1-0.9-0.4-1.2
			s-0.7-0.5-1.4-0.5h-3.4V167.8z"/>
		<path fill="#0F5959" d="M44.4,173.3H37v-10h7.3v1.2h-6v3.1h5.5v1.2h-5.5v3.4h6.1V173.3z M39.7,162.3h-1.1l1.4-2h1.3l1.4,2h-1.1
			l-0.9-1.3L39.7,162.3z"/>
		<path fill="#0F5959" d="M52.8,163.2h1.3v10h-1.5l-5.1-8.1h0v8.1h-1.3v-10h1.6l5,8.1h0V163.2z"/>
		<path fill="#0F5959" d="M66.4,163.2h1.3v10h-1.5l-5.1-8.1h0v8.1h-1.3v-10h1.6l5,8.1h0V163.2z"/>
		<path fill="#0F5959" d="M78,173.3h-1.4v-4.7h-5.3v4.7H70v-10h1.3v4.2h5.3v-4.2H78V173.3z"/>
		<path fill="#0F5959" d="M81.7,170.4l-1.1,2.9h-1.4l3.8-10h1.5l3.6,10h-1.5l-1-2.9H81.7z M81.9,160.4h1.5l1,2h-0.9L81.9,160.4z
			 M85.2,169.2l-1.5-4.4h0l-1.6,4.4H85.2z"/>
		<path fill="#0F5959" d="M100,166.3c-0.2-0.7-0.5-1.2-0.9-1.6c-0.5-0.4-1.1-0.5-1.9-0.5c-1,0-1.8,0.4-2.4,1.1s-0.9,1.7-0.9,2.9
			c0,1.4,0.3,2.5,0.9,3.2c0.6,0.7,1.4,1,2.5,1c0.7,0,1.3-0.2,1.8-0.7s0.9-1.2,1-2.1h1.3c-0.2,1.3-0.7,2.3-1.5,2.9
			c-0.8,0.7-1.8,1-2.9,1c-1.4,0-2.5-0.5-3.3-1.4c-0.8-0.9-1.2-2.3-1.2-3.9c0-1.6,0.4-2.9,1.3-3.8c0.9-0.9,2-1.4,3.4-1.4
			c1.2,0,2.1,0.3,2.8,0.9s1.2,1.4,1.3,2.4H100z"/>
		<path fill="#0F5959" d="M111.1,173.3h-1.4v-4.7h-5.3v4.7h-1.3v-10h1.3v4.2h5.3v-4.2h1.4V173.3z"/>
		<path fill="#0F5959" d="M122.5,168.3c0,1.5-0.4,2.8-1.3,3.8c-0.9,1-2.1,1.5-3.6,1.5c-1.5,0-2.7-0.5-3.6-1.5
			c-0.9-1-1.3-2.3-1.3-3.8c0-1.5,0.4-2.8,1.3-3.8c0.9-1,2.1-1.5,3.6-1.5c1.6,0,2.8,0.5,3.6,1.5c0.1,0.1,0.2,0.3,0.3,0.5
			c0.4,0,0.6-0.1,0.7-0.3c0.1-0.2,0.2-0.5,0.2-0.8c0-0.2,0-0.4,0-0.6h1.2c0.1,0.2,0.1,0.5,0.1,0.8c0,0.6-0.1,1.1-0.4,1.4
			c-0.3,0.3-0.7,0.5-1.2,0.5C122.4,166.6,122.5,167.4,122.5,168.3z M121.1,168.3c0-1.2-0.3-2.2-0.9-2.9s-1.5-1.2-2.6-1.2
			c-1.1,0-1.9,0.4-2.6,1.2s-0.9,1.8-0.9,2.9c0,1.2,0.3,2.2,1,3c0.6,0.8,1.5,1.1,2.5,1.1c1,0,1.9-0.4,2.5-1.1
			S121.1,169.5,121.1,168.3z M115.8,160.4h1.5l1,2h-0.9L115.8,160.4z"/>
		<path fill="#0F5959" d="M50.3,190.1h-1.7L46,186l-2.8,4.1h-1.6l3.6-5.2l-3.4-4.9h1.7l2.5,3.8l2.5-3.8h1.6l-3.4,4.9L50.3,190.1z"/>
		<path fill="#0F5959" d="M59.1,190.1h-7.4v-10H59v1.2h-6v3.1h5.5v1.2h-5.5v3.4h6.1V190.1z"/>
		<path fill="#0F5959" d="M64.2,180h4.4c0.9,0,1.6,0.2,2.1,0.7c0.5,0.5,0.8,1.1,0.8,1.8c0,0.5-0.1,0.9-0.3,1.2s-0.6,0.7-1,0.9
			c0.6,0.2,1.1,0.6,1.4,0.9s0.4,0.9,0.4,1.5c0,0.9-0.3,1.6-0.9,2.1s-1.5,0.8-2.5,0.8h-4.3V180z M65.6,184.3H68
			c0.7,0,1.2-0.1,1.6-0.4s0.5-0.7,0.5-1.2c0-0.5-0.2-0.8-0.5-1.1c-0.3-0.3-0.8-0.4-1.6-0.4h-2.5V184.3z M65.6,188.9h2.9
			c0.7,0,1.2-0.2,1.6-0.5s0.5-0.8,0.5-1.3c0-0.6-0.2-1-0.6-1.3s-1-0.4-1.8-0.4h-2.7V188.9z"/>
		<path fill="#0F5959" d="M81.3,180v6.5c0,1.1-0.4,2-1.1,2.7s-1.7,1.1-3,1.1c-1.2,0-2.1-0.3-2.8-1c-0.7-0.7-1-1.5-1-2.6V180h1.3v6.3
			c0,0.9,0.2,1.6,0.7,2.1c0.5,0.5,1.1,0.7,1.9,0.7c0.8,0,1.5-0.2,1.9-0.7c0.5-0.5,0.7-1.2,0.7-2.1V180H81.3z"/>
		<path fill="#0F5959" d="M87.6,190.1h-1.4v-4l-3.8-6H84l2.9,4.8l2.9-4.8h1.6l-3.8,6V190.1z M87.2,179.1h-0.9l1-2h1.5L87.2,179.1z"
			/>
		<path fill="#0F5959" d="M95,181.2h-3.4V180h8.2v1.2h-3.4v8.8H95V181.2z"/>
	</g>
	<g>
		<path fill="#0F5959" d="M47.3,102.3h-13v-1.8h2.5V34.1h-2.5v-1.8h10.5v68.2h2.5V102.3z"/>
		<path fill="#0F5959" d="M75.7,92.6c0,2.8-1.2,5.2-3.5,7.2s-5.2,3-8.5,3c-3.3,0-6.1-1-8.5-3c-2.4-2-3.5-4.4-3.5-7.2V81.3h8V97
			c0,1.1,0.4,2.1,1.2,2.8s1.7,1.2,2.8,1.2c1.1,0,2.1-0.4,2.8-1.2s1.2-1.7,1.2-2.8V70.3c0-1.1-0.4-2.1-1.2-2.8s-1.7-1.2-2.8-1.2H52.2
			V32.3h22.5v21h-8V34.1h-6.5v30.3h3.5c3.3,0,6.2,1,8.5,3s3.5,4.4,3.5,7.2V92.6z"/>
		<path fill="#0F5959" d="M105.7,92.6c0,2.8-1.2,5.2-3.5,7.2s-5.2,3-8.5,3c-3.3,0-6.1-1-8.5-3c-2.4-2-3.5-4.4-3.5-7.2V42
			c0-2.8,1.2-5.2,3.5-7.2c2.4-2,5.2-3,8.5-3c3.3,0,6.2,1,8.5,3s3.5,4.4,3.5,7.2V92.6z M97.7,97V37.6c0-1.1-0.4-2.1-1.2-2.8
			s-1.7-1.2-2.8-1.2c-1.1,0-2.1,0.4-2.8,1.2s-1.2,1.7-1.2,2.8V97c0,1.1,0.4,2.1,1.2,2.8s1.7,1.2,2.8,1.2c1.1,0,2.1-0.4,2.8-1.2
			S97.7,98.1,97.7,97z"/>
	</g>
</g>
</svg>
