<?xml version="1.0" encoding="utf-8"?>
<!-- Generator: Adobe Illustrator 17.1.0, SVG Export Plug-In . SVG Version: 6.00 Build 0)  -->
<!DOCTYPE svg PUBLIC "-//W3C//DTD SVG 1.1//EN" "http://www.w3.org/Graphics/SVG/1.1/DTD/svg11.dtd">
<svg version="1.1" id="Layer_1" xmlns="http://www.w3.org/2000/svg" xmlns:xlink="http://www.w3.org/1999/xlink" x="0px" y="0px"
	 viewBox="0 0 142 218" enable-background="new 0 0 142 218" xml:space="preserve">
<g>
	<g>
		<path fill="#0F5959" d="M65.9,139.7v-5.9c0-0.1,0-0.5,0-1.1s0-1.1,0-1.4h0l-2.8,8.4h-1.3l-2.8-8.4h0c0,0.3,0,0.8,0,1.4s0,1,0,1.1
			v5.9h-1.3v-10h1.9l2.9,8.5h0l2.8-8.5h1.9v10H65.9z"/>
		<path fill="#0F5959" d="M71,136.8l-1.1,2.9h-1.4l3.8-10h1.5l3.6,10H76l-1-2.9H71z M71,126.8h0.7c0.2,0.7,0.6,1.1,1.4,1.1
			s1.3-0.4,1.4-1.1h0.7c-0.1,1.3-0.8,1.9-2.1,1.9S71.1,128.1,71,126.8z M74.5,135.6l-1.5-4.4h0l-1.6,4.4H74.5z M72.4,142.4V141h1.2
			v1.4H72.4z"/>
		<path fill="#0F5959" d="M81.3,130.8h-3.4v-1.2h8.2v1.2h-3.4v8.8h-1.4V130.8z"/>
		<path fill="#0F5959" d="M39.2,151.5c0,1.6-0.5,2.9-1.5,3.9l1.4,1.1l-0.7,0.8l-1.5-1.2c-0.8,0.4-1.6,0.7-2.6,0.7
			c-1.5,0-2.7-0.5-3.6-1.5s-1.3-2.3-1.3-3.8c0-1.5,0.4-2.8,1.3-3.8s2.1-1.5,3.6-1.5c1.6,0,2.8,0.5,3.6,1.5S39.2,150,39.2,151.5z
			 M37.8,151.5c0-1.2-0.3-2.2-0.9-2.9s-1.5-1.2-2.6-1.2c-1.1,0-1.9,0.4-2.6,1.2s-0.9,1.8-0.9,2.9c0,1.2,0.3,2.2,1,2.9
			s1.5,1.1,2.5,1.1c0.5,0,1-0.1,1.5-0.3l-1.1-0.8l0.7-0.8l1.3,1C37.4,153.8,37.8,152.8,37.8,151.5z"/>
		<path fill="#0F5959" d="M48.7,146.4v6.5c0,1.1-0.4,2-1.1,2.7s-1.7,1.1-3,1.1c-1.2,0-2.1-0.3-2.8-1s-1-1.5-1-2.6v-6.7h1.3v6.3
			c0,0.9,0.2,1.6,0.7,2.1s1.1,0.7,1.9,0.7c0.8,0,1.5-0.2,1.9-0.7s0.7-1.2,0.7-2.1v-6.4H48.7z"/>
		<path fill="#0F5959" d="M52.4,153.6l-1.1,2.9h-1.4l3.8-10h1.5l3.6,10h-1.5l-1-2.9H52.4z M55.9,152.4l-1.5-4.4h0l-1.6,4.4H55.9z
			 M54.8,145.6H54c0-0.2,0-0.3,0.1-0.4s0.2-0.2,0.4-0.3c0.2-0.1,0.3-0.2,0.4-0.2s0.1-0.2,0.1-0.3c0-0.2-0.1-0.3-0.2-0.4
			s-0.2-0.1-0.4-0.1c-0.2,0-0.3,0-0.4,0.1s-0.2,0.2-0.2,0.4h-0.8c0-0.4,0.1-0.7,0.4-0.9s0.6-0.3,1-0.3c0.4,0,0.7,0.1,1,0.3
			s0.4,0.5,0.4,0.9c0,0.2,0,0.3-0.1,0.5s-0.2,0.3-0.4,0.4c-0.2,0.1-0.3,0.2-0.3,0.2S54.8,145.5,54.8,145.6z"/>
		<path fill="#0F5959" d="M66.9,146.4h1.3v10h-1.5l-5.1-8.1h0v8.1h-1.3v-10h1.6l5,8.1h0V146.4z"/>
		<path fill="#0F5959" d="M74.7,151.1h4.4v5.4h-0.9l-0.3-1.3c-0.4,0.5-0.9,0.9-1.5,1.2s-1.2,0.4-1.8,0.4c-1,0-1.8-0.2-2.5-0.7
			s-1.2-1-1.6-1.8s-0.6-1.7-0.6-2.9c0-1.4,0.4-2.7,1.3-3.7s2-1.5,3.5-1.5c1.1,0,2,0.3,2.8,0.9s1.3,1.4,1.4,2.4h-1.3
			c-0.2-0.7-0.5-1.2-1-1.6s-1.2-0.6-2-0.6c-1,0-1.8,0.4-2.4,1.1s-0.9,1.7-0.9,3c0,1.4,0.3,2.5,0.9,3.1s1.4,1,2.4,1
			c0.7,0,1.2-0.1,1.7-0.4s0.8-0.6,1.1-1.1s0.4-1.1,0.4-1.8h-3.1V151.1z"/>
		<path fill="#0F5959" d="M91.6,149.5c-0.2-0.7-0.5-1.2-0.9-1.6s-1.1-0.5-1.9-0.5c-1,0-1.8,0.4-2.4,1.1s-0.9,1.7-0.9,2.9
			c0,1.4,0.3,2.5,0.9,3.2s1.4,1,2.5,1c0.7,0,1.3-0.2,1.8-0.7s0.9-1.2,1-2.1h1.3c-0.2,1.3-0.7,2.3-1.5,2.9s-1.8,1-2.9,1
			c-1.4,0-2.5-0.5-3.3-1.4s-1.2-2.3-1.2-3.9c0-1.6,0.4-2.9,1.3-3.8s2-1.4,3.4-1.4c1.2,0,2.1,0.3,2.8,0.9s1.2,1.4,1.3,2.4H91.6z"/>
		<path fill="#0F5959" d="M96.3,153.6l-1.1,2.9h-1.4l3.8-10h1.5l3.6,10h-1.5l-1-2.9H96.3z M99.8,152.4l-1.5-4.4h0l-1.6,4.4H99.8z
			 M98.7,145.5h-0.9l1-2h1.5L98.7,145.5z"/>
		<path fill="#0F5959" d="M113.3,151.5c0,1.5-0.4,2.8-1.3,3.8s-2.1,1.5-3.6,1.5c-1.5,0-2.7-0.5-3.6-1.5s-1.3-2.3-1.3-3.8
			c0-1.5,0.4-2.8,1.3-3.8s2.1-1.5,3.6-1.5c1.6,0,2.8,0.5,3.6,1.5S113.3,150,113.3,151.5z M111.9,151.5c0-1.2-0.3-2.2-0.9-2.9
			s-1.5-1.2-2.6-1.2c-1.1,0-1.9,0.4-2.6,1.2s-0.9,1.8-0.9,2.9c0,1.2,0.3,2.2,1,3s1.5,1.1,2.5,1.1c1,0,1.9-0.4,2.5-1.1
			S111.9,152.7,111.9,151.5z"/>
		<path fill="#0F5959" d="M11.7,164.4H8.3v-1.2h8.2v1.2h-3.4v8.8h-1.4V164.4z"/>
		<path fill="#0F5959" d="M19.1,173.3h-1.4v-10h4.6c1.1,0,1.9,0.2,2.5,0.7s0.8,1.1,0.8,2c0,0.6-0.1,1.1-0.3,1.4s-0.6,0.7-1.1,1
			c0.4,0.2,0.7,0.4,0.9,0.6s0.3,0.7,0.3,1.3l0.1,1.9c0,0.3,0.1,0.5,0.1,0.7s0.2,0.2,0.4,0.3v0.2h-1.7c-0.1-0.3-0.1-0.6-0.2-1.1
			s-0.1-1-0.1-1.4c0-0.2,0-0.4-0.1-0.6s-0.1-0.4-0.2-0.6s-0.3-0.3-0.5-0.4s-0.6-0.2-1-0.2h-3.3V173.3z M19.1,167.8h3.1
			c0.7,0,1.3-0.1,1.6-0.4s0.5-0.7,0.5-1.3c0-0.5-0.1-0.9-0.4-1.2s-0.7-0.5-1.4-0.5h-3.4V167.8z"/>
		<path fill="#0F5959" d="M35.2,173.3h-7.4v-10h7.3v1.2h-6v3.1h5.5v1.2h-5.5v3.4h6.1V173.3z M30.5,162.3h-1.1l1.4-2H32l1.4,2h-1.1
			l-0.9-1.3L30.5,162.3z"/>
		<path fill="#0F5959" d="M43.5,163.2h1.3v10h-1.5l-5.1-8.1h0v8.1h-1.3v-10h1.6l5,8.1h0V163.2z"/>
		<path fill="#0F5959" d="M52.3,164.4h-3.4v-1.2H57v1.2h-3.4v8.8h-1.4V164.4z"/>
		<path fill="#0F5959" d="M59.7,173.3h-1.4v-10H63c1.1,0,1.9,0.2,2.5,0.7s0.8,1.1,0.8,2c0,0.6-0.1,1.1-0.3,1.4s-0.6,0.7-1.1,1
			c0.4,0.2,0.7,0.4,0.9,0.6s0.3,0.7,0.3,1.3l0.1,1.9c0,0.3,0.1,0.5,0.1,0.7s0.2,0.2,0.4,0.3v0.2H65c-0.1-0.3-0.1-0.6-0.2-1.1
			s-0.1-1-0.1-1.4c0-0.2,0-0.4-0.1-0.6s-0.1-0.4-0.2-0.6s-0.3-0.3-0.5-0.4s-0.6-0.2-1-0.2h-3.3V173.3z M59.7,167.8h3.1
			c0.7,0,1.3-0.1,1.6-0.4s0.5-0.7,0.5-1.3c0-0.5-0.1-0.9-0.4-1.2s-0.7-0.5-1.4-0.5h-3.4V167.8z"/>
		<path fill="#0F5959" d="M69.8,170.4l-1.1,2.9h-1.4l3.8-10h1.5l3.6,10h-1.5l-1-2.9H69.8z M73.4,169.2l-1.5-4.4h0l-1.6,4.4H73.4z
			 M71.2,176v-1.4h1.2v1.4H71.2z"/>
		<path fill="#0F5959" d="M86,173.3v-5.9c0-0.1,0-0.5,0-1.1s0-1.1,0-1.4h0l-2.8,8.4h-1.3l-2.8-8.4h0c0,0.3,0,0.8,0,1.4s0,1,0,1.1
			v5.9h-1.3v-10h1.9l2.9,8.5h0l2.8-8.5h1.9v10H86z"/>
		<path fill="#0F5959" d="M93,163.2h4.1c1.3,0,2.3,0.5,3.1,1.4s1.1,2.1,1.1,3.5c0,1.5-0.4,2.8-1.1,3.7s-1.8,1.4-3.1,1.4h-4V163.2z
			 M94.3,172.1H97c0.9,0,1.6-0.3,2.1-1s0.8-1.7,0.8-2.9c0-1.2-0.3-2.1-0.8-2.8s-1.3-1-2.2-1h-2.5V172.1z"/>
		<path fill="#0F5959" d="M103,163.2h1.3v6.3c0,0.9,0.2,1.6,0.7,2.1s1.1,0.7,1.9,0.7c0.8,0,1.5-0.2,1.9-0.7s0.7-1.2,0.7-2.1v-6.4
			h1.4v1.7c0.1,0,0.2,0,0.3,0c0.3,0,0.6-0.1,0.7-0.3s0.2-0.5,0.2-0.8c0-0.2,0-0.4,0-0.6h1.2c0.1,0.2,0.1,0.5,0.1,0.8
			c0,0.6-0.1,1.1-0.4,1.4s-0.8,0.5-1.4,0.5c-0.2,0-0.4,0-0.6,0v3.9c0,1.1-0.4,2-1.1,2.7s-1.7,1.1-3,1.1c-1.2,0-2.1-0.3-2.8-1
			s-1-1.5-1-2.6V163.2z M105.2,160.4h1.5l1,2h-0.9L105.2,160.4z"/>
		<path fill="#0F5959" d="M121.3,163.2h1.3v10h-1.5l-5.1-8.1h0v8.1h-1.3v-10h1.6l5,8.1h0V163.2z"/>
		<path fill="#0F5959" d="M129.1,167.9h4.4v5.4h-0.9l-0.3-1.3c-0.4,0.5-0.9,0.9-1.5,1.2s-1.2,0.4-1.8,0.4c-1,0-1.8-0.2-2.5-0.7
			s-1.2-1-1.6-1.8s-0.6-1.7-0.6-2.9c0-1.4,0.4-2.7,1.3-3.7s2-1.5,3.5-1.5c1.1,0,2,0.3,2.8,0.9s1.3,1.4,1.4,2.4h-1.3
			c-0.2-0.7-0.5-1.2-1-1.6s-1.2-0.6-2-0.6c-1,0-1.8,0.4-2.4,1.1s-0.9,1.7-0.9,3c0,1.4,0.3,2.5,0.9,3.1s1.4,1,2.4,1
			c0.7,0,1.2-0.1,1.7-0.4s0.8-0.6,1.1-1.1s0.4-1.1,0.4-1.8h-3.1V167.9z"/>
		<path fill="#0F5959" d="M51,190.1h-1.7l-2.7-4.1l-2.8,4.1h-1.6l3.6-5.2l-3.4-4.9h1.7l2.5,3.8l2.5-3.8h1.6l-3.4,4.9L51,190.1z"/>
		<path fill="#0F5959" d="M59.8,190.1h-7.4v-10h7.3v1.2h-6v3.1h5.5v1.2h-5.5v3.4h6.1V190.1z"/>
		<path fill="#0F5959" d="M64.9,180h4.4c0.9,0,1.6,0.2,2.1,0.7s0.8,1.1,0.8,1.8c0,0.5-0.1,0.9-0.3,1.2s-0.6,0.7-1,0.9
			c0.6,0.2,1.1,0.6,1.4,0.9c0.3,0.4,0.4,0.9,0.4,1.5c0,0.9-0.3,1.6-0.9,2.1s-1.5,0.8-2.5,0.8h-4.3V180z M66.3,184.3h2.5
			c0.7,0,1.2-0.1,1.6-0.4s0.5-0.7,0.5-1.2c0-0.5-0.2-0.8-0.5-1.1s-0.8-0.4-1.6-0.4h-2.5V184.3z M66.3,188.9h2.9
			c0.7,0,1.2-0.2,1.6-0.5s0.5-0.8,0.5-1.3c0-0.6-0.2-1-0.6-1.3s-1-0.4-1.8-0.4h-2.7V188.9z"/>
		<path fill="#0F5959" d="M82,180v6.5c0,1.1-0.4,2-1.1,2.7s-1.7,1.1-3,1.1c-1.2,0-2.1-0.3-2.8-1s-1-1.5-1-2.6V180h1.3v6.3
			c0,0.9,0.2,1.6,0.7,2.1s1.1,0.7,1.9,0.7c0.8,0,1.5-0.2,1.9-0.7s0.7-1.2,0.7-2.1V180H82z"/>
		<path fill="#0F5959" d="M88.3,190.1H87v-4l-3.8-6h1.6l2.9,4.8l2.9-4.8h1.6l-3.8,6V190.1z M87.9,179.1H87l1-2h1.5L87.9,179.1z"/>
		<path fill="#0F5959" d="M95.7,181.2h-3.4V180h8.2v1.2h-3.4v8.8h-1.4V181.2z"/>
	</g>
	<g>
		<path fill="#0F5959" d="M68.9,92.6c0,2.8-1.2,5.2-3.5,7.2s-5.2,3-8.5,3c-3.3,0-6.1-1-8.5-3c-2.4-2-3.5-4.4-3.5-7.2V42
			c0-2.8,1.2-5.2,3.5-7.2c2.4-2,5.2-3,8.5-3c3.3,0,6.2,1,8.5,3s3.5,4.4,3.5,7.2v11.3h-8V37.6c0-1.1-0.4-2.1-1.2-2.8
			s-1.7-1.2-2.8-1.2c-1.1,0-2.1,0.4-2.8,1.2s-1.2,1.7-1.2,2.8v28.2c1.5-1.2,3.5-1.9,6.1-1.9c6.6,0,9.9,3.1,9.9,9.2V92.6z M60.9,97
			V69.7c0-2.5-1.3-3.8-4-3.8c-1.4,0-2.8,0.6-4,1.7V97c0,1.1,0.4,2.1,1.2,2.8s1.7,1.2,2.8,1.2c1.1,0,2.1-0.4,2.8-1.2
			S60.9,98.1,60.9,97z"/>
		<path fill="#0F5959" d="M97.8,102.3h-23V83.2c0-3.3,0.9-6.3,2.6-9l10-15.6c1.6-2.5,2.4-5.4,2.4-8.7V37.6c0-2.7-1.2-4-3.5-4
			s-3.5,1.3-3.5,4v15.7h-8V42c0-2.8,1.1-5.2,3.3-7.2c2.2-2,4.9-3,8.2-3c3.3,0,6,1,8.2,3c2.2,2,3.3,4.4,3.3,7.2v10
			c0,3.3-0.9,6.3-2.6,9l-10,15.6c-1.6,2.5-2.4,5.4-2.4,8.7v15.2h7V81.3h8V102.3z"/>
	</g>
</g>
</svg>
