<?xml version="1.0" encoding="utf-8"?>
<!-- Generator: Adobe Illustrator 17.1.0, SVG Export Plug-In . SVG Version: 6.00 Build 0)  -->
<!DOCTYPE svg PUBLIC "-//W3C//DTD SVG 1.1//EN" "http://www.w3.org/Graphics/SVG/1.1/DTD/svg11.dtd">
<svg version="1.1" id="Layer_1" xmlns="http://www.w3.org/2000/svg" xmlns:xlink="http://www.w3.org/1999/xlink" x="0px" y="0px"
	 viewBox="0 0 142 218" enable-background="new 0 0 142 218" xml:space="preserve">
<g>
	<g>
		<path fill="#0F5959" d="M66,139.7v-5.9c0-0.1,0-0.5,0-1.1c0-0.7,0-1.1,0-1.4h0l-2.8,8.4h-1.3l-2.8-8.4h0c0,0.3,0,0.8,0,1.4
			c0,0.6,0,1,0,1.1v5.9h-1.3v-10h1.9l2.9,8.5h0l2.8-8.5h1.9v10H66z"/>
		<path fill="#0F5959" d="M71.1,136.8l-1.1,2.9h-1.4l3.8-10h1.5l3.6,10h-1.5l-1-2.9H71.1z M71.1,126.8h0.7c0.2,0.7,0.6,1.1,1.4,1.1
			c0.8,0,1.3-0.4,1.4-1.1h0.7c-0.1,1.3-0.8,1.9-2.1,1.9C71.8,128.7,71.1,128.1,71.1,126.8z M74.6,135.6l-1.5-4.4h0l-1.6,4.4H74.6z
			 M72.5,142.4V141h1.2v1.4H72.5z"/>
		<path fill="#0F5959" d="M81.3,130.8H78v-1.2h8.2v1.2h-3.4v8.8h-1.4V130.8z"/>
		<path fill="#0F5959" d="M39.2,151.5c0,1.6-0.5,2.9-1.5,3.9l1.4,1.1l-0.7,0.8l-1.5-1.2c-0.8,0.4-1.6,0.7-2.6,0.7
			c-1.5,0-2.7-0.5-3.6-1.5c-0.9-1-1.3-2.3-1.3-3.8c0-1.5,0.4-2.8,1.3-3.8c0.9-1,2.1-1.5,3.6-1.5c1.6,0,2.8,0.5,3.6,1.5
			C38.8,148.8,39.2,150,39.2,151.5z M37.8,151.5c0-1.2-0.3-2.2-0.9-2.9s-1.5-1.2-2.6-1.2c-1.1,0-1.9,0.4-2.6,1.2s-0.9,1.8-0.9,2.9
			c0,1.2,0.3,2.2,1,2.9c0.6,0.8,1.5,1.1,2.5,1.1c0.5,0,1-0.1,1.5-0.3l-1.1-0.8l0.7-0.8l1.3,1C37.5,153.8,37.8,152.8,37.8,151.5z"/>
		<path fill="#0F5959" d="M48.8,146.4v6.5c0,1.1-0.4,2-1.1,2.7s-1.7,1.1-3,1.1c-1.2,0-2.1-0.3-2.8-1c-0.7-0.7-1-1.5-1-2.6v-6.7h1.3
			v6.3c0,0.9,0.2,1.6,0.7,2.1c0.5,0.5,1.1,0.7,1.9,0.7c0.8,0,1.5-0.2,1.9-0.7c0.5-0.5,0.7-1.2,0.7-2.1v-6.4H48.8z"/>
		<path fill="#0F5959" d="M52.4,153.6l-1.1,2.9H50l3.8-10h1.5l3.6,10h-1.5l-1-2.9H52.4z M56,152.4l-1.5-4.4h0l-1.6,4.4H56z
			 M54.9,145.6h-0.8c0-0.2,0-0.3,0.1-0.4c0.1-0.1,0.2-0.2,0.4-0.3c0.2-0.1,0.3-0.2,0.4-0.2s0.1-0.2,0.1-0.3c0-0.2-0.1-0.3-0.2-0.4
			c-0.1-0.1-0.2-0.1-0.4-0.1c-0.2,0-0.3,0-0.4,0.1c-0.1,0.1-0.2,0.2-0.2,0.4h-0.8c0-0.4,0.1-0.7,0.4-0.9c0.3-0.2,0.6-0.3,1-0.3
			c0.4,0,0.7,0.1,1,0.3s0.4,0.5,0.4,0.9c0,0.2,0,0.3-0.1,0.5s-0.2,0.3-0.4,0.4c-0.2,0.1-0.3,0.2-0.3,0.2
			C54.9,145.4,54.9,145.5,54.9,145.6z"/>
		<path fill="#0F5959" d="M66.9,146.4h1.3v10h-1.5l-5.1-8.1h0v8.1h-1.3v-10h1.6l5,8.1h0V146.4z"/>
		<path fill="#0F5959" d="M74.8,151.1h4.4v5.4h-0.9l-0.3-1.3c-0.4,0.5-0.9,0.9-1.5,1.2c-0.6,0.2-1.2,0.4-1.8,0.4
			c-1,0-1.8-0.2-2.5-0.7s-1.2-1-1.6-1.8c-0.4-0.8-0.6-1.7-0.6-2.9c0-1.4,0.4-2.7,1.3-3.7c0.9-1,2-1.5,3.5-1.5c1.1,0,2,0.3,2.8,0.9
			c0.8,0.6,1.3,1.4,1.4,2.4h-1.3c-0.2-0.7-0.5-1.2-1-1.6c-0.5-0.4-1.2-0.6-2-0.6c-1,0-1.8,0.4-2.4,1.1s-0.9,1.7-0.9,3
			c0,1.4,0.3,2.5,0.9,3.1c0.6,0.7,1.4,1,2.4,1c0.7,0,1.2-0.1,1.7-0.4c0.5-0.3,0.8-0.6,1.1-1.1c0.3-0.5,0.4-1.1,0.4-1.8h-3.1V151.1z"
			/>
		<path fill="#0F5959" d="M91.7,149.5c-0.2-0.7-0.5-1.2-0.9-1.6c-0.5-0.4-1.1-0.5-1.9-0.5c-1,0-1.8,0.4-2.4,1.1s-0.9,1.7-0.9,2.9
			c0,1.4,0.3,2.5,0.9,3.2c0.6,0.7,1.4,1,2.5,1c0.7,0,1.3-0.2,1.8-0.7s0.9-1.2,1-2.1h1.3c-0.2,1.3-0.7,2.3-1.5,2.9
			c-0.8,0.7-1.8,1-2.9,1c-1.4,0-2.5-0.5-3.3-1.4c-0.8-0.9-1.2-2.3-1.2-3.9c0-1.6,0.4-2.9,1.3-3.8c0.9-0.9,2-1.4,3.4-1.4
			c1.2,0,2.1,0.3,2.8,0.9s1.2,1.4,1.3,2.4H91.7z"/>
		<path fill="#0F5959" d="M96.3,153.6l-1.1,2.9h-1.4l3.8-10h1.5l3.6,10h-1.5l-1-2.9H96.3z M99.9,152.4l-1.5-4.4h0l-1.6,4.4H99.9z
			 M98.8,145.5h-0.9l1-2h1.5L98.8,145.5z"/>
		<path fill="#0F5959" d="M113.4,151.5c0,1.5-0.4,2.8-1.3,3.8c-0.9,1-2.1,1.5-3.6,1.5c-1.5,0-2.7-0.5-3.6-1.5
			c-0.9-1-1.3-2.3-1.3-3.8c0-1.5,0.4-2.8,1.3-3.8c0.9-1,2.1-1.5,3.6-1.5c1.6,0,2.8,0.5,3.6,1.5C113,148.8,113.4,150,113.4,151.5z
			 M112,151.5c0-1.2-0.3-2.2-0.9-2.9s-1.5-1.2-2.6-1.2c-1.1,0-1.9,0.4-2.6,1.2s-0.9,1.8-0.9,2.9c0,1.2,0.3,2.2,1,3
			c0.6,0.8,1.5,1.1,2.5,1.1c1,0,1.9-0.4,2.5-1.1S112,152.7,112,151.5z"/>
		<path fill="#0F5959" d="M39.6,164.4h-3.4v-1.2h8.2v1.2h-3.4v8.8h-1.4V164.4z"/>
		<path fill="#0F5959" d="M47,173.3h-1.4v-10h4.6c1.1,0,1.9,0.2,2.5,0.7c0.6,0.5,0.8,1.1,0.8,2c0,0.6-0.1,1.1-0.3,1.4
			c-0.2,0.4-0.6,0.7-1.1,1c0.4,0.2,0.7,0.4,0.9,0.6c0.2,0.3,0.3,0.7,0.3,1.3l0.1,1.9c0,0.3,0.1,0.5,0.1,0.7s0.2,0.2,0.4,0.3v0.2
			h-1.7c-0.1-0.3-0.1-0.6-0.2-1.1c0-0.5-0.1-1-0.1-1.4c0-0.2,0-0.4-0.1-0.6c0-0.2-0.1-0.4-0.2-0.6s-0.3-0.3-0.5-0.4
			c-0.2-0.1-0.6-0.2-1-0.2H47V173.3z M47,167.8h3.1c0.7,0,1.3-0.1,1.6-0.4c0.3-0.3,0.5-0.7,0.5-1.3c0-0.5-0.1-0.9-0.4-1.2
			s-0.7-0.5-1.4-0.5H47V167.8z"/>
		<path fill="#0F5959" d="M63.1,173.3h-7.4v-10H63v1.2h-6v3.1h5.5v1.2H57v3.4h6.1V173.3z M58.4,162.3h-1.1l1.4-2h1.3l1.4,2h-1.1
			l-0.9-1.3L58.4,162.3z"/>
		<path fill="#0F5959" d="M71.4,163.2h1.3v10h-1.5l-5.1-8.1h0v8.1h-1.3v-10h1.6l5,8.1h0V163.2z"/>
		<path fill="#0F5959" d="M85.4,166.3c-0.2-0.7-0.5-1.2-0.9-1.6c-0.5-0.4-1.1-0.5-1.9-0.5c-1,0-1.8,0.4-2.4,1.1s-0.9,1.7-0.9,2.9
			c0,1.4,0.3,2.5,0.9,3.2c0.6,0.7,1.4,1,2.5,1c0.7,0,1.3-0.2,1.8-0.7s0.9-1.2,1-2.1h1.3c-0.2,1.3-0.7,2.3-1.5,2.9
			c-0.8,0.7-1.8,1-2.9,1c-1.4,0-2.5-0.5-3.3-1.4c-0.8-0.9-1.2-2.3-1.2-3.9c0-1.6,0.4-2.9,1.3-3.8c0.9-0.9,2-1.4,3.4-1.4
			c1.2,0,2.1,0.3,2.8,0.9s1.2,1.4,1.3,2.4H85.4z"/>
		<path fill="#0F5959" d="M97.7,168.3c0,1.5-0.4,2.8-1.3,3.8c-0.9,1-2.1,1.5-3.6,1.5c-1.5,0-2.7-0.5-3.6-1.5c-0.9-1-1.3-2.3-1.3-3.8
			c0-1.5,0.4-2.8,1.3-3.8c0.9-1,2.1-1.5,3.6-1.5c1.6,0,2.8,0.5,3.6,1.5C97.3,165.6,97.7,166.8,97.7,168.3z M96.4,168.3
			c0-1.2-0.3-2.2-0.9-2.9s-1.5-1.2-2.6-1.2c-1.1,0-1.9,0.4-2.6,1.2s-0.9,1.8-0.9,2.9c0,1.2,0.3,2.2,1,3c0.6,0.8,1.5,1.1,2.5,1.1
			c1,0,1.9-0.4,2.5-1.1S96.4,169.5,96.4,168.3z M91.9,162.3h-1.1l1.4-2h1.3l1.4,2h-1.1l-0.9-1.3L91.9,162.3z M92.2,176v-1.4h1.2v1.4
			H92.2z"/>
		<path fill="#0F5959" d="M101.9,164.4h-3.4v-1.2h8.2v1.2h-3.4v8.8h-1.4V164.4z"/>
		<path fill="#0F5959" d="M36.4,184.4h1.1V180h4.1c1.3,0,2.4,0.5,3.1,1.4c0.7,0.9,1.1,2.1,1.1,3.5c0,1.5-0.4,2.8-1.1,3.7
			c-0.7,0.9-1.8,1.4-3.2,1.4h-4v-4.6h-1.1V184.4z M38.9,188.9h2.6c0.9,0,1.6-0.3,2.2-1c0.5-0.7,0.8-1.7,0.8-2.9
			c0-1.2-0.3-2.1-0.8-2.8s-1.3-1-2.2-1h-2.5v3.1h2.9v1.1h-2.9V188.9z"/>
		<path fill="#0F5959" d="M55,190.1h-7.4v-10h7.3v1.2h-6v3.1h5.5v1.2H49v3.4H55V190.1z M49.4,177.2h1.5l1,2h-0.9L49.4,177.2z"/>
		<path fill="#0F5959" d="M63.4,180h1.3v10h-1.5L58,182h0v8.1h-1.3v-10h1.6l5,8.1h0V180z"/>
		<path fill="#0F5959" d="M79.6,185.1c0,1.6-0.5,2.9-1.5,3.9l1.4,1.1l-0.7,0.8l-1.5-1.2c-0.8,0.4-1.6,0.7-2.6,0.7
			c-1.5,0-2.7-0.5-3.6-1.5c-0.9-1-1.3-2.3-1.3-3.8c0-1.5,0.4-2.8,1.3-3.8c0.9-1,2.1-1.5,3.6-1.5c1.6,0,2.8,0.5,3.6,1.5
			C79.2,182.4,79.6,183.6,79.6,185.1z M78.2,185.1c0-1.2-0.3-2.2-0.9-2.9s-1.5-1.2-2.6-1.2c-1.1,0-1.9,0.4-2.6,1.2s-0.9,1.8-0.9,2.9
			c0,1.2,0.3,2.2,1,2.9c0.6,0.8,1.5,1.1,2.5,1.1c0.5,0,1-0.1,1.5-0.3l-1.1-0.8l0.7-0.8l1.3,1C77.8,187.4,78.2,186.4,78.2,185.1z"/>
		<path fill="#0F5959" d="M89.1,180v6.5c0,1.1-0.4,2-1.1,2.7s-1.7,1.1-3,1.1c-1.2,0-2.1-0.3-2.8-1c-0.7-0.7-1-1.5-1-2.6V180h1.3v6.3
			c0,0.9,0.2,1.6,0.7,2.1c0.5,0.5,1.1,0.7,1.9,0.7c0.8,0,1.5-0.2,1.9-0.7c0.5-0.5,0.7-1.2,0.7-2.1V180H89.1z"/>
		<path fill="#0F5959" d="M92.2,187.2l-1.1,2.9h-1.4l3.8-10h1.5l3.6,10h-1.5l-1-2.9H92.2z M95.8,186l-1.5-4.4h0l-1.6,4.4H95.8z"/>
		<path fill="#0F5959" d="M102.7,190.1h-1.4v-4l-3.8-6h1.6l2.9,4.8l2.9-4.8h1.6l-3.8,6V190.1z"/>
	</g>
	<g>
		<path fill="#0F5959" d="M53.3,102.3h-13v-1.8h2.5V86.2H29.2v-2.1l13.5-51.8h8v51.8h2.5v2.1h-2.5v14.3h2.5V102.3z M42.8,84.1V40.7
			L31.5,84.1H42.8z"/>
		<path fill="#0F5959" d="M81.4,92.6c0,2.8-1.2,5.2-3.5,7.2s-5.2,3-8.5,3c-3.3,0-6.1-1-8.5-3c-2.4-2-3.5-4.4-3.5-7.2V81.3h8V97
			c0,1.1,0.4,2.1,1.2,2.8s1.7,1.2,2.8,1.2c1.1,0,2.1-0.4,2.8-1.2s1.2-1.7,1.2-2.8V70.3c0-1.1-0.4-2.1-1.2-2.8s-1.7-1.2-2.8-1.2H57.9
			V32.3h22.5v21h-8V34.1h-6.5v30.3h3.5c3.3,0,6.2,1,8.5,3s3.5,4.4,3.5,7.2V92.6z"/>
		<path fill="#0F5959" d="M111.4,92.6c0,2.8-1.2,5.2-3.5,7.2s-5.2,3-8.5,3c-3.3,0-6.1-1-8.5-3c-2.4-2-3.5-4.4-3.5-7.2V42
			c0-2.8,1.2-5.2,3.5-7.2c2.4-2,5.2-3,8.5-3c3.3,0,6.2,1,8.5,3s3.5,4.4,3.5,7.2V92.6z M103.4,97V37.6c0-1.1-0.4-2.1-1.2-2.8
			s-1.7-1.2-2.8-1.2c-1.1,0-2.1,0.4-2.8,1.2s-1.2,1.7-1.2,2.8V97c0,1.1,0.4,2.1,1.2,2.8s1.7,1.2,2.8,1.2c1.1,0,2.1-0.4,2.8-1.2
			S103.4,98.1,103.4,97z"/>
	</g>
</g>
</svg>
